%TF.GenerationSoftware,KiCad,Pcbnew,10.0.5*%
%TF.CreationDate,2026-08-25T17:45:02+08:00*%
%TF.ProjectId,controller,636f6e74-726f-46c6-9c65-722e6b696361,EVT1*%
%TF.SameCoordinates,Original*%
%TF.FileFunction,Legend,Bot*%
%TF.FilePolarity,Positive*%
%FSLAX46Y46*%
G04 Gerber Fmt 4.6, Leading zero omitted, Abs format (unit mm)*
G04 Created by KiCad (PCBNEW 10.0.5) date 2026-08-25 17:45:02*
%MOMM*%
%LPD*%
G01*
G04 APERTURE LIST*
%ADD10C,0.120000*%
%ADD11C,0.200000*%
G04 APERTURE END LIST*
%TO.C,C2*%
D10*
X39390000Y-49584252D02*
X39390000Y-52415748D01*
X44610000Y-49584252D02*
X44610000Y-52415748D01*
%TO.C,C6*%
X91288748Y-42140000D02*
X92711252Y-42140000D01*
X91288748Y-44860000D02*
X92711252Y-44860000D01*
%TO.C,R47*%
X91267742Y-6232500D02*
X91742258Y-6232500D01*
X91267742Y-7277500D02*
X91742258Y-7277500D01*
%TO.C,R51*%
X114767742Y-6232500D02*
X115242258Y-6232500D01*
X114767742Y-7277500D02*
X115242258Y-7277500D01*
%TO.C,RPG3*%
X87267742Y-6232500D02*
X87742258Y-6232500D01*
X87267742Y-7277500D02*
X87742258Y-7277500D01*
%TO.C,RS1*%
D11*
X34200000Y-47050000D02*
X34200000Y-46599999D01*
X34200000Y-47050000D02*
X34650000Y-47050000D01*
X34750000Y-39500000D02*
X44250000Y-39500000D01*
X34750000Y-40250000D02*
X34750000Y-39500000D01*
X34750000Y-46500000D02*
X34750000Y-45750000D01*
X34750000Y-46500000D02*
X44250000Y-46500000D01*
X44250000Y-40250000D02*
X44250000Y-39500000D01*
X44250000Y-46500000D02*
X44250000Y-45750000D01*
%TO.C,RSH1*%
D10*
X35762742Y-33477500D02*
X36237258Y-33477500D01*
X35762742Y-34522500D02*
X36237258Y-34522500D01*
%TD*%
M02*
