%TF.GenerationSoftware,KiCad,Pcbnew,10.0.5*%
%TF.CreationDate,2026-08-25T17:45:02+08:00*%
%TF.ProjectId,controller,636f6e74-726f-46c6-9c65-722e6b696361,EVT1*%
%TF.SameCoordinates,Original*%
%TF.FileFunction,Copper,L4,Inr*%
%TF.FilePolarity,Positive*%
%FSLAX46Y46*%
G04 Gerber Fmt 4.6, Leading zero omitted, Abs format (unit mm)*
G04 Created by KiCad (PCBNEW 10.0.5) date 2026-08-25 17:45:02*
%MOMM*%
%LPD*%
G01*
G04 APERTURE LIST*
G04 Aperture macros list*
%AMRoundRect*
0 Rectangle with rounded corners*
0 $1 Rounding radius*
0 $2 $3 $4 $5 $6 $7 $8 $9 X,Y pos of 4 corners*
0 Add a 4 corners polygon primitive as box body*
4,1,4,$2,$3,$4,$5,$6,$7,$8,$9,$2,$3,0*
0 Add four circle primitives for the rounded corners*
1,1,$1+$1,$2,$3*
1,1,$1+$1,$4,$5*
1,1,$1+$1,$6,$7*
1,1,$1+$1,$8,$9*
0 Add four rect primitives between the rounded corners*
20,1,$1+$1,$2,$3,$4,$5,0*
20,1,$1+$1,$4,$5,$6,$7,0*
20,1,$1+$1,$6,$7,$8,$9,0*
20,1,$1+$1,$8,$9,$2,$3,0*%
G04 Aperture macros list end*
%TA.AperFunction,ComponentPad*%
%ADD10RoundRect,0.250001X0.949999X-0.949999X0.949999X0.949999X-0.949999X0.949999X-0.949999X-0.949999X0*%
%TD*%
%TA.AperFunction,ComponentPad*%
%ADD11C,2.400000*%
%TD*%
%TA.AperFunction,ComponentPad*%
%ADD12RoundRect,0.250000X-0.750000X-0.750000X0.750000X-0.750000X0.750000X0.750000X-0.750000X0.750000X0*%
%TD*%
%TA.AperFunction,ComponentPad*%
%ADD13C,2.000000*%
%TD*%
%TA.AperFunction,ComponentPad*%
%ADD14R,1.700000X1.700000*%
%TD*%
%TA.AperFunction,ComponentPad*%
%ADD15C,1.700000*%
%TD*%
%TA.AperFunction,ComponentPad*%
%ADD16C,2.800000*%
%TD*%
%TA.AperFunction,ComponentPad*%
%ADD17C,3.800000*%
%TD*%
%TA.AperFunction,ViaPad*%
%ADD18C,0.600000*%
%TD*%
%TA.AperFunction,ViaPad*%
%ADD19C,0.800000*%
%TD*%
%TA.AperFunction,Conductor*%
%ADD20C,1.500000*%
%TD*%
%TA.AperFunction,Conductor*%
%ADD21C,0.250000*%
%TD*%
G04 APERTURE END LIST*
D10*
%TO.N,12V_ISO*%
%TO.C,C3*%
X105000000Y-39000000D03*
D11*
%TO.N,GND*%
X105000000Y-34000000D03*
%TD*%
D12*
%TO.N,JETSON_12V*%
%TO.C,C5*%
X119000000Y-20500000D03*
D13*
%TO.N,GND*%
X124000000Y-20500000D03*
%TD*%
D11*
%TO.N,VBAT_RAW*%
%TO.C,J1*%
X9500000Y-13000000D03*
X12500000Y-13000000D03*
%TO.N,GND_PWR*%
X9500000Y-16000000D03*
X12500000Y-16000000D03*
%TD*%
%TO.N,ESTOP_12V*%
%TO.C,J10*%
X69500000Y-89500000D03*
%TO.N,ESTOP_CH_A_RETURN*%
X72500000Y-89500000D03*
%TO.N,ESTOP_12V*%
X69500000Y-92500000D03*
%TO.N,ESTOP_CH_B_RETURN*%
X72500000Y-92500000D03*
%TD*%
%TO.N,MOTOR_ENABLE_SAFE*%
%TO.C,J11*%
X51500000Y-105500000D03*
%TO.N,ESTOP_SENSE*%
X54500000Y-105500000D03*
%TO.N,GND*%
X51500000Y-108500000D03*
%TO.N,3V3_LOGIC*%
X54500000Y-108500000D03*
%TD*%
%TO.N,ESTOP_CH_A_RETURN*%
%TO.C,J12*%
X69500000Y-105500000D03*
%TO.N,RESET_CH_A_RETURN*%
X72500000Y-105500000D03*
%TO.N,ESTOP_CH_B_RETURN*%
X69500000Y-108500000D03*
%TO.N,RESET_CH_B_RETURN*%
X72500000Y-108500000D03*
%TD*%
D14*
%TO.N,3V3_LOGIC*%
%TO.C,J13*%
X134000000Y-115500000D03*
D15*
%TO.N,SWDIO*%
X134000000Y-118040000D03*
%TO.N,SWCLK*%
X134000000Y-120580000D03*
%TO.N,GND*%
X134000000Y-123120000D03*
%TD*%
D11*
%TO.N,12V_ISO*%
%TO.C,J2*%
X116500000Y-74500000D03*
X119500000Y-74500000D03*
%TO.N,GND*%
X116500000Y-77500000D03*
X119500000Y-77500000D03*
%TD*%
%TO.N,JETSON_12V*%
%TO.C,J3*%
X116000000Y-31000000D03*
X119000000Y-31000000D03*
%TO.N,GND*%
X116000000Y-34000000D03*
X119000000Y-34000000D03*
%TD*%
D14*
%TO.N,3V3_LOGIC*%
%TO.C,J4*%
X82000000Y-97000000D03*
D15*
%TO.N,GND*%
X84540000Y-97000000D03*
%TO.N,3V3_LOGIC*%
X82000000Y-99540000D03*
%TO.N,GND*%
X84540000Y-99540000D03*
%TO.N,SPI_SCLK*%
X82000000Y-102080000D03*
%TO.N,SPI_MOSI*%
X84540000Y-102080000D03*
%TO.N,SPI_MISO*%
X82000000Y-104620000D03*
%TO.N,JETSON_ENABLE_REQ*%
X84540000Y-104620000D03*
%TO.N,MOTOR_CS0*%
X82000000Y-107160000D03*
%TO.N,MOTOR_CS1*%
X84540000Y-107160000D03*
%TO.N,MOTOR_CS2*%
X82000000Y-109700000D03*
%TO.N,MOTOR_CS3*%
X84540000Y-109700000D03*
%TO.N,MOTOR_CS4*%
X82000000Y-112240000D03*
%TO.N,MOTOR_CS5*%
X84540000Y-112240000D03*
%TO.N,I2C_SDA*%
X82000000Y-114780000D03*
%TO.N,I2C_SCL*%
X84540000Y-114780000D03*
%TO.N,ESTOP_SENSE*%
X82000000Y-117320000D03*
%TO.N,UART_TX*%
X84540000Y-117320000D03*
%TO.N,UART_RX*%
X82000000Y-119860000D03*
%TO.N,MCU_RESET*%
X84540000Y-119860000D03*
%TD*%
D11*
%TO.N,CANH*%
%TO.C,J5*%
X148000000Y-62500000D03*
%TO.N,CANL*%
X151000000Y-62500000D03*
%TO.N,GND_CAN_ISO*%
X148000000Y-65500000D03*
%TO.N,N/C*%
X151000000Y-65500000D03*
%TD*%
%TO.N,CANH*%
%TO.C,J6*%
X148000000Y-74500000D03*
%TO.N,CANL*%
X151000000Y-74500000D03*
%TO.N,GND_CAN_ISO*%
X148000000Y-77500000D03*
%TO.N,N/C*%
X151000000Y-77500000D03*
%TD*%
D14*
%TO.N,CAN_TERM*%
%TO.C,JP1*%
X148000000Y-84000000D03*
D15*
%TO.N,CANL*%
X148000000Y-86540000D03*
%TD*%
D13*
%TO.N,RESET_CH_A_RETURN*%
%TO.C,K1*%
X17000000Y-87000000D03*
%TO.N,GND*%
X23000000Y-87000000D03*
%TO.N,MOTOR_ENABLE_REQ*%
X29000000Y-87000000D03*
%TO.N,SAFE_STAGE_A*%
X35000000Y-87000000D03*
%TO.N,3V3_LOGIC*%
X41000000Y-87000000D03*
%TO.N,SENSE_STAGE_A*%
X41000000Y-99000000D03*
%TO.N,ESTOP_CH_A_RETURN*%
X35000000Y-99000000D03*
%TO.N,RESET_CH_A_RETURN*%
X29000000Y-99000000D03*
%TO.N,3V3_LOGIC*%
X23000000Y-99000000D03*
%TO.N,RELAY_A_NC*%
X17000000Y-99000000D03*
%TD*%
%TO.N,RESET_CH_B_RETURN*%
%TO.C,K2*%
X17000000Y-108000000D03*
%TO.N,GND*%
X23000000Y-108000000D03*
%TO.N,SAFE_STAGE_A*%
X29000000Y-108000000D03*
%TO.N,MOTOR_ENABLE_SAFE*%
X35000000Y-108000000D03*
%TO.N,SENSE_STAGE_A*%
X41000000Y-108000000D03*
%TO.N,ESTOP_SENSE*%
X41000000Y-120000000D03*
%TO.N,ESTOP_CH_B_RETURN*%
X35000000Y-120000000D03*
%TO.N,RESET_CH_B_RETURN*%
X29000000Y-120000000D03*
%TO.N,3V3_LOGIC*%
X23000000Y-120000000D03*
%TO.N,RELAY_B_NC*%
X17000000Y-120000000D03*
%TD*%
D16*
%TO.N,VBAT_PROTECTED*%
%TO.C,U2*%
X42600000Y-18380000D03*
%TO.N,GND_PWR*%
X42600000Y-26000000D03*
X42600000Y-33620000D03*
D17*
%TO.N,GND*%
X93400000Y-33620000D03*
D16*
X93400000Y-29810000D03*
%TO.N,N/C*%
X93400000Y-26000000D03*
%TO.N,12V_ISO*%
X93400000Y-22190000D03*
D17*
X93400000Y-18380000D03*
%TD*%
D18*
%TO.N,MOTOR_CS4*%
X100094800Y-122269800D03*
%TO.N,SPI_SCLK*%
X100207600Y-117172200D03*
%TO.N,12V_ISO*%
X100700000Y-46450000D03*
%TO.N,GND*%
X101000000Y-101500000D03*
%TO.N,3V3_PGOOD*%
X101000000Y-59500000D03*
%TO.N,U4_CTRL*%
X101447400Y-48137600D03*
%TO.N,SPI_SCLK_MCU*%
X102000000Y-111931200D03*
%TO.N,JETSON_PGOOD*%
X102000000Y-8000000D03*
D19*
%TO.N,12V_ISO*%
X102375800Y-25454200D03*
D18*
%TO.N,SPI_MISO_MCU*%
X102500000Y-109420400D03*
%TO.N,SPI_MOSI_MCU*%
X103000000Y-111937600D03*
%TO.N,BOOT0*%
X103000000Y-96579200D03*
%TO.N,SPI_MOSI_MCU*%
X103173400Y-117071300D03*
%TO.N,MOTOR_CS5_MCU*%
X103175000Y-122063400D03*
%TO.N,I2C_SDA_MCU*%
X103627900Y-97021500D03*
%TO.N,I2C_SCL_MCU*%
X103660700Y-94058700D03*
%TO.N,MCU_RESET*%
X104000000Y-83203500D03*
%TO.N,MOTOR_CS0_MCU*%
X104500000Y-111929000D03*
%TO.N,JETSON_ENABLE_REQ*%
X104500000Y-96584900D03*
%TO.N,U4_SS*%
X104510700Y-47474300D03*
%TO.N,SPI_MOSI*%
X104825000Y-117033100D03*
%TO.N,MOTOR_CS5*%
X104825000Y-122060700D03*
%TO.N,MOTOR_CS1_MCU*%
X105321000Y-111932800D03*
%TO.N,MOTOR_CS5_MCU*%
X105536400Y-108582400D03*
%TO.N,I2C_SCL_MCU*%
X106447400Y-122272400D03*
%TO.N,SPI_MISO_MCU*%
X106466900Y-118708100D03*
D19*
%TO.N,JETSON_12V*%
X107524000Y-20966600D03*
D18*
%TO.N,U3_ILIM*%
X107914000Y-17261000D03*
%TO.N,GND*%
X107992400Y-46727000D03*
%TO.N,JETSON_FAULT_N*%
X108000000Y-5000000D03*
%TO.N,SPI_MISO*%
X108114900Y-117289900D03*
%TO.N,U4_VCC*%
X108511200Y-47473800D03*
%TO.N,CAN_TX*%
X109000000Y-94056800D03*
%TO.N,3V3_LOGIC*%
X109556700Y-113108500D03*
%TO.N,I2C_SCL*%
X109558800Y-122266200D03*
%TO.N,U3_UVLO*%
X109675000Y-13678400D03*
%TO.N,GND*%
X109834600Y-90615400D03*
%TO.N,CAN_RX*%
X109898600Y-94059300D03*
%TO.N,I2C_SDA_MCU*%
X110316500Y-123000000D03*
%TO.N,MOTOR_CS0_MCU*%
X110464900Y-117289900D03*
%TO.N,MOTOR_CS2_MCU*%
X110533000Y-111953000D03*
%TO.N,ESTOP_B_MON*%
X110928000Y-105425500D03*
%TO.N,U3_UVLO*%
X111008600Y-25069200D03*
%TO.N,RELAY_B_NC*%
X111022600Y-107379400D03*
%TO.N,ESTOP_A_MON*%
X111208900Y-106179600D03*
%TO.N,GND*%
X111640200Y-112225100D03*
%TO.N,U3_PGTH*%
X111895000Y-21280000D03*
%TO.N,MOTOR_CS0*%
X112116100Y-117291100D03*
%TO.N,RELAY_A_NC*%
X112403400Y-107233900D03*
%TO.N,UART_TX_MCU*%
X112405000Y-100320900D03*
%TO.N,U3_ILIM*%
X112409700Y-14850700D03*
%TO.N,SWCLK*%
X112613900Y-95394000D03*
%TO.N,3V3_LOGIC*%
X112716100Y-111251400D03*
%TO.N,GND*%
X112724300Y-96397200D03*
%TO.N,I2C_SDA*%
X112825000Y-122033000D03*
%TO.N,MOTOR_CS4_MCU*%
X113206800Y-109612000D03*
D19*
%TO.N,JETSON_12V*%
X113500000Y-8100000D03*
X113500000Y-8800000D03*
D18*
%TO.N,3V3_LOGIC*%
X114110900Y-16679200D03*
%TO.N,U3_IMON*%
X114180000Y-6755000D03*
%TO.N,MOTOR_CS1_MCU*%
X114464900Y-117289900D03*
D19*
%TO.N,JETSON_12V*%
X114500000Y-8100000D03*
X114500000Y-8800000D03*
D18*
%TO.N,JETSON_PGOOD*%
X114831100Y-11104100D03*
%TO.N,SWDIO*%
X114927200Y-98574500D03*
%TO.N,MOTOR_ENABLE_REQ*%
X114931600Y-108000000D03*
%TO.N,UART_RX_MCU*%
X114937100Y-100074400D03*
%TO.N,ESTOP_SENSE*%
X114940000Y-107092300D03*
%TO.N,UART_TX_MCU*%
X115175000Y-123952600D03*
%TO.N,U3_PGTH*%
X115232900Y-10404600D03*
%TO.N,JETSON_FAULT_N*%
X115327000Y-9643500D03*
%TO.N,GND*%
X115830000Y-6755000D03*
%TO.N,MOTOR_CS1*%
X116123900Y-117278100D03*
%TO.N,UART_TX*%
X116317400Y-122086100D03*
%TO.N,BOOT0*%
X116440600Y-114265600D03*
%TO.N,MOTOR_CS3_MCU*%
X116670300Y-109998100D03*
%TO.N,MOTOR_CS2_MCU*%
X118320000Y-118000000D03*
%TO.N,UART_RX_MCU*%
X118449000Y-122274000D03*
%TO.N,MCU_RESET*%
X118646100Y-109621100D03*
%TO.N,MOTOR_CS2*%
X120115700Y-117290700D03*
%TO.N,GND*%
X120357300Y-113456300D03*
%TO.N,UART_RX*%
X120825000Y-122049500D03*
%TO.N,U3_IMON*%
X121000000Y-5000000D03*
%TO.N,MOTOR_CS3_MCU*%
X122466900Y-118708100D03*
%TO.N,I2C_SCL*%
X124108600Y-113283600D03*
%TO.N,MOTOR_CS3*%
X124125400Y-117300400D03*
%TO.N,GND*%
X127200000Y-44445000D03*
X128600000Y-37519200D03*
%TO.N,CAN_TX*%
X128600000Y-38789200D03*
%TO.N,CAN_RX*%
X128600000Y-39940800D03*
%TO.N,I2C_SDA*%
X128824999Y-114932900D03*
%TO.N,UV_SET*%
X13175000Y-27455200D03*
%TO.N,GND*%
X130000000Y-14500000D03*
D19*
%TO.N,3V3_LOGIC*%
X130125000Y-33000000D03*
D18*
%TO.N,GND_CAN_ISO*%
X142160000Y-24000000D03*
%TO.N,5V_CAN_ISO*%
X142571000Y-40705700D03*
%TO.N,GND_CAN_ISO*%
X142997900Y-34677100D03*
X145650000Y-19181000D03*
%TO.N,5V_CAN_ISO*%
X147240000Y-24000000D03*
%TO.N,GND_CAN_ISO*%
X151200000Y-54631300D03*
%TO.N,OV_SET*%
X17175000Y-29380900D03*
D19*
%TO.N,VBAT_RAW*%
X17427700Y-13215500D03*
%TO.N,GND_PWR*%
X18976000Y-29466600D03*
D18*
%TO.N,U1_GATE*%
X21909400Y-25765600D03*
%TO.N,FET_GATE*%
X25600700Y-18319300D03*
X26065300Y-23035400D03*
D19*
%TO.N,FET_COMMON*%
X28083700Y-16174600D03*
%TO.N,VBAT_PROTECTED*%
X28083700Y-34558700D03*
X29525000Y-36000000D03*
%TO.N,FET_COMMON*%
X30106400Y-25587600D03*
D18*
%TO.N,OV_SET*%
X31148300Y-27694900D03*
%TO.N,UV_SET*%
X31168200Y-28493600D03*
D19*
%TO.N,INPUT_SENSE*%
X32000000Y-20400000D03*
X32000000Y-21600000D03*
D18*
%TO.N,VBAT_FUSED*%
X32400000Y-30000000D03*
D19*
X32865800Y-30582800D03*
D18*
%TO.N,INPUT_SENSE*%
X33500000Y-23500000D03*
%TO.N,VBAT_FUSED*%
X35175000Y-34000000D03*
%TO.N,U1_GATE*%
X35972300Y-26072300D03*
%TO.N,U1_SHDN*%
X36825000Y-34000000D03*
%TO.N,INPUT_SENSE*%
X37500000Y-23500000D03*
%TO.N,VBAT_PROTECTED*%
X38500000Y-27700000D03*
D19*
X41100000Y-16880000D03*
X41100000Y-18380000D03*
X41100000Y-19880000D03*
%TO.N,GND_PWR*%
X41100000Y-32119999D03*
X41100000Y-33620000D03*
X41100000Y-35120000D03*
X42000000Y-53550000D03*
%TO.N,VBAT_PROTECTED*%
X42600000Y-16880000D03*
X42600000Y-19880000D03*
%TO.N,GND_PWR*%
X42600000Y-32119999D03*
X42600000Y-35120000D03*
%TO.N,VBAT_PROTECTED*%
X44100000Y-16880000D03*
X44100000Y-18380000D03*
X44100000Y-19880000D03*
%TO.N,GND_PWR*%
X44100000Y-32119999D03*
X44100000Y-33620000D03*
X44100000Y-35120000D03*
D18*
%TO.N,ESTOP_A_MON*%
X48000000Y-84000000D03*
%TO.N,U8_LED_A_K*%
X49602200Y-87193000D03*
%TO.N,ESTOP_CH_B_RETURN*%
X49653500Y-89789200D03*
%TO.N,GND*%
X50046900Y-97538100D03*
%TO.N,ESTOP_A_MON*%
X53330000Y-96500000D03*
X53330000Y-97325500D03*
%TO.N,ESTOP_B_MON*%
X54000000Y-84000000D03*
X54784000Y-89787600D03*
%TO.N,ESTOP_A_MON*%
X56385400Y-87193000D03*
%TO.N,ESTOP_B_MON*%
X57330000Y-96500000D03*
X58059700Y-97525300D03*
%TO.N,U8_LED_A_K*%
X59826000Y-96485400D03*
%TO.N,RELAY_A_NC*%
X60028600Y-92503700D03*
%TO.N,RELAY_B_NC*%
X60088700Y-95085000D03*
%TO.N,ESTOP_SENSE*%
X60680000Y-90208500D03*
D19*
%TO.N,12V_ISO*%
X62921100Y-81078900D03*
%TO.N,JETSON_12V*%
X79766200Y-82000000D03*
%TO.N,VBAT_PROTECTED*%
X8000000Y-80540600D03*
D18*
%TO.N,GND*%
X83459300Y-33929200D03*
%TO.N,U4_VCC*%
X85946200Y-50600400D03*
%TO.N,3V3_LOGIC*%
X86025000Y-58334500D03*
X86680000Y-6755000D03*
X87403800Y-83169100D03*
%TO.N,JETSON_PGOOD*%
X88330000Y-6755000D03*
%TO.N,GND*%
X88500000Y-100100000D03*
X88975000Y-58323000D03*
%TO.N,JETSON_PGOOD*%
X89032200Y-7457200D03*
%TO.N,GND*%
X89662900Y-48775000D03*
D19*
%TO.N,VBAT_FUSED*%
X9551200Y-27928900D03*
%TO.N,12V_ISO*%
X90525000Y-43500000D03*
D18*
%TO.N,3V3_LOGIC*%
X90680000Y-6755000D03*
X91478600Y-7553600D03*
D19*
X91525000Y-56500000D03*
D18*
%TO.N,U4_CTRL*%
X91705300Y-50076700D03*
%TO.N,U4_SS*%
X91732800Y-48349600D03*
D19*
%TO.N,12V_ISO*%
X91900000Y-16880000D03*
X91900000Y-18380000D03*
X91900000Y-19880000D03*
%TO.N,GND*%
X91900000Y-32119999D03*
X91900000Y-33620000D03*
X91900000Y-35120000D03*
D18*
X92200000Y-107200000D03*
%TO.N,JETSON_FAULT_N*%
X92330000Y-6755000D03*
X93043000Y-7468000D03*
D19*
%TO.N,12V_ISO*%
X93400000Y-16880000D03*
X93400000Y-19880000D03*
%TO.N,GND*%
X93400000Y-32119999D03*
X93400000Y-35120000D03*
X93475000Y-43500000D03*
D18*
X93694400Y-54857100D03*
X94500000Y-100075000D03*
X94872600Y-82872600D03*
D19*
%TO.N,12V_ISO*%
X94900000Y-16880000D03*
X94900000Y-18380000D03*
X94900000Y-19880000D03*
%TO.N,GND*%
X94900000Y-32119999D03*
X94900000Y-33620000D03*
X94900000Y-35120000D03*
D18*
X95500000Y-102800000D03*
X95500000Y-106200000D03*
%TO.N,3V3_LOGIC*%
X96200000Y-101725000D03*
%TO.N,GND*%
X96553500Y-45245100D03*
%TO.N,3V3_LOGIC*%
X96958900Y-105517300D03*
%TO.N,MCU_RESET*%
X97068700Y-103505800D03*
%TO.N,MOTOR_CS4_MCU*%
X98317300Y-122702200D03*
%TO.N,SPI_SCLK_MCU*%
X99175000Y-117060900D03*
%TO.N,3V3_LOGIC*%
X99633100Y-99500000D03*
%TO.N,CANL_RAW*%
X139700000Y-49050000D03*
%TO.N,CANH_RAW*%
X140700000Y-46950000D03*
%TO.N,CANL_RAW*%
X141000000Y-39999999D03*
%TO.N,CANH_RAW*%
X141950000Y-39365000D03*
%TD*%
%TO.N,JETSON_12V*%
D20*
X100500000Y-31000000D02*
X100500000Y-37000000D01*
X100500000Y-37000000D02*
X77500000Y-37000000D01*
%TO.N,SPI_MOSI_MCU*%
D21*
X103000000Y-111937600D02*
X103000000Y-116897900D01*
X103000000Y-116897900D02*
X103173400Y-117071300D01*
%TO.N,MOTOR_CS5_MCU*%
X103175000Y-122063400D02*
X103876000Y-121362400D01*
%TO.N,MOTOR_CS4_MCU*%
X103202300Y-122867600D02*
X105811800Y-120258100D01*
%TO.N,MOTOR_CS5_MCU*%
X103876000Y-110242800D02*
X105536400Y-108582400D01*
X103876000Y-121362400D02*
X103876000Y-110242800D01*
%TO.N,MOTOR_CS4_MCU*%
X105811800Y-118500200D02*
X111510200Y-112801800D01*
X105811800Y-120258100D02*
X105811800Y-118500200D01*
%TO.N,JETSON_12V*%
D20*
X108022700Y-20966600D02*
X107524000Y-20966600D01*
%TO.N,GND*%
D21*
X109834600Y-90615400D02*
X111471600Y-92252400D01*
%TO.N,JETSON_12V*%
D20*
X110482900Y-11145700D02*
X114065100Y-14728000D01*
%TO.N,GND*%
D21*
X111471600Y-92252400D02*
X112007600Y-92252400D01*
%TO.N,MOTOR_CS4_MCU*%
X111510200Y-112801800D02*
X111988100Y-112801800D01*
X111988100Y-112801800D02*
X113292800Y-111497100D01*
%TO.N,GND*%
X112007600Y-92252400D02*
X116500000Y-87760000D01*
X112007600Y-95680500D02*
X112007600Y-92252400D01*
%TO.N,UART_TX_MCU*%
X112405000Y-100320900D02*
X113883700Y-101799600D01*
%TO.N,GND*%
X112724300Y-96397200D02*
X112007600Y-95680500D01*
%TO.N,MOTOR_CS4_MCU*%
X113292800Y-109698000D02*
X113206800Y-109612000D01*
X113292800Y-111497100D02*
X113292800Y-109698000D01*
%TO.N,UART_TX_MCU*%
X113883700Y-101799600D02*
X113883700Y-122661300D01*
X113883700Y-122661300D02*
X115175000Y-123952600D01*
%TO.N,JETSON_12V*%
D20*
X114065100Y-14728000D02*
X114065100Y-14924200D01*
X114065100Y-14924200D02*
X108022700Y-20966600D01*
%TO.N,SWDIO*%
D21*
X114927200Y-98574500D02*
X134000000Y-117647300D01*
%TO.N,UART_RX_MCU*%
X114937100Y-100074400D02*
X119222800Y-104360100D01*
%TO.N,JETSON_12V*%
D20*
X116000000Y-31000000D02*
X100500000Y-31000000D01*
X116000000Y-31000000D02*
X119000000Y-31000000D01*
%TO.N,GND*%
D21*
X116500000Y-87760000D02*
X116500000Y-77500000D01*
%TO.N,JETSON_12V*%
D20*
X119000000Y-19859100D02*
X114065100Y-14924200D01*
X119000000Y-20500000D02*
X119000000Y-19859100D01*
%TO.N,UART_RX_MCU*%
D21*
X119222800Y-104360100D02*
X119222800Y-121500200D01*
X119222800Y-121500200D02*
X118449000Y-122274000D01*
%TO.N,SWDIO*%
X134000000Y-117647300D02*
X134000000Y-118040000D01*
%TO.N,CANL_RAW*%
X139700000Y-39999999D02*
X139700000Y-49050000D01*
X141000000Y-39999999D02*
X139700000Y-39999999D01*
%TO.N,CANH_RAW*%
X141950000Y-39365000D02*
X141950000Y-46950000D01*
X141950000Y-46950000D02*
X140700000Y-46950000D01*
%TO.N,GND*%
X21687500Y-106687500D02*
X23000000Y-108000000D01*
X21687500Y-88312500D02*
X21687500Y-106687500D01*
X23000000Y-87000000D02*
X21687500Y-88312500D01*
%TO.N,RESET_CH_B_RETURN*%
X29000000Y-120000000D02*
X17000000Y-108000000D01*
%TO.N,ESTOP_CH_B_RETURN*%
X35000000Y-120000000D02*
X46459100Y-108540900D01*
X46459100Y-108540900D02*
X46459100Y-96750300D01*
X46459100Y-96750300D02*
X49653500Y-93555900D01*
X49653500Y-93555900D02*
X49653500Y-89789200D01*
%TO.N,GND*%
X49975200Y-106975200D02*
X51500000Y-108500000D01*
X49975200Y-97609800D02*
X49975200Y-106975200D01*
X50046900Y-97538100D02*
X49975200Y-97609800D01*
%TO.N,ESTOP_B_MON*%
X58059700Y-93063300D02*
X54784000Y-89787600D01*
X58059700Y-97525300D02*
X58059700Y-93063300D01*
%TO.N,JETSON_12V*%
D20*
X77500000Y-37000000D02*
X77500000Y-82000000D01*
X77500000Y-82000000D02*
X79766200Y-82000000D01*
%TO.N,MOTOR_CS4*%
D21*
X82000000Y-112240000D02*
X83270000Y-113510000D01*
X83270000Y-113510000D02*
X91335000Y-113510000D01*
%TO.N,GND*%
X84540000Y-93205200D02*
X94872600Y-82872600D01*
X84540000Y-97000000D02*
X84540000Y-93205200D01*
X88975000Y-58323000D02*
X94872600Y-64220600D01*
%TO.N,MOTOR_CS4*%
X91335000Y-113510000D02*
X100094800Y-122269800D01*
%TO.N,GND*%
X94872600Y-64220600D02*
X94872600Y-82872600D01*
%TO.N,MOTOR_CS4_MCU*%
X98317300Y-122702200D02*
X98482700Y-122867600D01*
X98482700Y-122867600D02*
X103202300Y-122867600D01*
%TD*%
%TA.AperFunction,Conductor*%
%TO.N,JETSON_12V*%
G36*
X122959191Y-1518907D02*
G01*
X122995155Y-1568407D01*
X123000000Y-1599000D01*
X123000000Y-19801801D01*
X122981094Y-19859989D01*
X122973245Y-19870792D01*
X122973239Y-19870801D01*
X122887453Y-20039167D01*
X122829058Y-20218886D01*
X122799500Y-20405515D01*
X122799500Y-20594484D01*
X122829058Y-20781113D01*
X122887453Y-20960832D01*
X122973242Y-21129203D01*
X122981090Y-21140004D01*
X123000000Y-21198194D01*
X123000000Y-43901000D01*
X122981093Y-43959191D01*
X122931593Y-43995155D01*
X122901000Y-44000000D01*
X94051196Y-44000000D01*
X93993005Y-43981093D01*
X93957041Y-43931593D01*
X93957041Y-43870407D01*
X93965457Y-43851504D01*
X94034577Y-43731784D01*
X94075500Y-43579057D01*
X94075500Y-43420943D01*
X94034577Y-43268216D01*
X93955520Y-43131284D01*
X93843716Y-43019480D01*
X93706784Y-42940423D01*
X93554057Y-42899500D01*
X93395943Y-42899500D01*
X93243216Y-42940423D01*
X93106284Y-43019480D01*
X92994480Y-43131284D01*
X92915423Y-43268216D01*
X92874500Y-43420943D01*
X92874500Y-43579057D01*
X92915423Y-43731784D01*
X92984541Y-43851501D01*
X92997262Y-43911349D01*
X92972375Y-43967244D01*
X92919387Y-43997837D01*
X92898804Y-44000000D01*
X91101196Y-44000000D01*
X91043005Y-43981093D01*
X91007041Y-43931593D01*
X91007041Y-43870407D01*
X91015457Y-43851504D01*
X91084577Y-43731784D01*
X91125500Y-43579057D01*
X91125500Y-43420943D01*
X91084577Y-43268216D01*
X91005520Y-43131284D01*
X90893716Y-43019480D01*
X90756784Y-42940423D01*
X90604057Y-42899500D01*
X90445943Y-42899500D01*
X90293216Y-42940423D01*
X90156284Y-43019480D01*
X90044480Y-43131284D01*
X89965423Y-43268216D01*
X89924500Y-43420943D01*
X89924500Y-43579057D01*
X89965423Y-43731784D01*
X90034541Y-43851501D01*
X90047262Y-43911349D01*
X90022375Y-43967244D01*
X89969387Y-43997837D01*
X89948804Y-44000000D01*
X86099000Y-44000000D01*
X86040809Y-43981093D01*
X86004845Y-43931593D01*
X86000000Y-43901000D01*
X86000000Y-37995726D01*
X103599500Y-37995726D01*
X103599500Y-40004265D01*
X103602353Y-40034694D01*
X103647208Y-40162885D01*
X103727845Y-40272144D01*
X103727847Y-40272146D01*
X103727850Y-40272150D01*
X103727853Y-40272152D01*
X103727855Y-40272154D01*
X103837114Y-40352791D01*
X103837116Y-40352791D01*
X103837118Y-40352793D01*
X103965302Y-40397646D01*
X103995735Y-40400500D01*
X106004264Y-40400499D01*
X106004265Y-40400499D01*
X106010350Y-40399928D01*
X106034698Y-40397646D01*
X106162882Y-40352793D01*
X106272150Y-40272150D01*
X106352793Y-40162882D01*
X106397646Y-40034698D01*
X106400500Y-40004265D01*
X106400499Y-37995736D01*
X106397646Y-37965302D01*
X106352793Y-37837118D01*
X106352791Y-37837116D01*
X106352791Y-37837114D01*
X106272154Y-37727855D01*
X106272152Y-37727853D01*
X106272150Y-37727850D01*
X106272146Y-37727847D01*
X106272144Y-37727845D01*
X106162885Y-37647208D01*
X106148697Y-37642243D01*
X106034698Y-37602354D01*
X106034696Y-37602353D01*
X106034694Y-37602353D01*
X106004272Y-37599500D01*
X103995734Y-37599500D01*
X103965305Y-37602353D01*
X103837114Y-37647208D01*
X103727855Y-37727845D01*
X103727845Y-37727855D01*
X103647208Y-37837114D01*
X103602353Y-37965305D01*
X103599500Y-37995726D01*
X86000000Y-37995726D01*
X86000000Y-32040942D01*
X91299500Y-32040942D01*
X91299500Y-32199056D01*
X91340423Y-32351783D01*
X91419480Y-32488715D01*
X91497771Y-32567006D01*
X91525547Y-32621521D01*
X91515976Y-32681953D01*
X91513511Y-32686493D01*
X91512079Y-32688973D01*
X91512077Y-32688977D01*
X91406704Y-32943368D01*
X91368049Y-33087635D01*
X91335440Y-33209334D01*
X91335439Y-33209338D01*
X91335439Y-33209340D01*
X91327983Y-33265978D01*
X91299500Y-33482326D01*
X91299500Y-33757674D01*
X91335440Y-34030666D01*
X91356757Y-34110222D01*
X91406704Y-34296631D01*
X91512076Y-34551020D01*
X91513503Y-34553491D01*
X91526224Y-34613340D01*
X91501336Y-34669235D01*
X91497770Y-34672993D01*
X91419482Y-34751281D01*
X91419480Y-34751283D01*
X91419480Y-34751284D01*
X91340423Y-34888216D01*
X91299500Y-35040943D01*
X91299500Y-35199057D01*
X91340423Y-35351784D01*
X91419480Y-35488716D01*
X91531284Y-35600520D01*
X91668216Y-35679577D01*
X91820943Y-35720500D01*
X91820945Y-35720500D01*
X91979055Y-35720500D01*
X91979057Y-35720500D01*
X92131784Y-35679577D01*
X92268716Y-35600520D01*
X92347007Y-35522228D01*
X92401521Y-35494452D01*
X92461954Y-35504023D01*
X92466505Y-35506494D01*
X92468979Y-35507923D01*
X92723368Y-35613295D01*
X92989334Y-35684560D01*
X93262326Y-35720500D01*
X93262327Y-35720500D01*
X93537673Y-35720500D01*
X93537674Y-35720500D01*
X93810666Y-35684560D01*
X94076632Y-35613295D01*
X94331021Y-35507923D01*
X94333474Y-35506506D01*
X94393318Y-35493773D01*
X94449218Y-35518648D01*
X94452974Y-35522210D01*
X94531284Y-35600520D01*
X94668216Y-35679577D01*
X94820943Y-35720500D01*
X94820945Y-35720500D01*
X94979055Y-35720500D01*
X94979057Y-35720500D01*
X95131784Y-35679577D01*
X95268716Y-35600520D01*
X95380520Y-35488716D01*
X95459577Y-35351784D01*
X95500500Y-35199057D01*
X95500500Y-35040943D01*
X95459577Y-34888216D01*
X95380520Y-34751284D01*
X95302227Y-34672991D01*
X95274452Y-34618477D01*
X95284023Y-34558045D01*
X95286497Y-34553491D01*
X95287923Y-34551021D01*
X95393295Y-34296632D01*
X95464560Y-34030666D01*
X95478545Y-33924436D01*
X95483109Y-33889774D01*
X103599500Y-33889774D01*
X103599500Y-34110225D01*
X103633984Y-34327948D01*
X103702102Y-34537599D01*
X103702104Y-34537602D01*
X103702105Y-34537606D01*
X103802185Y-34734022D01*
X103931758Y-34912365D01*
X104087635Y-35068242D01*
X104265978Y-35197815D01*
X104462394Y-35297895D01*
X104672049Y-35366015D01*
X104759140Y-35379809D01*
X104889775Y-35400500D01*
X104889778Y-35400500D01*
X105110225Y-35400500D01*
X105219086Y-35383257D01*
X105327951Y-35366015D01*
X105537606Y-35297895D01*
X105734022Y-35197815D01*
X105912365Y-35068242D01*
X106068242Y-34912365D01*
X106197815Y-34734022D01*
X106297895Y-34537606D01*
X106366015Y-34327951D01*
X106400500Y-34110222D01*
X106400500Y-33889778D01*
X106400500Y-33889774D01*
X114599500Y-33889774D01*
X114599500Y-34110225D01*
X114633984Y-34327948D01*
X114702102Y-34537599D01*
X114702104Y-34537602D01*
X114702105Y-34537606D01*
X114802185Y-34734022D01*
X114931758Y-34912365D01*
X115087635Y-35068242D01*
X115265978Y-35197815D01*
X115462394Y-35297895D01*
X115672049Y-35366015D01*
X115759140Y-35379809D01*
X115889775Y-35400500D01*
X115889778Y-35400500D01*
X116110225Y-35400500D01*
X116219086Y-35383257D01*
X116327951Y-35366015D01*
X116537606Y-35297895D01*
X116734022Y-35197815D01*
X116912365Y-35068242D01*
X117068242Y-34912365D01*
X117197815Y-34734022D01*
X117297895Y-34537606D01*
X117366015Y-34327951D01*
X117400500Y-34110222D01*
X117400500Y-33889778D01*
X117400500Y-33889774D01*
X117599500Y-33889774D01*
X117599500Y-34110225D01*
X117633984Y-34327948D01*
X117702102Y-34537599D01*
X117702104Y-34537602D01*
X117702105Y-34537606D01*
X117802185Y-34734022D01*
X117931758Y-34912365D01*
X118087635Y-35068242D01*
X118265978Y-35197815D01*
X118462394Y-35297895D01*
X118672049Y-35366015D01*
X118759140Y-35379809D01*
X118889775Y-35400500D01*
X118889778Y-35400500D01*
X119110225Y-35400500D01*
X119219086Y-35383257D01*
X119327951Y-35366015D01*
X119537606Y-35297895D01*
X119734022Y-35197815D01*
X119912365Y-35068242D01*
X120068242Y-34912365D01*
X120197815Y-34734022D01*
X120297895Y-34537606D01*
X120366015Y-34327951D01*
X120400500Y-34110222D01*
X120400500Y-33889778D01*
X120400500Y-33889774D01*
X120366015Y-33672051D01*
X120366015Y-33672049D01*
X120297895Y-33462394D01*
X120197815Y-33265978D01*
X120068242Y-33087635D01*
X119912365Y-32931758D01*
X119734022Y-32802185D01*
X119734021Y-32802184D01*
X119734019Y-32802183D01*
X119644825Y-32756736D01*
X119537606Y-32702105D01*
X119537602Y-32702104D01*
X119537599Y-32702102D01*
X119327948Y-32633984D01*
X119110225Y-32599500D01*
X119110222Y-32599500D01*
X118889778Y-32599500D01*
X118889775Y-32599500D01*
X118672051Y-32633984D01*
X118462400Y-32702102D01*
X118265980Y-32802183D01*
X118176806Y-32866971D01*
X118087635Y-32931758D01*
X117931758Y-33087635D01*
X117866971Y-33176806D01*
X117802183Y-33265980D01*
X117702102Y-33462400D01*
X117633984Y-33672051D01*
X117599500Y-33889774D01*
X117400500Y-33889774D01*
X117366015Y-33672051D01*
X117366015Y-33672049D01*
X117297895Y-33462394D01*
X117197815Y-33265978D01*
X117068242Y-33087635D01*
X116912365Y-32931758D01*
X116734022Y-32802185D01*
X116734021Y-32802184D01*
X116734019Y-32802183D01*
X116644825Y-32756736D01*
X116537606Y-32702105D01*
X116537602Y-32702104D01*
X116537599Y-32702102D01*
X116327948Y-32633984D01*
X116110225Y-32599500D01*
X116110222Y-32599500D01*
X115889778Y-32599500D01*
X115889775Y-32599500D01*
X115672051Y-32633984D01*
X115462400Y-32702102D01*
X115265980Y-32802183D01*
X115176806Y-32866971D01*
X115087635Y-32931758D01*
X114931758Y-33087635D01*
X114866971Y-33176806D01*
X114802183Y-33265980D01*
X114702102Y-33462400D01*
X114633984Y-33672051D01*
X114599500Y-33889774D01*
X106400500Y-33889774D01*
X106366015Y-33672051D01*
X106366015Y-33672049D01*
X106297895Y-33462394D01*
X106197815Y-33265978D01*
X106068242Y-33087635D01*
X105912365Y-32931758D01*
X105734022Y-32802185D01*
X105734021Y-32802184D01*
X105734019Y-32802183D01*
X105644825Y-32756736D01*
X105537606Y-32702105D01*
X105537602Y-32702104D01*
X105537599Y-32702102D01*
X105327948Y-32633984D01*
X105110225Y-32599500D01*
X105110222Y-32599500D01*
X104889778Y-32599500D01*
X104889775Y-32599500D01*
X104672051Y-32633984D01*
X104462400Y-32702102D01*
X104265980Y-32802183D01*
X104176806Y-32866971D01*
X104087635Y-32931758D01*
X103931758Y-33087635D01*
X103866971Y-33176806D01*
X103802183Y-33265980D01*
X103702102Y-33462400D01*
X103633984Y-33672051D01*
X103599500Y-33889774D01*
X95483109Y-33889774D01*
X95485322Y-33872966D01*
X95490476Y-33833812D01*
X95500500Y-33757674D01*
X95500500Y-33482326D01*
X95464560Y-33209334D01*
X95393295Y-32943368D01*
X95287923Y-32688979D01*
X95286499Y-32686512D01*
X95273775Y-32626664D01*
X95298659Y-32570767D01*
X95302211Y-32567023D01*
X95380520Y-32488715D01*
X95459577Y-32351783D01*
X95500500Y-32199056D01*
X95500500Y-32040942D01*
X95459577Y-31888215D01*
X95380520Y-31751283D01*
X95268716Y-31639479D01*
X95131784Y-31560422D01*
X94979057Y-31519499D01*
X94820943Y-31519499D01*
X94668216Y-31560422D01*
X94553410Y-31626705D01*
X94531281Y-31639481D01*
X94452992Y-31717770D01*
X94398475Y-31745547D01*
X94338043Y-31735975D01*
X94333499Y-31733507D01*
X94331021Y-31732077D01*
X94331019Y-31732076D01*
X94331017Y-31732075D01*
X94076631Y-31626704D01*
X93923074Y-31585559D01*
X93810666Y-31555440D01*
X93810660Y-31555439D01*
X93808576Y-31555025D01*
X93808082Y-31554748D01*
X93807535Y-31554602D01*
X93807572Y-31554462D01*
X93755194Y-31525125D01*
X93729582Y-31469558D01*
X93741522Y-31409549D01*
X93786454Y-31368019D01*
X93797296Y-31363775D01*
X94014379Y-31293241D01*
X94238845Y-31178870D01*
X94442656Y-31030793D01*
X94620793Y-30852656D01*
X94768870Y-30648845D01*
X94883241Y-30424379D01*
X94961090Y-30184785D01*
X95000500Y-29935962D01*
X95000500Y-29684038D01*
X95000500Y-29684034D01*
X94961091Y-29435219D01*
X94961090Y-29435215D01*
X94883241Y-29195621D01*
X94768870Y-28971155D01*
X94620793Y-28767344D01*
X94442656Y-28589207D01*
X94238845Y-28441130D01*
X94238844Y-28441129D01*
X94238842Y-28441128D01*
X94014379Y-28326759D01*
X93774780Y-28248908D01*
X93525965Y-28209500D01*
X93525962Y-28209500D01*
X93274038Y-28209500D01*
X93274035Y-28209500D01*
X93025219Y-28248908D01*
X92785620Y-28326759D01*
X92561157Y-28441128D01*
X92357345Y-28589206D01*
X92179206Y-28767345D01*
X92031128Y-28971157D01*
X91916759Y-29195620D01*
X91838908Y-29435219D01*
X91799500Y-29684034D01*
X91799500Y-29935965D01*
X91838908Y-30184780D01*
X91838910Y-30184785D01*
X91916759Y-30424379D01*
X92031130Y-30648845D01*
X92179207Y-30852656D01*
X92357344Y-31030793D01*
X92561155Y-31178870D01*
X92785621Y-31293241D01*
X93002696Y-31363773D01*
X93052196Y-31399737D01*
X93071103Y-31457928D01*
X93052196Y-31516119D01*
X93002696Y-31552083D01*
X92991426Y-31555024D01*
X92989342Y-31555438D01*
X92989335Y-31555439D01*
X92989334Y-31555440D01*
X92970741Y-31560422D01*
X92723368Y-31626704D01*
X92468979Y-31732076D01*
X92466509Y-31733503D01*
X92406660Y-31746224D01*
X92350765Y-31721336D01*
X92347025Y-31717788D01*
X92268716Y-31639479D01*
X92131784Y-31560422D01*
X91979057Y-31519499D01*
X91820943Y-31519499D01*
X91668216Y-31560422D01*
X91531284Y-31639479D01*
X91419480Y-31751283D01*
X91340423Y-31888215D01*
X91299500Y-32040942D01*
X86000000Y-32040942D01*
X86000000Y-25874034D01*
X91799500Y-25874034D01*
X91799500Y-26125965D01*
X91838908Y-26374780D01*
X91838910Y-26374785D01*
X91916759Y-26614379D01*
X92031130Y-26838845D01*
X92179207Y-27042656D01*
X92357344Y-27220793D01*
X92561155Y-27368870D01*
X92785621Y-27483241D01*
X93025215Y-27561090D01*
X93025216Y-27561090D01*
X93025219Y-27561091D01*
X93274035Y-27600500D01*
X93274038Y-27600500D01*
X93525965Y-27600500D01*
X93774780Y-27561091D01*
X93774781Y-27561090D01*
X93774785Y-27561090D01*
X94014379Y-27483241D01*
X94238845Y-27368870D01*
X94442656Y-27220793D01*
X94620793Y-27042656D01*
X94768870Y-26838845D01*
X94883241Y-26614379D01*
X94961090Y-26374785D01*
X95000500Y-26125962D01*
X95000500Y-25874038D01*
X95000500Y-25874034D01*
X94961091Y-25625219D01*
X94943052Y-25569700D01*
X94883241Y-25385621D01*
X94877902Y-25375143D01*
X101775300Y-25375143D01*
X101775300Y-25533257D01*
X101816223Y-25685984D01*
X101895280Y-25822916D01*
X102007084Y-25934720D01*
X102144016Y-26013777D01*
X102296743Y-26054700D01*
X102296745Y-26054700D01*
X102454855Y-26054700D01*
X102454857Y-26054700D01*
X102607584Y-26013777D01*
X102744516Y-25934720D01*
X102856320Y-25822916D01*
X102935377Y-25685984D01*
X102976300Y-25533257D01*
X102976300Y-25375143D01*
X102935377Y-25222416D01*
X102856320Y-25085484D01*
X102774144Y-25003308D01*
X110508100Y-25003308D01*
X110508100Y-25135092D01*
X110515084Y-25161157D01*
X110542209Y-25262390D01*
X110608096Y-25376509D01*
X110608098Y-25376511D01*
X110608100Y-25376514D01*
X110701286Y-25469700D01*
X110701288Y-25469701D01*
X110701290Y-25469703D01*
X110815410Y-25535590D01*
X110815408Y-25535590D01*
X110815412Y-25535591D01*
X110815414Y-25535592D01*
X110942708Y-25569700D01*
X110942710Y-25569700D01*
X111074490Y-25569700D01*
X111074492Y-25569700D01*
X111201786Y-25535592D01*
X111201788Y-25535590D01*
X111201790Y-25535590D01*
X111315909Y-25469703D01*
X111315909Y-25469702D01*
X111315914Y-25469700D01*
X111409100Y-25376514D01*
X111474992Y-25262386D01*
X111509100Y-25135092D01*
X111509100Y-25003308D01*
X111474992Y-24876014D01*
X111474990Y-24876011D01*
X111474990Y-24876009D01*
X111409103Y-24761890D01*
X111409101Y-24761888D01*
X111409100Y-24761886D01*
X111315914Y-24668700D01*
X111315911Y-24668698D01*
X111315909Y-24668696D01*
X111201789Y-24602809D01*
X111201791Y-24602809D01*
X111152399Y-24589575D01*
X111074492Y-24568700D01*
X110942708Y-24568700D01*
X110864800Y-24589575D01*
X110815409Y-24602809D01*
X110701290Y-24668696D01*
X110608096Y-24761890D01*
X110542209Y-24876009D01*
X110542208Y-24876014D01*
X110508100Y-25003308D01*
X102774144Y-25003308D01*
X102744516Y-24973680D01*
X102607584Y-24894623D01*
X102454857Y-24853700D01*
X102296743Y-24853700D01*
X102144016Y-24894623D01*
X102007084Y-24973680D01*
X101895280Y-25085484D01*
X101816223Y-25222416D01*
X101775300Y-25375143D01*
X94877902Y-25375143D01*
X94768870Y-25161155D01*
X94620793Y-24957344D01*
X94442656Y-24779207D01*
X94238845Y-24631130D01*
X94238844Y-24631129D01*
X94238842Y-24631128D01*
X94014379Y-24516759D01*
X93774780Y-24438908D01*
X93525965Y-24399500D01*
X93525962Y-24399500D01*
X93274038Y-24399500D01*
X93274035Y-24399500D01*
X93025219Y-24438908D01*
X92785620Y-24516759D01*
X92561157Y-24631128D01*
X92357345Y-24779206D01*
X92179206Y-24957345D01*
X92031128Y-25161157D01*
X91916759Y-25385620D01*
X91838908Y-25625219D01*
X91799500Y-25874034D01*
X86000000Y-25874034D01*
X86000000Y-16800943D01*
X91299500Y-16800943D01*
X91299500Y-16959057D01*
X91340423Y-17111784D01*
X91419480Y-17248716D01*
X91497771Y-17327007D01*
X91525547Y-17381522D01*
X91515976Y-17441954D01*
X91513507Y-17446501D01*
X91512077Y-17448977D01*
X91406704Y-17703368D01*
X91362376Y-17868805D01*
X91335440Y-17969334D01*
X91299500Y-18242326D01*
X91299500Y-18517674D01*
X91335440Y-18790666D01*
X91374253Y-18935521D01*
X91406704Y-19056631D01*
X91512076Y-19311020D01*
X91513503Y-19313491D01*
X91526224Y-19373340D01*
X91501336Y-19429235D01*
X91497770Y-19432993D01*
X91419482Y-19511281D01*
X91419480Y-19511283D01*
X91419480Y-19511284D01*
X91340423Y-19648216D01*
X91299500Y-19800943D01*
X91299500Y-19959057D01*
X91340423Y-20111784D01*
X91419480Y-20248716D01*
X91531284Y-20360520D01*
X91668216Y-20439577D01*
X91820943Y-20480500D01*
X91820945Y-20480500D01*
X91979055Y-20480500D01*
X91979057Y-20480500D01*
X92131784Y-20439577D01*
X92268716Y-20360520D01*
X92347007Y-20282228D01*
X92401521Y-20254452D01*
X92461954Y-20264023D01*
X92466505Y-20266494D01*
X92468979Y-20267923D01*
X92723368Y-20373295D01*
X92989334Y-20444560D01*
X92989342Y-20444561D01*
X92991408Y-20444972D01*
X92991897Y-20445245D01*
X92992465Y-20445398D01*
X92992426Y-20445542D01*
X93044795Y-20474863D01*
X93070416Y-20530426D01*
X93058484Y-20590437D01*
X93013558Y-20631974D01*
X93002696Y-20636225D01*
X92785627Y-20706755D01*
X92785624Y-20706757D01*
X92561157Y-20821128D01*
X92357345Y-20969206D01*
X92179206Y-21147345D01*
X92031128Y-21351157D01*
X91916759Y-21575620D01*
X91838908Y-21815219D01*
X91799500Y-22064034D01*
X91799500Y-22315965D01*
X91838908Y-22564780D01*
X91838910Y-22564785D01*
X91916759Y-22804379D01*
X92031130Y-23028845D01*
X92179207Y-23232656D01*
X92357344Y-23410793D01*
X92561155Y-23558870D01*
X92785621Y-23673241D01*
X93025215Y-23751090D01*
X93025216Y-23751090D01*
X93025219Y-23751091D01*
X93274035Y-23790500D01*
X93274038Y-23790500D01*
X93525965Y-23790500D01*
X93774780Y-23751091D01*
X93774781Y-23751090D01*
X93774785Y-23751090D01*
X94014379Y-23673241D01*
X94238845Y-23558870D01*
X94442656Y-23410793D01*
X94620793Y-23232656D01*
X94768870Y-23028845D01*
X94883241Y-22804379D01*
X94961090Y-22564785D01*
X95000500Y-22315962D01*
X95000500Y-22064038D01*
X95000500Y-22064034D01*
X94961091Y-21815219D01*
X94938727Y-21746390D01*
X94883241Y-21575621D01*
X94768870Y-21351155D01*
X94669300Y-21214108D01*
X111394500Y-21214108D01*
X111394500Y-21345892D01*
X111395911Y-21351157D01*
X111428609Y-21473190D01*
X111494496Y-21587309D01*
X111494498Y-21587311D01*
X111494500Y-21587314D01*
X111587686Y-21680500D01*
X111587688Y-21680501D01*
X111587690Y-21680503D01*
X111701810Y-21746390D01*
X111701808Y-21746390D01*
X111701812Y-21746391D01*
X111701814Y-21746392D01*
X111829108Y-21780500D01*
X111829110Y-21780500D01*
X111960890Y-21780500D01*
X111960892Y-21780500D01*
X112088186Y-21746392D01*
X112088188Y-21746390D01*
X112088190Y-21746390D01*
X112202309Y-21680503D01*
X112202309Y-21680502D01*
X112202314Y-21680500D01*
X112295500Y-21587314D01*
X112361392Y-21473186D01*
X112395500Y-21345892D01*
X112395500Y-21214108D01*
X112361392Y-21086814D01*
X112361390Y-21086811D01*
X112361390Y-21086809D01*
X112295503Y-20972690D01*
X112295501Y-20972688D01*
X112295500Y-20972686D01*
X112202314Y-20879500D01*
X112202311Y-20879498D01*
X112202309Y-20879496D01*
X112088189Y-20813609D01*
X112088191Y-20813609D01*
X112038799Y-20800375D01*
X111960892Y-20779500D01*
X111829108Y-20779500D01*
X111751200Y-20800375D01*
X111701809Y-20813609D01*
X111587690Y-20879496D01*
X111494496Y-20972690D01*
X111428609Y-21086809D01*
X111428608Y-21086814D01*
X111394500Y-21214108D01*
X94669300Y-21214108D01*
X94620793Y-21147344D01*
X94442656Y-20969207D01*
X94238845Y-20821130D01*
X94238844Y-20821129D01*
X94238842Y-20821128D01*
X94014375Y-20706757D01*
X94014372Y-20706755D01*
X93797303Y-20636225D01*
X93747803Y-20600261D01*
X93728896Y-20542071D01*
X93747804Y-20483880D01*
X93797304Y-20447916D01*
X93808594Y-20444971D01*
X93810648Y-20444562D01*
X93810666Y-20444560D01*
X94076632Y-20373295D01*
X94331021Y-20267923D01*
X94333474Y-20266506D01*
X94393318Y-20253773D01*
X94449218Y-20278648D01*
X94452974Y-20282210D01*
X94531284Y-20360520D01*
X94668216Y-20439577D01*
X94820943Y-20480500D01*
X94820945Y-20480500D01*
X94979055Y-20480500D01*
X94979057Y-20480500D01*
X95131784Y-20439577D01*
X95268716Y-20360520D01*
X95380520Y-20248716D01*
X95459577Y-20111784D01*
X95500500Y-19959057D01*
X95500500Y-19800943D01*
X95459577Y-19648216D01*
X95380520Y-19511284D01*
X95302227Y-19432991D01*
X95274452Y-19378477D01*
X95284023Y-19318045D01*
X95286497Y-19313491D01*
X95287923Y-19311021D01*
X95393295Y-19056632D01*
X95464560Y-18790666D01*
X95500500Y-18517674D01*
X95500500Y-18242326D01*
X95464560Y-17969334D01*
X95393295Y-17703368D01*
X95287923Y-17448979D01*
X95286498Y-17446512D01*
X95273775Y-17386665D01*
X95298659Y-17330768D01*
X95302211Y-17327024D01*
X95380520Y-17248716D01*
X95411470Y-17195108D01*
X107413500Y-17195108D01*
X107413500Y-17326892D01*
X107428138Y-17381522D01*
X107447609Y-17454190D01*
X107513496Y-17568309D01*
X107513498Y-17568311D01*
X107513500Y-17568314D01*
X107606686Y-17661500D01*
X107606688Y-17661501D01*
X107606690Y-17661503D01*
X107720810Y-17727390D01*
X107720808Y-17727390D01*
X107720812Y-17727391D01*
X107720814Y-17727392D01*
X107848108Y-17761500D01*
X107848110Y-17761500D01*
X107979890Y-17761500D01*
X107979892Y-17761500D01*
X108107186Y-17727392D01*
X108107188Y-17727390D01*
X108107190Y-17727390D01*
X108221309Y-17661503D01*
X108221309Y-17661502D01*
X108221314Y-17661500D01*
X108314500Y-17568314D01*
X108380392Y-17454186D01*
X108414500Y-17326892D01*
X108414500Y-17195108D01*
X108380392Y-17067814D01*
X108380390Y-17067811D01*
X108380390Y-17067809D01*
X108314503Y-16953690D01*
X108314501Y-16953688D01*
X108314500Y-16953686D01*
X108221314Y-16860500D01*
X108221311Y-16860498D01*
X108221309Y-16860496D01*
X108107189Y-16794609D01*
X108107191Y-16794609D01*
X108057799Y-16781375D01*
X107979892Y-16760500D01*
X107848108Y-16760500D01*
X107770200Y-16781375D01*
X107720809Y-16794609D01*
X107606690Y-16860496D01*
X107513496Y-16953690D01*
X107447609Y-17067809D01*
X107447608Y-17067814D01*
X107413500Y-17195108D01*
X95411470Y-17195108D01*
X95459577Y-17111784D01*
X95500500Y-16959057D01*
X95500500Y-16800943D01*
X95459577Y-16648216D01*
X95439423Y-16613308D01*
X113610400Y-16613308D01*
X113610400Y-16745092D01*
X113640479Y-16857351D01*
X113644509Y-16872390D01*
X113710396Y-16986509D01*
X113710398Y-16986511D01*
X113710400Y-16986514D01*
X113803586Y-17079700D01*
X113803588Y-17079701D01*
X113803590Y-17079703D01*
X113917710Y-17145590D01*
X113917708Y-17145590D01*
X113917712Y-17145591D01*
X113917714Y-17145592D01*
X114045008Y-17179700D01*
X114045010Y-17179700D01*
X114176790Y-17179700D01*
X114176792Y-17179700D01*
X114304086Y-17145592D01*
X114304088Y-17145590D01*
X114304090Y-17145590D01*
X114418209Y-17079703D01*
X114418209Y-17079702D01*
X114418214Y-17079700D01*
X114511400Y-16986514D01*
X114511403Y-16986509D01*
X114577290Y-16872390D01*
X114577290Y-16872388D01*
X114577292Y-16872386D01*
X114611400Y-16745092D01*
X114611400Y-16613308D01*
X114577292Y-16486014D01*
X114577290Y-16486011D01*
X114577290Y-16486009D01*
X114511403Y-16371890D01*
X114511401Y-16371888D01*
X114511400Y-16371886D01*
X114418214Y-16278700D01*
X114418211Y-16278698D01*
X114418209Y-16278696D01*
X114304089Y-16212809D01*
X114304091Y-16212809D01*
X114254699Y-16199575D01*
X114176792Y-16178700D01*
X114045008Y-16178700D01*
X113967100Y-16199575D01*
X113917709Y-16212809D01*
X113803590Y-16278696D01*
X113710396Y-16371890D01*
X113644509Y-16486009D01*
X113625439Y-16557178D01*
X113610400Y-16613308D01*
X95439423Y-16613308D01*
X95380520Y-16511284D01*
X95268716Y-16399480D01*
X95131784Y-16320423D01*
X94979057Y-16279500D01*
X94820943Y-16279500D01*
X94668216Y-16320423D01*
X94553412Y-16386705D01*
X94531281Y-16399482D01*
X94452993Y-16477770D01*
X94398476Y-16505547D01*
X94338044Y-16495975D01*
X94333491Y-16493503D01*
X94331020Y-16492076D01*
X94076631Y-16386704D01*
X93955521Y-16354253D01*
X93810666Y-16315440D01*
X93810659Y-16315439D01*
X93537675Y-16279500D01*
X93537674Y-16279500D01*
X93262326Y-16279500D01*
X93262324Y-16279500D01*
X92989340Y-16315439D01*
X92989338Y-16315439D01*
X92989334Y-16315440D01*
X92888805Y-16342376D01*
X92723368Y-16386704D01*
X92468977Y-16492077D01*
X92466501Y-16493507D01*
X92406651Y-16506223D01*
X92350758Y-16481331D01*
X92347024Y-16477788D01*
X92268716Y-16399480D01*
X92131784Y-16320423D01*
X91979057Y-16279500D01*
X91820943Y-16279500D01*
X91668216Y-16320423D01*
X91531284Y-16399480D01*
X91419480Y-16511284D01*
X91340423Y-16648216D01*
X91299500Y-16800943D01*
X86000000Y-16800943D01*
X86000000Y-14784808D01*
X111909200Y-14784808D01*
X111909200Y-14916592D01*
X111939279Y-15028851D01*
X111943309Y-15043890D01*
X112009196Y-15158009D01*
X112009198Y-15158011D01*
X112009200Y-15158014D01*
X112102386Y-15251200D01*
X112102388Y-15251201D01*
X112102390Y-15251203D01*
X112216510Y-15317090D01*
X112216508Y-15317090D01*
X112216512Y-15317091D01*
X112216514Y-15317092D01*
X112343808Y-15351200D01*
X112343810Y-15351200D01*
X112475590Y-15351200D01*
X112475592Y-15351200D01*
X112602886Y-15317092D01*
X112602888Y-15317090D01*
X112602890Y-15317090D01*
X112717009Y-15251203D01*
X112717009Y-15251202D01*
X112717014Y-15251200D01*
X112810200Y-15158014D01*
X112876092Y-15043886D01*
X112910200Y-14916592D01*
X112910200Y-14784808D01*
X112876092Y-14657514D01*
X112876090Y-14657511D01*
X112876090Y-14657509D01*
X112810203Y-14543390D01*
X112810201Y-14543388D01*
X112810200Y-14543386D01*
X112717014Y-14450200D01*
X112717011Y-14450198D01*
X112717009Y-14450196D01*
X112602889Y-14384309D01*
X112602891Y-14384309D01*
X112553499Y-14371075D01*
X112475592Y-14350200D01*
X112343808Y-14350200D01*
X112265900Y-14371075D01*
X112216509Y-14384309D01*
X112102390Y-14450196D01*
X112009196Y-14543390D01*
X111943309Y-14657509D01*
X111943308Y-14657514D01*
X111909200Y-14784808D01*
X86000000Y-14784808D01*
X86000000Y-13612508D01*
X109174500Y-13612508D01*
X109174500Y-13744292D01*
X109204579Y-13856551D01*
X109208609Y-13871590D01*
X109274496Y-13985709D01*
X109274498Y-13985711D01*
X109274500Y-13985714D01*
X109367686Y-14078900D01*
X109367688Y-14078901D01*
X109367690Y-14078903D01*
X109481810Y-14144790D01*
X109481808Y-14144790D01*
X109481812Y-14144791D01*
X109481814Y-14144792D01*
X109609108Y-14178900D01*
X109609110Y-14178900D01*
X109740890Y-14178900D01*
X109740892Y-14178900D01*
X109868186Y-14144792D01*
X109868188Y-14144790D01*
X109868190Y-14144790D01*
X109982309Y-14078903D01*
X109982309Y-14078902D01*
X109982314Y-14078900D01*
X110075500Y-13985714D01*
X110141392Y-13871586D01*
X110175500Y-13744292D01*
X110175500Y-13612508D01*
X110141392Y-13485214D01*
X110141390Y-13485211D01*
X110141390Y-13485209D01*
X110075503Y-13371090D01*
X110075501Y-13371088D01*
X110075500Y-13371086D01*
X109982314Y-13277900D01*
X109982311Y-13277898D01*
X109982309Y-13277896D01*
X109868189Y-13212009D01*
X109868191Y-13212009D01*
X109818799Y-13198775D01*
X109740892Y-13177900D01*
X109609108Y-13177900D01*
X109531200Y-13198775D01*
X109481809Y-13212009D01*
X109367690Y-13277896D01*
X109274496Y-13371090D01*
X109208609Y-13485209D01*
X109208608Y-13485214D01*
X109174500Y-13612508D01*
X86000000Y-13612508D01*
X86000000Y-11038208D01*
X114330600Y-11038208D01*
X114330600Y-11169992D01*
X114360679Y-11282251D01*
X114364709Y-11297290D01*
X114430596Y-11411409D01*
X114430598Y-11411411D01*
X114430600Y-11411414D01*
X114523786Y-11504600D01*
X114523788Y-11504601D01*
X114523790Y-11504603D01*
X114637910Y-11570490D01*
X114637908Y-11570490D01*
X114637912Y-11570491D01*
X114637914Y-11570492D01*
X114765208Y-11604600D01*
X114765210Y-11604600D01*
X114896990Y-11604600D01*
X114896992Y-11604600D01*
X115024286Y-11570492D01*
X115024288Y-11570490D01*
X115024290Y-11570490D01*
X115138409Y-11504603D01*
X115138409Y-11504602D01*
X115138414Y-11504600D01*
X115231600Y-11411414D01*
X115297492Y-11297286D01*
X115331600Y-11169992D01*
X115331600Y-11038208D01*
X115321748Y-11001439D01*
X115324951Y-10940339D01*
X115363456Y-10892789D01*
X115391750Y-10880192D01*
X115426086Y-10870992D01*
X115540214Y-10805100D01*
X115633400Y-10711914D01*
X115638200Y-10703600D01*
X115699290Y-10597790D01*
X115699290Y-10597788D01*
X115699292Y-10597786D01*
X115733400Y-10470492D01*
X115733400Y-10338708D01*
X115699292Y-10211414D01*
X115652212Y-10129870D01*
X115639491Y-10070024D01*
X115664377Y-10014128D01*
X115667927Y-10010386D01*
X115727500Y-9950814D01*
X115793392Y-9836686D01*
X115827500Y-9709392D01*
X115827500Y-9577608D01*
X115793392Y-9450314D01*
X115793390Y-9450311D01*
X115793390Y-9450309D01*
X115727503Y-9336190D01*
X115727501Y-9336188D01*
X115727500Y-9336186D01*
X115634314Y-9243000D01*
X115634311Y-9242998D01*
X115634309Y-9242996D01*
X115520189Y-9177109D01*
X115520191Y-9177109D01*
X115470799Y-9163875D01*
X115392892Y-9143000D01*
X115261108Y-9143000D01*
X115183200Y-9163875D01*
X115133809Y-9177109D01*
X115019690Y-9242996D01*
X114926496Y-9336190D01*
X114860609Y-9450309D01*
X114860608Y-9450314D01*
X114826500Y-9577608D01*
X114826500Y-9709392D01*
X114849238Y-9794254D01*
X114860608Y-9836687D01*
X114907686Y-9918228D01*
X114920407Y-9978077D01*
X114895520Y-10033972D01*
X114891954Y-10037730D01*
X114832401Y-10097284D01*
X114832396Y-10097290D01*
X114766509Y-10211409D01*
X114732400Y-10338709D01*
X114732400Y-10470494D01*
X114742251Y-10507260D01*
X114739048Y-10568361D01*
X114700542Y-10615910D01*
X114672249Y-10628507D01*
X114637913Y-10637708D01*
X114637910Y-10637709D01*
X114523790Y-10703596D01*
X114430596Y-10796790D01*
X114364709Y-10910909D01*
X114345639Y-10982078D01*
X114330600Y-11038208D01*
X86000000Y-11038208D01*
X86000000Y-6902968D01*
X86018907Y-6844777D01*
X86068407Y-6808813D01*
X86129593Y-6808813D01*
X86179093Y-6844777D01*
X86194625Y-6877342D01*
X86210094Y-6935073D01*
X86213609Y-6948190D01*
X86279496Y-7062309D01*
X86279498Y-7062311D01*
X86279500Y-7062314D01*
X86372686Y-7155500D01*
X86372688Y-7155501D01*
X86372690Y-7155503D01*
X86486810Y-7221390D01*
X86486808Y-7221390D01*
X86486812Y-7221391D01*
X86486814Y-7221392D01*
X86614108Y-7255500D01*
X86614110Y-7255500D01*
X86745890Y-7255500D01*
X86745892Y-7255500D01*
X86873186Y-7221392D01*
X86873188Y-7221390D01*
X86873190Y-7221390D01*
X86987309Y-7155503D01*
X86987309Y-7155502D01*
X86987314Y-7155500D01*
X87080500Y-7062314D01*
X87129882Y-6976782D01*
X87146390Y-6948190D01*
X87146391Y-6948187D01*
X87146392Y-6948186D01*
X87180500Y-6820892D01*
X87180500Y-6689108D01*
X87829500Y-6689108D01*
X87829500Y-6820892D01*
X87851492Y-6902968D01*
X87863609Y-6948190D01*
X87929496Y-7062309D01*
X87929498Y-7062311D01*
X87929500Y-7062314D01*
X88022686Y-7155500D01*
X88022688Y-7155501D01*
X88022690Y-7155503D01*
X88136810Y-7221390D01*
X88136808Y-7221390D01*
X88136812Y-7221391D01*
X88136814Y-7221392D01*
X88264108Y-7255500D01*
X88264110Y-7255500D01*
X88395890Y-7255500D01*
X88395892Y-7255500D01*
X88415779Y-7250171D01*
X88476878Y-7253372D01*
X88524429Y-7291875D01*
X88540266Y-7350975D01*
X88537029Y-7371418D01*
X88531700Y-7391305D01*
X88531700Y-7391308D01*
X88531700Y-7523092D01*
X88534594Y-7533892D01*
X88565809Y-7650390D01*
X88631696Y-7764509D01*
X88631698Y-7764511D01*
X88631700Y-7764514D01*
X88724886Y-7857700D01*
X88724888Y-7857701D01*
X88724890Y-7857703D01*
X88839010Y-7923590D01*
X88839008Y-7923590D01*
X88839012Y-7923591D01*
X88839014Y-7923592D01*
X88966308Y-7957700D01*
X88966310Y-7957700D01*
X89098090Y-7957700D01*
X89098092Y-7957700D01*
X89225386Y-7923592D01*
X89225388Y-7923590D01*
X89225390Y-7923590D01*
X89339509Y-7857703D01*
X89339509Y-7857702D01*
X89339514Y-7857700D01*
X89432700Y-7764514D01*
X89474170Y-7692686D01*
X89498590Y-7650390D01*
X89498590Y-7650388D01*
X89498592Y-7650386D01*
X89532700Y-7523092D01*
X89532700Y-7391308D01*
X89498592Y-7264014D01*
X89498590Y-7264011D01*
X89498590Y-7264009D01*
X89432703Y-7149890D01*
X89432701Y-7149888D01*
X89432700Y-7149886D01*
X89339514Y-7056700D01*
X89339511Y-7056698D01*
X89339509Y-7056696D01*
X89225389Y-6990809D01*
X89225391Y-6990809D01*
X89161086Y-6973579D01*
X89098092Y-6956700D01*
X88966308Y-6956700D01*
X88966305Y-6956700D01*
X88946418Y-6962029D01*
X88885317Y-6958826D01*
X88837768Y-6920320D01*
X88821908Y-6861719D01*
X88822411Y-6851077D01*
X88830500Y-6820892D01*
X88830500Y-6689108D01*
X90179500Y-6689108D01*
X90179500Y-6820892D01*
X90201492Y-6902968D01*
X90213609Y-6948190D01*
X90279496Y-7062309D01*
X90279498Y-7062311D01*
X90279500Y-7062314D01*
X90372686Y-7155500D01*
X90372688Y-7155501D01*
X90372690Y-7155503D01*
X90486810Y-7221390D01*
X90486808Y-7221390D01*
X90486812Y-7221391D01*
X90486814Y-7221392D01*
X90614108Y-7255500D01*
X90614110Y-7255500D01*
X90745890Y-7255500D01*
X90745892Y-7255500D01*
X90873186Y-7221392D01*
X90882139Y-7216222D01*
X90941986Y-7203500D01*
X90997882Y-7228384D01*
X91028477Y-7281371D01*
X91022083Y-7342222D01*
X91017380Y-7351454D01*
X91012209Y-7360410D01*
X91005001Y-7387308D01*
X90978100Y-7487708D01*
X90978100Y-7619492D01*
X90986378Y-7650386D01*
X91012209Y-7746790D01*
X91078096Y-7860909D01*
X91078098Y-7860911D01*
X91078100Y-7860914D01*
X91171286Y-7954100D01*
X91171288Y-7954101D01*
X91171290Y-7954103D01*
X91285410Y-8019990D01*
X91285408Y-8019990D01*
X91285412Y-8019991D01*
X91285414Y-8019992D01*
X91412708Y-8054100D01*
X91412710Y-8054100D01*
X91544490Y-8054100D01*
X91544492Y-8054100D01*
X91671786Y-8019992D01*
X91671788Y-8019990D01*
X91671790Y-8019990D01*
X91785909Y-7954103D01*
X91785909Y-7954102D01*
X91785914Y-7954100D01*
X91879100Y-7860914D01*
X91910338Y-7806809D01*
X91944990Y-7746790D01*
X91944990Y-7746788D01*
X91944992Y-7746786D01*
X91979100Y-7619492D01*
X91979100Y-7487708D01*
X91944992Y-7360414D01*
X91913420Y-7305731D01*
X91900699Y-7245883D01*
X91925585Y-7189988D01*
X91978573Y-7159395D01*
X92039423Y-7165790D01*
X92048657Y-7170495D01*
X92136810Y-7221390D01*
X92136808Y-7221390D01*
X92136812Y-7221391D01*
X92136814Y-7221392D01*
X92264108Y-7255500D01*
X92264110Y-7255500D01*
X92395891Y-7255500D01*
X92395892Y-7255500D01*
X92430532Y-7246218D01*
X92491632Y-7249419D01*
X92539182Y-7287923D01*
X92555019Y-7347024D01*
X92551782Y-7367466D01*
X92542500Y-7402108D01*
X92542500Y-7533892D01*
X92565436Y-7619490D01*
X92576609Y-7661190D01*
X92642496Y-7775309D01*
X92642498Y-7775311D01*
X92642500Y-7775314D01*
X92735686Y-7868500D01*
X92735688Y-7868501D01*
X92735690Y-7868503D01*
X92849810Y-7934390D01*
X92849808Y-7934390D01*
X92849812Y-7934391D01*
X92849814Y-7934392D01*
X92977108Y-7968500D01*
X92977110Y-7968500D01*
X93108890Y-7968500D01*
X93108892Y-7968500D01*
X93236186Y-7934392D01*
X93236188Y-7934390D01*
X93236190Y-7934390D01*
X93236678Y-7934108D01*
X101499500Y-7934108D01*
X101499500Y-8065892D01*
X101529579Y-8178151D01*
X101533609Y-8193190D01*
X101599496Y-8307309D01*
X101599498Y-8307311D01*
X101599500Y-8307314D01*
X101692686Y-8400500D01*
X101692688Y-8400501D01*
X101692690Y-8400503D01*
X101806810Y-8466390D01*
X101806808Y-8466390D01*
X101806812Y-8466391D01*
X101806814Y-8466392D01*
X101934108Y-8500500D01*
X101934110Y-8500500D01*
X102065890Y-8500500D01*
X102065892Y-8500500D01*
X102193186Y-8466392D01*
X102193188Y-8466390D01*
X102193190Y-8466390D01*
X102307309Y-8400503D01*
X102307309Y-8400502D01*
X102307314Y-8400500D01*
X102400500Y-8307314D01*
X102466392Y-8193186D01*
X102500500Y-8065892D01*
X102500500Y-7934108D01*
X102466392Y-7806814D01*
X102466390Y-7806811D01*
X102466390Y-7806809D01*
X102400503Y-7692690D01*
X102400501Y-7692688D01*
X102400500Y-7692686D01*
X102307314Y-7599500D01*
X102307311Y-7599498D01*
X102307309Y-7599496D01*
X102193189Y-7533609D01*
X102193191Y-7533609D01*
X102143799Y-7520375D01*
X102065892Y-7499500D01*
X101934108Y-7499500D01*
X101856200Y-7520375D01*
X101806809Y-7533609D01*
X101692690Y-7599496D01*
X101599496Y-7692690D01*
X101533609Y-7806809D01*
X101533608Y-7806814D01*
X101499500Y-7934108D01*
X93236678Y-7934108D01*
X93350309Y-7868503D01*
X93350309Y-7868502D01*
X93350314Y-7868500D01*
X93443500Y-7775314D01*
X93443503Y-7775309D01*
X93509390Y-7661190D01*
X93509390Y-7661188D01*
X93509392Y-7661186D01*
X93543500Y-7533892D01*
X93543500Y-7402108D01*
X93509392Y-7274814D01*
X93509390Y-7274811D01*
X93509390Y-7274809D01*
X93443503Y-7160690D01*
X93443501Y-7160688D01*
X93443500Y-7160686D01*
X93350314Y-7067500D01*
X93350311Y-7067498D01*
X93350309Y-7067496D01*
X93236189Y-7001609D01*
X93236191Y-7001609D01*
X93186799Y-6988375D01*
X93108892Y-6967500D01*
X92977108Y-6967500D01*
X92957589Y-6972729D01*
X92942466Y-6976782D01*
X92881364Y-6973579D01*
X92833815Y-6935073D01*
X92817980Y-6875973D01*
X92818045Y-6874857D01*
X92818670Y-6865039D01*
X92830500Y-6820892D01*
X92830500Y-6689108D01*
X113679500Y-6689108D01*
X113679500Y-6820892D01*
X113701492Y-6902968D01*
X113713609Y-6948190D01*
X113779496Y-7062309D01*
X113779498Y-7062311D01*
X113779500Y-7062314D01*
X113872686Y-7155500D01*
X113872688Y-7155501D01*
X113872690Y-7155503D01*
X113986810Y-7221390D01*
X113986808Y-7221390D01*
X113986812Y-7221391D01*
X113986814Y-7221392D01*
X114114108Y-7255500D01*
X114114110Y-7255500D01*
X114245890Y-7255500D01*
X114245892Y-7255500D01*
X114373186Y-7221392D01*
X114373188Y-7221390D01*
X114373190Y-7221390D01*
X114487309Y-7155503D01*
X114487309Y-7155502D01*
X114487314Y-7155500D01*
X114580500Y-7062314D01*
X114629882Y-6976782D01*
X114646390Y-6948190D01*
X114646391Y-6948187D01*
X114646392Y-6948186D01*
X114680500Y-6820892D01*
X114680500Y-6689108D01*
X115329500Y-6689108D01*
X115329500Y-6820892D01*
X115351492Y-6902968D01*
X115363609Y-6948190D01*
X115429496Y-7062309D01*
X115429498Y-7062311D01*
X115429500Y-7062314D01*
X115522686Y-7155500D01*
X115522688Y-7155501D01*
X115522690Y-7155503D01*
X115636810Y-7221390D01*
X115636808Y-7221390D01*
X115636812Y-7221391D01*
X115636814Y-7221392D01*
X115764108Y-7255500D01*
X115764110Y-7255500D01*
X115895890Y-7255500D01*
X115895892Y-7255500D01*
X116023186Y-7221392D01*
X116023188Y-7221390D01*
X116023190Y-7221390D01*
X116137309Y-7155503D01*
X116137309Y-7155502D01*
X116137314Y-7155500D01*
X116230500Y-7062314D01*
X116279882Y-6976782D01*
X116296390Y-6948190D01*
X116296391Y-6948187D01*
X116296392Y-6948186D01*
X116330500Y-6820892D01*
X116330500Y-6689108D01*
X116296392Y-6561814D01*
X116296390Y-6561811D01*
X116296390Y-6561809D01*
X116230503Y-6447690D01*
X116230501Y-6447688D01*
X116230500Y-6447686D01*
X116137314Y-6354500D01*
X116137311Y-6354498D01*
X116137309Y-6354496D01*
X116023189Y-6288609D01*
X116023191Y-6288609D01*
X115973799Y-6275375D01*
X115895892Y-6254500D01*
X115764108Y-6254500D01*
X115686200Y-6275375D01*
X115636809Y-6288609D01*
X115522690Y-6354496D01*
X115429496Y-6447690D01*
X115363609Y-6561809D01*
X115363608Y-6561814D01*
X115329500Y-6689108D01*
X114680500Y-6689108D01*
X114646392Y-6561814D01*
X114646390Y-6561811D01*
X114646390Y-6561809D01*
X114580503Y-6447690D01*
X114580501Y-6447688D01*
X114580500Y-6447686D01*
X114487314Y-6354500D01*
X114487311Y-6354498D01*
X114487309Y-6354496D01*
X114373189Y-6288609D01*
X114373191Y-6288609D01*
X114323799Y-6275375D01*
X114245892Y-6254500D01*
X114114108Y-6254500D01*
X114036200Y-6275375D01*
X113986809Y-6288609D01*
X113872690Y-6354496D01*
X113779496Y-6447690D01*
X113713609Y-6561809D01*
X113713608Y-6561814D01*
X113679500Y-6689108D01*
X92830500Y-6689108D01*
X92796392Y-6561814D01*
X92796390Y-6561811D01*
X92796390Y-6561809D01*
X92730503Y-6447690D01*
X92730501Y-6447688D01*
X92730500Y-6447686D01*
X92637314Y-6354500D01*
X92637311Y-6354498D01*
X92637309Y-6354496D01*
X92523189Y-6288609D01*
X92523191Y-6288609D01*
X92473799Y-6275375D01*
X92395892Y-6254500D01*
X92264108Y-6254500D01*
X92186200Y-6275375D01*
X92136809Y-6288609D01*
X92022690Y-6354496D01*
X91929496Y-6447690D01*
X91863609Y-6561809D01*
X91863608Y-6561814D01*
X91829500Y-6689108D01*
X91829500Y-6820892D01*
X91851492Y-6902968D01*
X91863609Y-6948190D01*
X91895178Y-7002868D01*
X91907900Y-7062716D01*
X91883014Y-7118612D01*
X91830025Y-7149205D01*
X91769175Y-7142809D01*
X91759942Y-7138105D01*
X91671787Y-7087208D01*
X91629354Y-7075838D01*
X91544492Y-7053100D01*
X91412708Y-7053100D01*
X91311535Y-7080209D01*
X91285410Y-7087209D01*
X91276454Y-7092380D01*
X91216605Y-7105098D01*
X91160711Y-7080209D01*
X91130120Y-7027220D01*
X91136519Y-6966370D01*
X91141218Y-6957146D01*
X91146392Y-6948186D01*
X91180500Y-6820892D01*
X91180500Y-6689108D01*
X91146392Y-6561814D01*
X91146390Y-6561811D01*
X91146390Y-6561809D01*
X91080503Y-6447690D01*
X91080501Y-6447688D01*
X91080500Y-6447686D01*
X90987314Y-6354500D01*
X90987311Y-6354498D01*
X90987309Y-6354496D01*
X90873189Y-6288609D01*
X90873191Y-6288609D01*
X90823799Y-6275375D01*
X90745892Y-6254500D01*
X90614108Y-6254500D01*
X90536200Y-6275375D01*
X90486809Y-6288609D01*
X90372690Y-6354496D01*
X90279496Y-6447690D01*
X90213609Y-6561809D01*
X90213608Y-6561814D01*
X90179500Y-6689108D01*
X88830500Y-6689108D01*
X88796392Y-6561814D01*
X88796390Y-6561811D01*
X88796390Y-6561809D01*
X88730503Y-6447690D01*
X88730501Y-6447688D01*
X88730500Y-6447686D01*
X88637314Y-6354500D01*
X88637311Y-6354498D01*
X88637309Y-6354496D01*
X88523189Y-6288609D01*
X88523191Y-6288609D01*
X88473799Y-6275375D01*
X88395892Y-6254500D01*
X88264108Y-6254500D01*
X88186200Y-6275375D01*
X88136809Y-6288609D01*
X88022690Y-6354496D01*
X87929496Y-6447690D01*
X87863609Y-6561809D01*
X87863608Y-6561814D01*
X87829500Y-6689108D01*
X87180500Y-6689108D01*
X87146392Y-6561814D01*
X87146390Y-6561811D01*
X87146390Y-6561809D01*
X87080503Y-6447690D01*
X87080501Y-6447688D01*
X87080500Y-6447686D01*
X86987314Y-6354500D01*
X86987311Y-6354498D01*
X86987309Y-6354496D01*
X86873189Y-6288609D01*
X86873191Y-6288609D01*
X86823799Y-6275375D01*
X86745892Y-6254500D01*
X86614108Y-6254500D01*
X86536200Y-6275375D01*
X86486809Y-6288609D01*
X86372690Y-6354496D01*
X86279496Y-6447690D01*
X86213609Y-6561809D01*
X86194627Y-6632654D01*
X86161303Y-6683968D01*
X86104181Y-6705895D01*
X86045081Y-6690059D01*
X86006576Y-6642509D01*
X86000000Y-6607031D01*
X86000000Y-4934108D01*
X107499500Y-4934108D01*
X107499500Y-5065892D01*
X107529579Y-5178151D01*
X107533609Y-5193190D01*
X107599496Y-5307309D01*
X107599498Y-5307311D01*
X107599500Y-5307314D01*
X107692686Y-5400500D01*
X107692688Y-5400501D01*
X107692690Y-5400503D01*
X107806810Y-5466390D01*
X107806808Y-5466390D01*
X107806812Y-5466391D01*
X107806814Y-5466392D01*
X107934108Y-5500500D01*
X107934110Y-5500500D01*
X108065890Y-5500500D01*
X108065892Y-5500500D01*
X108193186Y-5466392D01*
X108193188Y-5466390D01*
X108193190Y-5466390D01*
X108307309Y-5400503D01*
X108307309Y-5400502D01*
X108307314Y-5400500D01*
X108400500Y-5307314D01*
X108466392Y-5193186D01*
X108500500Y-5065892D01*
X108500500Y-4934108D01*
X120499500Y-4934108D01*
X120499500Y-5065892D01*
X120529579Y-5178151D01*
X120533609Y-5193190D01*
X120599496Y-5307309D01*
X120599498Y-5307311D01*
X120599500Y-5307314D01*
X120692686Y-5400500D01*
X120692688Y-5400501D01*
X120692690Y-5400503D01*
X120806810Y-5466390D01*
X120806808Y-5466390D01*
X120806812Y-5466391D01*
X120806814Y-5466392D01*
X120934108Y-5500500D01*
X120934110Y-5500500D01*
X121065890Y-5500500D01*
X121065892Y-5500500D01*
X121193186Y-5466392D01*
X121193188Y-5466390D01*
X121193190Y-5466390D01*
X121307309Y-5400503D01*
X121307309Y-5400502D01*
X121307314Y-5400500D01*
X121400500Y-5307314D01*
X121466392Y-5193186D01*
X121500500Y-5065892D01*
X121500500Y-4934108D01*
X121466392Y-4806814D01*
X121466390Y-4806811D01*
X121466390Y-4806809D01*
X121400503Y-4692690D01*
X121400501Y-4692688D01*
X121400500Y-4692686D01*
X121307314Y-4599500D01*
X121307311Y-4599498D01*
X121307309Y-4599496D01*
X121193189Y-4533609D01*
X121193191Y-4533609D01*
X121143799Y-4520375D01*
X121065892Y-4499500D01*
X120934108Y-4499500D01*
X120856200Y-4520375D01*
X120806809Y-4533609D01*
X120692690Y-4599496D01*
X120599496Y-4692690D01*
X120533609Y-4806809D01*
X120533608Y-4806814D01*
X120499500Y-4934108D01*
X108500500Y-4934108D01*
X108466392Y-4806814D01*
X108466390Y-4806811D01*
X108466390Y-4806809D01*
X108400503Y-4692690D01*
X108400501Y-4692688D01*
X108400500Y-4692686D01*
X108307314Y-4599500D01*
X108307311Y-4599498D01*
X108307309Y-4599496D01*
X108193189Y-4533609D01*
X108193191Y-4533609D01*
X108143799Y-4520375D01*
X108065892Y-4499500D01*
X107934108Y-4499500D01*
X107856200Y-4520375D01*
X107806809Y-4533609D01*
X107692690Y-4599496D01*
X107599496Y-4692690D01*
X107533609Y-4806809D01*
X107533608Y-4806814D01*
X107499500Y-4934108D01*
X86000000Y-4934108D01*
X86000000Y-1599000D01*
X86018907Y-1540809D01*
X86068407Y-1504845D01*
X86099000Y-1500000D01*
X122901000Y-1500000D01*
X122959191Y-1518907D01*
G37*
%TD.AperFunction*%
%TD*%
M02*
