%TF.GenerationSoftware,KiCad,Pcbnew,10.0.5*%
%TF.CreationDate,2026-08-25T17:45:02+08:00*%
%TF.ProjectId,controller,636f6e74-726f-46c6-9c65-722e6b696361,EVT1*%
%TF.SameCoordinates,Original*%
%TF.FileFunction,Copper,L6,Inr*%
%TF.FilePolarity,Positive*%
%FSLAX46Y46*%
G04 Gerber Fmt 4.6, Leading zero omitted, Abs format (unit mm)*
G04 Created by KiCad (PCBNEW 10.0.5) date 2026-08-25 17:45:02*
%MOMM*%
%LPD*%
G01*
G04 APERTURE LIST*
G04 Aperture macros list*
%AMRoundRect*
0 Rectangle with rounded corners*
0 $1 Rounding radius*
0 $2 $3 $4 $5 $6 $7 $8 $9 X,Y pos of 4 corners*
0 Add a 4 corners polygon primitive as box body*
4,1,4,$2,$3,$4,$5,$6,$7,$8,$9,$2,$3,0*
0 Add four circle primitives for the rounded corners*
1,1,$1+$1,$2,$3*
1,1,$1+$1,$4,$5*
1,1,$1+$1,$6,$7*
1,1,$1+$1,$8,$9*
0 Add four rect primitives between the rounded corners*
20,1,$1+$1,$2,$3,$4,$5,0*
20,1,$1+$1,$4,$5,$6,$7,0*
20,1,$1+$1,$6,$7,$8,$9,0*
20,1,$1+$1,$8,$9,$2,$3,0*%
G04 Aperture macros list end*
%TA.AperFunction,ComponentPad*%
%ADD10RoundRect,0.250001X0.949999X-0.949999X0.949999X0.949999X-0.949999X0.949999X-0.949999X-0.949999X0*%
%TD*%
%TA.AperFunction,ComponentPad*%
%ADD11C,2.400000*%
%TD*%
%TA.AperFunction,ComponentPad*%
%ADD12RoundRect,0.250000X-0.750000X-0.750000X0.750000X-0.750000X0.750000X0.750000X-0.750000X0.750000X0*%
%TD*%
%TA.AperFunction,ComponentPad*%
%ADD13C,2.000000*%
%TD*%
%TA.AperFunction,ComponentPad*%
%ADD14R,1.700000X1.700000*%
%TD*%
%TA.AperFunction,ComponentPad*%
%ADD15C,1.700000*%
%TD*%
%TA.AperFunction,ComponentPad*%
%ADD16C,2.800000*%
%TD*%
%TA.AperFunction,ComponentPad*%
%ADD17C,3.800000*%
%TD*%
%TA.AperFunction,ViaPad*%
%ADD18C,0.600000*%
%TD*%
%TA.AperFunction,ViaPad*%
%ADD19C,0.800000*%
%TD*%
%TA.AperFunction,Conductor*%
%ADD20C,0.250000*%
%TD*%
%TA.AperFunction,Conductor*%
%ADD21C,0.800000*%
%TD*%
%TA.AperFunction,Conductor*%
%ADD22C,0.500000*%
%TD*%
G04 APERTURE END LIST*
D10*
%TO.N,12V_ISO*%
%TO.C,C3*%
X105000000Y-39000000D03*
D11*
%TO.N,GND*%
X105000000Y-34000000D03*
%TD*%
D12*
%TO.N,JETSON_12V*%
%TO.C,C5*%
X119000000Y-20500000D03*
D13*
%TO.N,GND*%
X124000000Y-20500000D03*
%TD*%
D11*
%TO.N,VBAT_RAW*%
%TO.C,J1*%
X9500000Y-13000000D03*
X12500000Y-13000000D03*
%TO.N,GND_PWR*%
X9500000Y-16000000D03*
X12500000Y-16000000D03*
%TD*%
%TO.N,ESTOP_12V*%
%TO.C,J10*%
X69500000Y-89500000D03*
%TO.N,ESTOP_CH_A_RETURN*%
X72500000Y-89500000D03*
%TO.N,ESTOP_12V*%
X69500000Y-92500000D03*
%TO.N,ESTOP_CH_B_RETURN*%
X72500000Y-92500000D03*
%TD*%
%TO.N,MOTOR_ENABLE_SAFE*%
%TO.C,J11*%
X51500000Y-105500000D03*
%TO.N,ESTOP_SENSE*%
X54500000Y-105500000D03*
%TO.N,GND*%
X51500000Y-108500000D03*
%TO.N,3V3_LOGIC*%
X54500000Y-108500000D03*
%TD*%
%TO.N,ESTOP_CH_A_RETURN*%
%TO.C,J12*%
X69500000Y-105500000D03*
%TO.N,RESET_CH_A_RETURN*%
X72500000Y-105500000D03*
%TO.N,ESTOP_CH_B_RETURN*%
X69500000Y-108500000D03*
%TO.N,RESET_CH_B_RETURN*%
X72500000Y-108500000D03*
%TD*%
D14*
%TO.N,3V3_LOGIC*%
%TO.C,J13*%
X134000000Y-115500000D03*
D15*
%TO.N,SWDIO*%
X134000000Y-118040000D03*
%TO.N,SWCLK*%
X134000000Y-120580000D03*
%TO.N,GND*%
X134000000Y-123120000D03*
%TD*%
D11*
%TO.N,12V_ISO*%
%TO.C,J2*%
X116500000Y-74500000D03*
X119500000Y-74500000D03*
%TO.N,GND*%
X116500000Y-77500000D03*
X119500000Y-77500000D03*
%TD*%
%TO.N,JETSON_12V*%
%TO.C,J3*%
X116000000Y-31000000D03*
X119000000Y-31000000D03*
%TO.N,GND*%
X116000000Y-34000000D03*
X119000000Y-34000000D03*
%TD*%
D14*
%TO.N,3V3_LOGIC*%
%TO.C,J4*%
X82000000Y-97000000D03*
D15*
%TO.N,GND*%
X84540000Y-97000000D03*
%TO.N,3V3_LOGIC*%
X82000000Y-99540000D03*
%TO.N,GND*%
X84540000Y-99540000D03*
%TO.N,SPI_SCLK*%
X82000000Y-102080000D03*
%TO.N,SPI_MOSI*%
X84540000Y-102080000D03*
%TO.N,SPI_MISO*%
X82000000Y-104620000D03*
%TO.N,JETSON_ENABLE_REQ*%
X84540000Y-104620000D03*
%TO.N,MOTOR_CS0*%
X82000000Y-107160000D03*
%TO.N,MOTOR_CS1*%
X84540000Y-107160000D03*
%TO.N,MOTOR_CS2*%
X82000000Y-109700000D03*
%TO.N,MOTOR_CS3*%
X84540000Y-109700000D03*
%TO.N,MOTOR_CS4*%
X82000000Y-112240000D03*
%TO.N,MOTOR_CS5*%
X84540000Y-112240000D03*
%TO.N,I2C_SDA*%
X82000000Y-114780000D03*
%TO.N,I2C_SCL*%
X84540000Y-114780000D03*
%TO.N,ESTOP_SENSE*%
X82000000Y-117320000D03*
%TO.N,UART_TX*%
X84540000Y-117320000D03*
%TO.N,UART_RX*%
X82000000Y-119860000D03*
%TO.N,MCU_RESET*%
X84540000Y-119860000D03*
%TD*%
D11*
%TO.N,CANH*%
%TO.C,J5*%
X148000000Y-62500000D03*
%TO.N,CANL*%
X151000000Y-62500000D03*
%TO.N,GND_CAN_ISO*%
X148000000Y-65500000D03*
%TO.N,N/C*%
X151000000Y-65500000D03*
%TD*%
%TO.N,CANH*%
%TO.C,J6*%
X148000000Y-74500000D03*
%TO.N,CANL*%
X151000000Y-74500000D03*
%TO.N,GND_CAN_ISO*%
X148000000Y-77500000D03*
%TO.N,N/C*%
X151000000Y-77500000D03*
%TD*%
D14*
%TO.N,CAN_TERM*%
%TO.C,JP1*%
X148000000Y-84000000D03*
D15*
%TO.N,CANL*%
X148000000Y-86540000D03*
%TD*%
D13*
%TO.N,RESET_CH_A_RETURN*%
%TO.C,K1*%
X17000000Y-87000000D03*
%TO.N,GND*%
X23000000Y-87000000D03*
%TO.N,MOTOR_ENABLE_REQ*%
X29000000Y-87000000D03*
%TO.N,SAFE_STAGE_A*%
X35000000Y-87000000D03*
%TO.N,3V3_LOGIC*%
X41000000Y-87000000D03*
%TO.N,SENSE_STAGE_A*%
X41000000Y-99000000D03*
%TO.N,ESTOP_CH_A_RETURN*%
X35000000Y-99000000D03*
%TO.N,RESET_CH_A_RETURN*%
X29000000Y-99000000D03*
%TO.N,3V3_LOGIC*%
X23000000Y-99000000D03*
%TO.N,RELAY_A_NC*%
X17000000Y-99000000D03*
%TD*%
%TO.N,RESET_CH_B_RETURN*%
%TO.C,K2*%
X17000000Y-108000000D03*
%TO.N,GND*%
X23000000Y-108000000D03*
%TO.N,SAFE_STAGE_A*%
X29000000Y-108000000D03*
%TO.N,MOTOR_ENABLE_SAFE*%
X35000000Y-108000000D03*
%TO.N,SENSE_STAGE_A*%
X41000000Y-108000000D03*
%TO.N,ESTOP_SENSE*%
X41000000Y-120000000D03*
%TO.N,ESTOP_CH_B_RETURN*%
X35000000Y-120000000D03*
%TO.N,RESET_CH_B_RETURN*%
X29000000Y-120000000D03*
%TO.N,3V3_LOGIC*%
X23000000Y-120000000D03*
%TO.N,RELAY_B_NC*%
X17000000Y-120000000D03*
%TD*%
D16*
%TO.N,VBAT_PROTECTED*%
%TO.C,U2*%
X42600000Y-18380000D03*
%TO.N,GND_PWR*%
X42600000Y-26000000D03*
X42600000Y-33620000D03*
D17*
%TO.N,GND*%
X93400000Y-33620000D03*
D16*
X93400000Y-29810000D03*
%TO.N,N/C*%
X93400000Y-26000000D03*
%TO.N,12V_ISO*%
X93400000Y-22190000D03*
D17*
X93400000Y-18380000D03*
%TD*%
D18*
%TO.N,MOTOR_CS4*%
X100094800Y-122269800D03*
%TO.N,SPI_SCLK*%
X100207600Y-117172200D03*
%TO.N,12V_ISO*%
X100700000Y-46450000D03*
%TO.N,GND*%
X101000000Y-101500000D03*
%TO.N,3V3_PGOOD*%
X101000000Y-59500000D03*
%TO.N,U4_CTRL*%
X101447400Y-48137600D03*
%TO.N,SPI_SCLK_MCU*%
X102000000Y-111931200D03*
%TO.N,JETSON_PGOOD*%
X102000000Y-8000000D03*
D19*
%TO.N,12V_ISO*%
X102375800Y-25454200D03*
D18*
%TO.N,SPI_MISO_MCU*%
X102500000Y-109420400D03*
%TO.N,SPI_MOSI_MCU*%
X103000000Y-111937600D03*
%TO.N,BOOT0*%
X103000000Y-96579200D03*
%TO.N,SPI_MOSI_MCU*%
X103173400Y-117071300D03*
%TO.N,MOTOR_CS5_MCU*%
X103175000Y-122063400D03*
%TO.N,I2C_SDA_MCU*%
X103627900Y-97021500D03*
%TO.N,I2C_SCL_MCU*%
X103660700Y-94058700D03*
%TO.N,MCU_RESET*%
X104000000Y-83203500D03*
%TO.N,MOTOR_CS0_MCU*%
X104500000Y-111929000D03*
%TO.N,JETSON_ENABLE_REQ*%
X104500000Y-96584900D03*
%TO.N,U4_SS*%
X104510700Y-47474300D03*
%TO.N,SPI_MOSI*%
X104825000Y-117033100D03*
%TO.N,MOTOR_CS5*%
X104825000Y-122060700D03*
%TO.N,MOTOR_CS1_MCU*%
X105321000Y-111932800D03*
%TO.N,MOTOR_CS5_MCU*%
X105536400Y-108582400D03*
%TO.N,I2C_SCL_MCU*%
X106447400Y-122272400D03*
%TO.N,SPI_MISO_MCU*%
X106466900Y-118708100D03*
D19*
%TO.N,JETSON_12V*%
X107524000Y-20966600D03*
D18*
%TO.N,U3_ILIM*%
X107914000Y-17261000D03*
%TO.N,GND*%
X107992400Y-46727000D03*
%TO.N,JETSON_FAULT_N*%
X108000000Y-5000000D03*
%TO.N,SPI_MISO*%
X108114900Y-117289900D03*
%TO.N,U4_VCC*%
X108511200Y-47473800D03*
%TO.N,CAN_TX*%
X109000000Y-94056800D03*
%TO.N,3V3_LOGIC*%
X109556700Y-113108500D03*
%TO.N,I2C_SCL*%
X109558800Y-122266200D03*
%TO.N,U3_UVLO*%
X109675000Y-13678400D03*
%TO.N,GND*%
X109834600Y-90615400D03*
%TO.N,CAN_RX*%
X109898600Y-94059300D03*
%TO.N,I2C_SDA_MCU*%
X110316500Y-123000000D03*
%TO.N,MOTOR_CS0_MCU*%
X110464900Y-117289900D03*
%TO.N,MOTOR_CS2_MCU*%
X110533000Y-111953000D03*
%TO.N,ESTOP_B_MON*%
X110928000Y-105425500D03*
%TO.N,U3_UVLO*%
X111008600Y-25069200D03*
%TO.N,RELAY_B_NC*%
X111022600Y-107379400D03*
%TO.N,ESTOP_A_MON*%
X111208900Y-106179600D03*
%TO.N,GND*%
X111640200Y-112225100D03*
%TO.N,U3_PGTH*%
X111895000Y-21280000D03*
%TO.N,MOTOR_CS0*%
X112116100Y-117291100D03*
%TO.N,RELAY_A_NC*%
X112403400Y-107233900D03*
%TO.N,UART_TX_MCU*%
X112405000Y-100320900D03*
%TO.N,U3_ILIM*%
X112409700Y-14850700D03*
%TO.N,SWCLK*%
X112613900Y-95394000D03*
%TO.N,3V3_LOGIC*%
X112716100Y-111251400D03*
%TO.N,GND*%
X112724300Y-96397200D03*
%TO.N,I2C_SDA*%
X112825000Y-122033000D03*
%TO.N,MOTOR_CS4_MCU*%
X113206800Y-109612000D03*
D19*
%TO.N,JETSON_12V*%
X113500000Y-8100000D03*
X113500000Y-8800000D03*
D18*
%TO.N,3V3_LOGIC*%
X114110900Y-16679200D03*
%TO.N,U3_IMON*%
X114180000Y-6755000D03*
%TO.N,MOTOR_CS1_MCU*%
X114464900Y-117289900D03*
D19*
%TO.N,JETSON_12V*%
X114500000Y-8100000D03*
X114500000Y-8800000D03*
D18*
%TO.N,JETSON_PGOOD*%
X114831100Y-11104100D03*
%TO.N,SWDIO*%
X114927200Y-98574500D03*
%TO.N,MOTOR_ENABLE_REQ*%
X114931600Y-108000000D03*
%TO.N,UART_RX_MCU*%
X114937100Y-100074400D03*
%TO.N,ESTOP_SENSE*%
X114940000Y-107092300D03*
%TO.N,UART_TX_MCU*%
X115175000Y-123952600D03*
%TO.N,U3_PGTH*%
X115232900Y-10404600D03*
%TO.N,JETSON_FAULT_N*%
X115327000Y-9643500D03*
%TO.N,GND*%
X115830000Y-6755000D03*
%TO.N,MOTOR_CS1*%
X116123900Y-117278100D03*
%TO.N,UART_TX*%
X116317400Y-122086100D03*
%TO.N,BOOT0*%
X116440600Y-114265600D03*
%TO.N,MOTOR_CS3_MCU*%
X116670300Y-109998100D03*
%TO.N,MOTOR_CS2_MCU*%
X118320000Y-118000000D03*
%TO.N,UART_RX_MCU*%
X118449000Y-122274000D03*
%TO.N,MCU_RESET*%
X118646100Y-109621100D03*
%TO.N,MOTOR_CS2*%
X120115700Y-117290700D03*
%TO.N,GND*%
X120357300Y-113456300D03*
%TO.N,UART_RX*%
X120825000Y-122049500D03*
%TO.N,U3_IMON*%
X121000000Y-5000000D03*
%TO.N,MOTOR_CS3_MCU*%
X122466900Y-118708100D03*
%TO.N,I2C_SCL*%
X124108600Y-113283600D03*
%TO.N,MOTOR_CS3*%
X124125400Y-117300400D03*
%TO.N,GND*%
X127200000Y-44445000D03*
X128600000Y-37519200D03*
%TO.N,CAN_TX*%
X128600000Y-38789200D03*
%TO.N,CAN_RX*%
X128600000Y-39940800D03*
%TO.N,I2C_SDA*%
X128824999Y-114932900D03*
%TO.N,UV_SET*%
X13175000Y-27455200D03*
%TO.N,GND*%
X130000000Y-14500000D03*
D19*
%TO.N,3V3_LOGIC*%
X130125000Y-33000000D03*
D18*
%TO.N,GND_CAN_ISO*%
X142160000Y-24000000D03*
%TO.N,5V_CAN_ISO*%
X142571000Y-40705700D03*
%TO.N,GND_CAN_ISO*%
X142997900Y-34677100D03*
X145650000Y-19181000D03*
%TO.N,5V_CAN_ISO*%
X147240000Y-24000000D03*
%TO.N,GND_CAN_ISO*%
X151200000Y-54631300D03*
%TO.N,OV_SET*%
X17175000Y-29380900D03*
D19*
%TO.N,VBAT_RAW*%
X17427700Y-13215500D03*
%TO.N,GND_PWR*%
X18976000Y-29466600D03*
D18*
%TO.N,U1_GATE*%
X21909400Y-25765600D03*
%TO.N,FET_GATE*%
X25600700Y-18319300D03*
X26065300Y-23035400D03*
D19*
%TO.N,FET_COMMON*%
X28083700Y-16174600D03*
%TO.N,VBAT_PROTECTED*%
X28083700Y-34558700D03*
X29525000Y-36000000D03*
%TO.N,FET_COMMON*%
X30106400Y-25587600D03*
D18*
%TO.N,OV_SET*%
X31148300Y-27694900D03*
%TO.N,UV_SET*%
X31168200Y-28493600D03*
D19*
%TO.N,INPUT_SENSE*%
X32000000Y-20400000D03*
X32000000Y-21600000D03*
D18*
%TO.N,VBAT_FUSED*%
X32400000Y-30000000D03*
D19*
X32865800Y-30582800D03*
D18*
%TO.N,INPUT_SENSE*%
X33500000Y-23500000D03*
%TO.N,VBAT_FUSED*%
X35175000Y-34000000D03*
%TO.N,U1_GATE*%
X35972300Y-26072300D03*
%TO.N,U1_SHDN*%
X36825000Y-34000000D03*
%TO.N,INPUT_SENSE*%
X37500000Y-23500000D03*
%TO.N,VBAT_PROTECTED*%
X38500000Y-27700000D03*
D19*
X41100000Y-16880000D03*
X41100000Y-18380000D03*
X41100000Y-19880000D03*
%TO.N,GND_PWR*%
X41100000Y-32119999D03*
X41100000Y-33620000D03*
X41100000Y-35120000D03*
X42000000Y-53550000D03*
%TO.N,VBAT_PROTECTED*%
X42600000Y-16880000D03*
X42600000Y-19880000D03*
%TO.N,GND_PWR*%
X42600000Y-32119999D03*
X42600000Y-35120000D03*
%TO.N,VBAT_PROTECTED*%
X44100000Y-16880000D03*
X44100000Y-18380000D03*
X44100000Y-19880000D03*
%TO.N,GND_PWR*%
X44100000Y-32119999D03*
X44100000Y-33620000D03*
X44100000Y-35120000D03*
D18*
%TO.N,ESTOP_A_MON*%
X48000000Y-84000000D03*
%TO.N,U8_LED_A_K*%
X49602200Y-87193000D03*
%TO.N,ESTOP_CH_B_RETURN*%
X49653500Y-89789200D03*
%TO.N,GND*%
X50046900Y-97538100D03*
%TO.N,ESTOP_A_MON*%
X53330000Y-96500000D03*
X53330000Y-97325500D03*
%TO.N,ESTOP_B_MON*%
X54000000Y-84000000D03*
X54784000Y-89787600D03*
%TO.N,ESTOP_A_MON*%
X56385400Y-87193000D03*
%TO.N,ESTOP_B_MON*%
X57330000Y-96500000D03*
X58059700Y-97525300D03*
%TO.N,U8_LED_A_K*%
X59826000Y-96485400D03*
%TO.N,RELAY_A_NC*%
X60028600Y-92503700D03*
%TO.N,RELAY_B_NC*%
X60088700Y-95085000D03*
%TO.N,ESTOP_SENSE*%
X60680000Y-90208500D03*
D19*
%TO.N,12V_ISO*%
X62921100Y-81078900D03*
%TO.N,JETSON_12V*%
X79766200Y-82000000D03*
%TO.N,VBAT_PROTECTED*%
X8000000Y-80540600D03*
D18*
%TO.N,GND*%
X83459300Y-33929200D03*
%TO.N,U4_VCC*%
X85946200Y-50600400D03*
%TO.N,3V3_LOGIC*%
X86025000Y-58334500D03*
X86680000Y-6755000D03*
X87403800Y-83169100D03*
%TO.N,JETSON_PGOOD*%
X88330000Y-6755000D03*
%TO.N,GND*%
X88500000Y-100100000D03*
X88975000Y-58323000D03*
%TO.N,JETSON_PGOOD*%
X89032200Y-7457200D03*
%TO.N,GND*%
X89662900Y-48775000D03*
D19*
%TO.N,VBAT_FUSED*%
X9551200Y-27928900D03*
%TO.N,12V_ISO*%
X90525000Y-43500000D03*
D18*
%TO.N,3V3_LOGIC*%
X90680000Y-6755000D03*
X91478600Y-7553600D03*
D19*
X91525000Y-56500000D03*
D18*
%TO.N,U4_CTRL*%
X91705300Y-50076700D03*
%TO.N,U4_SS*%
X91732800Y-48349600D03*
D19*
%TO.N,12V_ISO*%
X91900000Y-16880000D03*
X91900000Y-18380000D03*
X91900000Y-19880000D03*
%TO.N,GND*%
X91900000Y-32119999D03*
X91900000Y-33620000D03*
X91900000Y-35120000D03*
D18*
X92200000Y-107200000D03*
%TO.N,JETSON_FAULT_N*%
X92330000Y-6755000D03*
X93043000Y-7468000D03*
D19*
%TO.N,12V_ISO*%
X93400000Y-16880000D03*
X93400000Y-19880000D03*
%TO.N,GND*%
X93400000Y-32119999D03*
X93400000Y-35120000D03*
X93475000Y-43500000D03*
D18*
X93694400Y-54857100D03*
X94500000Y-100075000D03*
X94872600Y-82872600D03*
D19*
%TO.N,12V_ISO*%
X94900000Y-16880000D03*
X94900000Y-18380000D03*
X94900000Y-19880000D03*
%TO.N,GND*%
X94900000Y-32119999D03*
X94900000Y-33620000D03*
X94900000Y-35120000D03*
D18*
X95500000Y-102800000D03*
X95500000Y-106200000D03*
%TO.N,3V3_LOGIC*%
X96200000Y-101725000D03*
%TO.N,GND*%
X96553500Y-45245100D03*
%TO.N,3V3_LOGIC*%
X96958900Y-105517300D03*
%TO.N,MCU_RESET*%
X97068700Y-103505800D03*
%TO.N,MOTOR_CS4_MCU*%
X98317300Y-122702200D03*
%TO.N,SPI_SCLK_MCU*%
X99175000Y-117060900D03*
%TO.N,3V3_LOGIC*%
X99633100Y-99500000D03*
%TD*%
%TO.N,SPI_MISO_MCU*%
D20*
X102500000Y-109420400D02*
X103754400Y-110674800D01*
%TO.N,3V3_LOGIC*%
D21*
X102885700Y-104381200D02*
X99633100Y-104381200D01*
%TO.N,SPI_MISO_MCU*%
D20*
X103754400Y-110674800D02*
X103754400Y-113604400D01*
X103754400Y-113604400D02*
X106466900Y-116316900D01*
%TO.N,MOTOR_CS0_MCU*%
X104500000Y-111929000D02*
X109860900Y-117289900D01*
%TO.N,SPI_MISO_MCU*%
X106466900Y-116316900D02*
X106466900Y-118708100D01*
%TO.N,3V3_LOGIC*%
D21*
X109556700Y-111052200D02*
X102885700Y-104381200D01*
X109556700Y-111052200D02*
X112516900Y-111052200D01*
X109556700Y-113108500D02*
X109556700Y-111052200D01*
%TO.N,MOTOR_CS0_MCU*%
D20*
X109860900Y-117289900D02*
X110464900Y-117289900D01*
%TO.N,3V3_LOGIC*%
D21*
X112516900Y-111052200D02*
X112716100Y-111251400D01*
X113251600Y-15819900D02*
X114110900Y-16679200D01*
%TO.N,GND*%
D20*
X113531000Y-100633400D02*
X113531000Y-97203900D01*
X113531000Y-97203900D02*
X112724300Y-96397200D01*
%TO.N,3V3_LOGIC*%
D21*
X114110900Y-16679200D02*
X120000000Y-14000000D01*
X120000000Y-14000000D02*
X124500000Y-14000000D01*
%TO.N,GND*%
D20*
X120357300Y-107459700D02*
X113531000Y-100633400D01*
X120357300Y-113456300D02*
X120357300Y-107459700D01*
%TO.N,3V3_LOGIC*%
D21*
X122000000Y-45000000D02*
X124500000Y-42000000D01*
%TO.N,5V_CAN_ISO*%
D22*
X147240000Y-24000000D02*
X147240000Y-36036700D01*
X147240000Y-36036700D02*
X142571000Y-40705700D01*
%TO.N,3V3_LOGIC*%
D21*
X21406300Y-100593700D02*
X21406300Y-118406300D01*
X21406300Y-118406300D02*
X23000000Y-120000000D01*
X23000000Y-99000000D02*
X21406300Y-100593700D01*
X29000000Y-93000000D02*
X23000000Y-99000000D01*
X35000000Y-93000000D02*
X29000000Y-93000000D01*
X41000000Y-87000000D02*
X35000000Y-93000000D01*
X41000000Y-87000000D02*
X56269700Y-102269700D01*
%TO.N,U8_LED_A_K*%
D20*
X49602200Y-87193000D02*
X58894600Y-96485400D01*
%TO.N,3V3_LOGIC*%
D21*
X56269700Y-102269700D02*
X56269700Y-106730300D01*
X56269700Y-106730300D02*
X54500000Y-108500000D01*
%TO.N,U8_LED_A_K*%
D20*
X58894600Y-96485400D02*
X59826000Y-96485400D01*
%TO.N,3V3_LOGIC*%
D21*
X58999400Y-99540000D02*
X56269700Y-102269700D01*
%TO.N,SPI_SCLK*%
D20*
X82000000Y-102080000D02*
X83270000Y-103350000D01*
%TO.N,3V3_LOGIC*%
D21*
X82000000Y-97000000D02*
X83411400Y-95588600D01*
X82000000Y-99540000D02*
X58999400Y-99540000D01*
X82000000Y-99540000D02*
X82000000Y-97000000D01*
%TO.N,SPI_SCLK*%
D20*
X83270000Y-103350000D02*
X86385400Y-103350000D01*
%TO.N,3V3_LOGIC*%
D21*
X83411400Y-95588600D02*
X87030200Y-95588600D01*
%TO.N,SPI_MOSI*%
D20*
X84540000Y-102080000D02*
X89871900Y-102080000D01*
%TO.N,SPI_SCLK*%
X86385400Y-103350000D02*
X100207600Y-117172200D01*
%TO.N,3V3_LOGIC*%
D21*
X87030200Y-95588600D02*
X87403800Y-95215000D01*
X87030200Y-95588600D02*
X96958900Y-105517300D01*
X87403800Y-59713300D02*
X86025000Y-58334500D01*
X87403800Y-83169100D02*
X87403800Y-59713300D01*
X87403800Y-95215000D02*
X87403800Y-83169100D01*
%TO.N,SPI_MOSI*%
D20*
X89871900Y-102080000D02*
X104825000Y-117033100D01*
%TO.N,3V3_LOGIC*%
D21*
X91478600Y-7553600D02*
X99744900Y-15819900D01*
X98095000Y-104381200D02*
X96958900Y-105517300D01*
X99633100Y-104381200D02*
X98095000Y-104381200D01*
X99633100Y-104381200D02*
X99633100Y-99500000D01*
X99744900Y-15819900D02*
X113251600Y-15819900D01*
%TD*%
%TA.AperFunction,Conductor*%
%TO.N,3V3_LOGIC*%
G36*
X137959191Y-1518907D02*
G01*
X137995155Y-1568407D01*
X138000000Y-1599000D01*
X138000000Y-18051000D01*
X137981093Y-18109191D01*
X137931593Y-18145155D01*
X137901000Y-18150000D01*
X134730000Y-18150000D01*
X134730000Y-29849999D01*
X134730001Y-29849999D01*
X137901000Y-29849999D01*
X137959191Y-29868906D01*
X137995155Y-29918406D01*
X138000000Y-29948999D01*
X138000000Y-35156000D01*
X137981093Y-35214191D01*
X137931593Y-35250155D01*
X137901000Y-35255000D01*
X130949999Y-35255000D01*
X130949999Y-35255001D01*
X130949999Y-43901000D01*
X130931092Y-43959191D01*
X130881592Y-43995155D01*
X130850999Y-44000000D01*
X127456765Y-44000000D01*
X127407264Y-43986736D01*
X127393188Y-43978609D01*
X127393187Y-43978608D01*
X127393186Y-43978608D01*
X127265892Y-43944500D01*
X127134108Y-43944500D01*
X127006814Y-43978608D01*
X127006813Y-43978608D01*
X127006811Y-43978609D01*
X126992736Y-43986736D01*
X126943235Y-44000000D01*
X124099000Y-44000000D01*
X124040809Y-43981093D01*
X124004845Y-43931593D01*
X124000000Y-43901000D01*
X124000000Y-38723308D01*
X128099500Y-38723308D01*
X128099500Y-38855092D01*
X128129579Y-38967351D01*
X128133609Y-38982390D01*
X128199496Y-39096509D01*
X128199498Y-39096511D01*
X128199500Y-39096514D01*
X128292686Y-39189700D01*
X128292688Y-39189701D01*
X128292690Y-39189703D01*
X128406810Y-39255590D01*
X128406811Y-39255590D01*
X128406814Y-39255592D01*
X128458247Y-39269373D01*
X128509562Y-39302697D01*
X128531488Y-39359819D01*
X128515652Y-39418919D01*
X128468102Y-39457424D01*
X128458252Y-39460625D01*
X128434138Y-39467086D01*
X128406809Y-39474409D01*
X128292690Y-39540296D01*
X128199496Y-39633490D01*
X128133609Y-39747609D01*
X128133608Y-39747614D01*
X128099500Y-39874908D01*
X128099500Y-40006692D01*
X128129579Y-40118951D01*
X128133609Y-40133990D01*
X128199496Y-40248109D01*
X128199498Y-40248111D01*
X128199500Y-40248114D01*
X128292686Y-40341300D01*
X128292688Y-40341301D01*
X128292690Y-40341303D01*
X128406810Y-40407190D01*
X128406808Y-40407190D01*
X128406812Y-40407191D01*
X128406814Y-40407192D01*
X128534108Y-40441300D01*
X128534110Y-40441300D01*
X128665890Y-40441300D01*
X128665892Y-40441300D01*
X128793186Y-40407192D01*
X128793188Y-40407190D01*
X128793190Y-40407190D01*
X128907309Y-40341303D01*
X128907309Y-40341302D01*
X128907314Y-40341300D01*
X129000500Y-40248114D01*
X129066392Y-40133986D01*
X129100500Y-40006692D01*
X129100500Y-39874908D01*
X129066392Y-39747614D01*
X129066390Y-39747611D01*
X129066390Y-39747609D01*
X129000503Y-39633490D01*
X129000501Y-39633488D01*
X129000500Y-39633486D01*
X128907314Y-39540300D01*
X128907311Y-39540298D01*
X128907309Y-39540296D01*
X128793189Y-39474409D01*
X128793191Y-39474409D01*
X128773931Y-39469248D01*
X128741750Y-39460626D01*
X128690438Y-39427303D01*
X128668511Y-39370182D01*
X128684346Y-39311081D01*
X128731896Y-39272576D01*
X128741742Y-39269376D01*
X128793186Y-39255592D01*
X128793188Y-39255590D01*
X128793190Y-39255590D01*
X128907309Y-39189703D01*
X128907309Y-39189702D01*
X128907314Y-39189700D01*
X129000500Y-39096514D01*
X129066392Y-38982386D01*
X129100500Y-38855092D01*
X129100500Y-38723308D01*
X129066392Y-38596014D01*
X129066390Y-38596011D01*
X129066390Y-38596009D01*
X129000503Y-38481890D01*
X129000501Y-38481888D01*
X129000500Y-38481886D01*
X128907314Y-38388700D01*
X128907311Y-38388698D01*
X128907309Y-38388696D01*
X128793189Y-38322809D01*
X128793191Y-38322809D01*
X128743799Y-38309575D01*
X128665892Y-38288700D01*
X128534108Y-38288700D01*
X128456200Y-38309575D01*
X128406809Y-38322809D01*
X128292690Y-38388696D01*
X128199496Y-38481890D01*
X128133609Y-38596009D01*
X128133608Y-38596014D01*
X128099500Y-38723308D01*
X124000000Y-38723308D01*
X124000000Y-37453308D01*
X128099500Y-37453308D01*
X128099500Y-37585092D01*
X128129579Y-37697351D01*
X128133609Y-37712390D01*
X128199496Y-37826509D01*
X128199498Y-37826511D01*
X128199500Y-37826514D01*
X128292686Y-37919700D01*
X128292688Y-37919701D01*
X128292690Y-37919703D01*
X128406810Y-37985590D01*
X128406808Y-37985590D01*
X128406812Y-37985591D01*
X128406814Y-37985592D01*
X128534108Y-38019700D01*
X128534110Y-38019700D01*
X128665890Y-38019700D01*
X128665892Y-38019700D01*
X128793186Y-37985592D01*
X128793188Y-37985590D01*
X128793190Y-37985590D01*
X128907309Y-37919703D01*
X128907309Y-37919702D01*
X128907314Y-37919700D01*
X129000500Y-37826514D01*
X129066392Y-37712386D01*
X129100500Y-37585092D01*
X129100500Y-37453308D01*
X129066392Y-37326014D01*
X129066390Y-37326011D01*
X129066390Y-37326009D01*
X129000503Y-37211890D01*
X129000501Y-37211888D01*
X129000500Y-37211886D01*
X128907314Y-37118700D01*
X128907311Y-37118698D01*
X128907309Y-37118696D01*
X128793189Y-37052809D01*
X128793191Y-37052809D01*
X128743799Y-37039575D01*
X128665892Y-37018700D01*
X128534108Y-37018700D01*
X128456200Y-37039575D01*
X128406809Y-37052809D01*
X128292690Y-37118696D01*
X128199496Y-37211890D01*
X128133609Y-37326009D01*
X128133608Y-37326014D01*
X128099500Y-37453308D01*
X124000000Y-37453308D01*
X124000000Y-21799450D01*
X124018907Y-21741259D01*
X124068407Y-21705295D01*
X124091244Y-21700754D01*
X124094466Y-21700500D01*
X124094481Y-21700500D01*
X124218905Y-21680793D01*
X124281113Y-21670941D01*
X124281114Y-21670940D01*
X124281118Y-21670940D01*
X124460832Y-21612547D01*
X124629199Y-21526760D01*
X124782073Y-21415690D01*
X124915690Y-21282073D01*
X125026760Y-21129199D01*
X125112547Y-20960832D01*
X125170940Y-20781118D01*
X125200500Y-20594481D01*
X125200500Y-20405519D01*
X125200500Y-20405515D01*
X125170941Y-20218886D01*
X125170940Y-20218882D01*
X125112547Y-20039168D01*
X125026760Y-19870801D01*
X124915690Y-19717927D01*
X124782073Y-19584310D01*
X124629199Y-19473240D01*
X124629198Y-19473239D01*
X124629196Y-19473238D01*
X124460832Y-19387453D01*
X124281113Y-19329058D01*
X124094486Y-19299500D01*
X124091230Y-19299244D01*
X124034703Y-19275828D01*
X124002735Y-19223658D01*
X124000000Y-19200549D01*
X124000000Y-14434108D01*
X129499500Y-14434108D01*
X129499500Y-14565892D01*
X129529579Y-14678151D01*
X129533609Y-14693190D01*
X129599496Y-14807309D01*
X129599498Y-14807311D01*
X129599500Y-14807314D01*
X129692686Y-14900500D01*
X129692688Y-14900501D01*
X129692690Y-14900503D01*
X129806810Y-14966390D01*
X129806808Y-14966390D01*
X129806812Y-14966391D01*
X129806814Y-14966392D01*
X129934108Y-15000500D01*
X129934110Y-15000500D01*
X130065890Y-15000500D01*
X130065892Y-15000500D01*
X130193186Y-14966392D01*
X130193188Y-14966390D01*
X130193190Y-14966390D01*
X130307309Y-14900503D01*
X130307309Y-14900502D01*
X130307314Y-14900500D01*
X130400500Y-14807314D01*
X130466392Y-14693186D01*
X130500500Y-14565892D01*
X130500500Y-14434108D01*
X130466392Y-14306814D01*
X130466390Y-14306811D01*
X130466390Y-14306809D01*
X130400503Y-14192690D01*
X130400501Y-14192688D01*
X130400500Y-14192686D01*
X130307314Y-14099500D01*
X130307311Y-14099498D01*
X130307309Y-14099496D01*
X130193189Y-14033609D01*
X130193191Y-14033609D01*
X130143799Y-14020375D01*
X130065892Y-13999500D01*
X129934108Y-13999500D01*
X129856200Y-14020375D01*
X129806809Y-14033609D01*
X129692690Y-14099496D01*
X129599496Y-14192690D01*
X129533609Y-14306809D01*
X129533608Y-14306814D01*
X129499500Y-14434108D01*
X124000000Y-14434108D01*
X124000000Y-1599000D01*
X124018907Y-1540809D01*
X124068407Y-1504845D01*
X124099000Y-1500000D01*
X137901000Y-1500000D01*
X137959191Y-1518907D01*
G37*
%TD.AperFunction*%
%TD*%
%TA.AperFunction,Conductor*%
%TO.N,3V3_LOGIC*%
G36*
X137959191Y-84018907D02*
G01*
X137995155Y-84068407D01*
X138000000Y-84099000D01*
X138000000Y-128401000D01*
X137981093Y-128459191D01*
X137931593Y-128495155D01*
X137901000Y-128500000D01*
X78099000Y-128500000D01*
X78040809Y-128481093D01*
X78004845Y-128431593D01*
X78000000Y-128401000D01*
X78000000Y-123886708D01*
X114674500Y-123886708D01*
X114674500Y-124018492D01*
X114683195Y-124050941D01*
X114708609Y-124145790D01*
X114774496Y-124259909D01*
X114774498Y-124259911D01*
X114774500Y-124259914D01*
X114867686Y-124353100D01*
X114867688Y-124353101D01*
X114867690Y-124353103D01*
X114981810Y-124418990D01*
X114981808Y-124418990D01*
X114981812Y-124418991D01*
X114981814Y-124418992D01*
X115109108Y-124453100D01*
X115109110Y-124453100D01*
X115240890Y-124453100D01*
X115240892Y-124453100D01*
X115368186Y-124418992D01*
X115368188Y-124418990D01*
X115368190Y-124418990D01*
X115482309Y-124353103D01*
X115482309Y-124353102D01*
X115482314Y-124353100D01*
X115575500Y-124259914D01*
X115575503Y-124259909D01*
X115641390Y-124145790D01*
X115641390Y-124145788D01*
X115641392Y-124145786D01*
X115675500Y-124018492D01*
X115675500Y-123886708D01*
X115641392Y-123759414D01*
X115641390Y-123759411D01*
X115641390Y-123759409D01*
X115575503Y-123645290D01*
X115575501Y-123645288D01*
X115575500Y-123645286D01*
X115482314Y-123552100D01*
X115482311Y-123552098D01*
X115482309Y-123552096D01*
X115368189Y-123486209D01*
X115368191Y-123486209D01*
X115318799Y-123472975D01*
X115240892Y-123452100D01*
X115109108Y-123452100D01*
X115031200Y-123472975D01*
X114981809Y-123486209D01*
X114867690Y-123552096D01*
X114774496Y-123645290D01*
X114708609Y-123759409D01*
X114708608Y-123759414D01*
X114674500Y-123886708D01*
X78000000Y-123886708D01*
X78000000Y-122636308D01*
X97816800Y-122636308D01*
X97816800Y-122768092D01*
X97842540Y-122864155D01*
X97850909Y-122895390D01*
X97916796Y-123009509D01*
X97916798Y-123009511D01*
X97916800Y-123009514D01*
X98009986Y-123102700D01*
X98009988Y-123102701D01*
X98009990Y-123102703D01*
X98124110Y-123168590D01*
X98124108Y-123168590D01*
X98124112Y-123168591D01*
X98124114Y-123168592D01*
X98251408Y-123202700D01*
X98251410Y-123202700D01*
X98383190Y-123202700D01*
X98383192Y-123202700D01*
X98510486Y-123168592D01*
X98510488Y-123168590D01*
X98510490Y-123168590D01*
X98624609Y-123102703D01*
X98624609Y-123102702D01*
X98624614Y-123102700D01*
X98717800Y-123009514D01*
X98783692Y-122895386D01*
X98817800Y-122768092D01*
X98817800Y-122636308D01*
X98783692Y-122509014D01*
X98783690Y-122509011D01*
X98783690Y-122509009D01*
X98717803Y-122394890D01*
X98717801Y-122394888D01*
X98717800Y-122394886D01*
X98624614Y-122301700D01*
X98624611Y-122301698D01*
X98592496Y-122283156D01*
X98592495Y-122283156D01*
X98510487Y-122235808D01*
X98468054Y-122224438D01*
X98391433Y-122203908D01*
X99594300Y-122203908D01*
X99594300Y-122335692D01*
X99610161Y-122394886D01*
X99628409Y-122462990D01*
X99694296Y-122577109D01*
X99694298Y-122577111D01*
X99694300Y-122577114D01*
X99787486Y-122670300D01*
X99787488Y-122670301D01*
X99787490Y-122670303D01*
X99901610Y-122736190D01*
X99901608Y-122736190D01*
X99901612Y-122736191D01*
X99901614Y-122736192D01*
X100028908Y-122770300D01*
X100028910Y-122770300D01*
X100160690Y-122770300D01*
X100160692Y-122770300D01*
X100287986Y-122736192D01*
X100287988Y-122736190D01*
X100287990Y-122736190D01*
X100402109Y-122670303D01*
X100402109Y-122670302D01*
X100402114Y-122670300D01*
X100495300Y-122577114D01*
X100495303Y-122577109D01*
X100561190Y-122462990D01*
X100561190Y-122462988D01*
X100561192Y-122462986D01*
X100595300Y-122335692D01*
X100595300Y-122203908D01*
X100561192Y-122076614D01*
X100515520Y-121997508D01*
X102674500Y-121997508D01*
X102674500Y-122129292D01*
X102703041Y-122235808D01*
X102708609Y-122256590D01*
X102774496Y-122370709D01*
X102774498Y-122370711D01*
X102774500Y-122370714D01*
X102867686Y-122463900D01*
X102867688Y-122463901D01*
X102867690Y-122463903D01*
X102981810Y-122529790D01*
X102981808Y-122529790D01*
X102981812Y-122529791D01*
X102981814Y-122529792D01*
X103109108Y-122563900D01*
X103109110Y-122563900D01*
X103240890Y-122563900D01*
X103240892Y-122563900D01*
X103368186Y-122529792D01*
X103368188Y-122529790D01*
X103368190Y-122529790D01*
X103482309Y-122463903D01*
X103482309Y-122463902D01*
X103482314Y-122463900D01*
X103575500Y-122370714D01*
X103583528Y-122356809D01*
X103641390Y-122256590D01*
X103641390Y-122256588D01*
X103641392Y-122256586D01*
X103675500Y-122129292D01*
X103675500Y-121997508D01*
X103674777Y-121994808D01*
X104324500Y-121994808D01*
X104324500Y-122126592D01*
X104346342Y-122208108D01*
X104358609Y-122253890D01*
X104424496Y-122368009D01*
X104424498Y-122368011D01*
X104424500Y-122368014D01*
X104517686Y-122461200D01*
X104517688Y-122461201D01*
X104517690Y-122461203D01*
X104631810Y-122527090D01*
X104631808Y-122527090D01*
X104631812Y-122527091D01*
X104631814Y-122527092D01*
X104759108Y-122561200D01*
X104759110Y-122561200D01*
X104890890Y-122561200D01*
X104890892Y-122561200D01*
X105018186Y-122527092D01*
X105018188Y-122527090D01*
X105018190Y-122527090D01*
X105132309Y-122461203D01*
X105132309Y-122461202D01*
X105132314Y-122461200D01*
X105225500Y-122368014D01*
X105241736Y-122339892D01*
X105291390Y-122253890D01*
X105291390Y-122253888D01*
X105291392Y-122253886D01*
X105304087Y-122206508D01*
X105946900Y-122206508D01*
X105946900Y-122338292D01*
X105976832Y-122450000D01*
X105981009Y-122465590D01*
X106046896Y-122579709D01*
X106046898Y-122579711D01*
X106046900Y-122579714D01*
X106140086Y-122672900D01*
X106140088Y-122672901D01*
X106140090Y-122672903D01*
X106254210Y-122738790D01*
X106254208Y-122738790D01*
X106254212Y-122738791D01*
X106254214Y-122738792D01*
X106381508Y-122772900D01*
X106381510Y-122772900D01*
X106513290Y-122772900D01*
X106513292Y-122772900D01*
X106640586Y-122738792D01*
X106640588Y-122738790D01*
X106640590Y-122738790D01*
X106754709Y-122672903D01*
X106754709Y-122672902D01*
X106754714Y-122672900D01*
X106847900Y-122579714D01*
X106851480Y-122573514D01*
X106913790Y-122465590D01*
X106913790Y-122465588D01*
X106913792Y-122465586D01*
X106947900Y-122338292D01*
X106947900Y-122206508D01*
X106946239Y-122200308D01*
X109058300Y-122200308D01*
X109058300Y-122332092D01*
X109075127Y-122394890D01*
X109092409Y-122459390D01*
X109158296Y-122573509D01*
X109158298Y-122573511D01*
X109158300Y-122573514D01*
X109251486Y-122666700D01*
X109251488Y-122666701D01*
X109251490Y-122666703D01*
X109365610Y-122732590D01*
X109365608Y-122732590D01*
X109365612Y-122732591D01*
X109365614Y-122732592D01*
X109492908Y-122766700D01*
X109492910Y-122766700D01*
X109624690Y-122766700D01*
X109624692Y-122766700D01*
X109713496Y-122742905D01*
X109774595Y-122746108D01*
X109822145Y-122784613D01*
X109837981Y-122843713D01*
X109834744Y-122864152D01*
X109816000Y-122934108D01*
X109816000Y-123065892D01*
X109843518Y-123168590D01*
X109850109Y-123193190D01*
X109915996Y-123307309D01*
X109915998Y-123307311D01*
X109916000Y-123307314D01*
X110009186Y-123400500D01*
X110009188Y-123400501D01*
X110009190Y-123400503D01*
X110123310Y-123466390D01*
X110123308Y-123466390D01*
X110123312Y-123466391D01*
X110123314Y-123466392D01*
X110250608Y-123500500D01*
X110250610Y-123500500D01*
X110382390Y-123500500D01*
X110382392Y-123500500D01*
X110509686Y-123466392D01*
X110509688Y-123466390D01*
X110509690Y-123466390D01*
X110623809Y-123400503D01*
X110623809Y-123400502D01*
X110623814Y-123400500D01*
X110717000Y-123307314D01*
X110765409Y-123223467D01*
X110782890Y-123193190D01*
X110782890Y-123193188D01*
X110782892Y-123193186D01*
X110817000Y-123065892D01*
X110817000Y-123016532D01*
X132949500Y-123016532D01*
X132949500Y-123223467D01*
X132989869Y-123426418D01*
X133069058Y-123617597D01*
X133184020Y-123789651D01*
X133184023Y-123789655D01*
X133330345Y-123935977D01*
X133502402Y-124050941D01*
X133693580Y-124130130D01*
X133896535Y-124170500D01*
X133896536Y-124170500D01*
X134103464Y-124170500D01*
X134103465Y-124170500D01*
X134306420Y-124130130D01*
X134497598Y-124050941D01*
X134669655Y-123935977D01*
X134815977Y-123789655D01*
X134930941Y-123617598D01*
X135010130Y-123426420D01*
X135050500Y-123223465D01*
X135050500Y-123016535D01*
X135010130Y-122813580D01*
X134930941Y-122622402D01*
X134815977Y-122450345D01*
X134669655Y-122304023D01*
X134669651Y-122304020D01*
X134497597Y-122189058D01*
X134306418Y-122109869D01*
X134103467Y-122069500D01*
X134103465Y-122069500D01*
X133896535Y-122069500D01*
X133896532Y-122069500D01*
X133693581Y-122109869D01*
X133502402Y-122189058D01*
X133330348Y-122304020D01*
X133184020Y-122450348D01*
X133069058Y-122622402D01*
X132989869Y-122813581D01*
X132949500Y-123016532D01*
X110817000Y-123016532D01*
X110817000Y-122934108D01*
X110782892Y-122806814D01*
X110782890Y-122806811D01*
X110782890Y-122806809D01*
X110717003Y-122692690D01*
X110717001Y-122692688D01*
X110717000Y-122692686D01*
X110623814Y-122599500D01*
X110623811Y-122599498D01*
X110623809Y-122599496D01*
X110509689Y-122533609D01*
X110509691Y-122533609D01*
X110443568Y-122515892D01*
X110382392Y-122499500D01*
X110250608Y-122499500D01*
X110226853Y-122505865D01*
X110161804Y-122523294D01*
X110100702Y-122520091D01*
X110053153Y-122481585D01*
X110037318Y-122422485D01*
X110040554Y-122402050D01*
X110059300Y-122332092D01*
X110059300Y-122200308D01*
X110025192Y-122073014D01*
X110025190Y-122073011D01*
X110025190Y-122073009D01*
X109988881Y-122010122D01*
X109988879Y-122010119D01*
X109980040Y-121994809D01*
X109964047Y-121967108D01*
X112324500Y-121967108D01*
X112324500Y-122098892D01*
X112345160Y-122175996D01*
X112358609Y-122226190D01*
X112424496Y-122340309D01*
X112424498Y-122340311D01*
X112424500Y-122340314D01*
X112517686Y-122433500D01*
X112517688Y-122433501D01*
X112517690Y-122433503D01*
X112631810Y-122499390D01*
X112631808Y-122499390D01*
X112631812Y-122499391D01*
X112631814Y-122499392D01*
X112759108Y-122533500D01*
X112759110Y-122533500D01*
X112890890Y-122533500D01*
X112890892Y-122533500D01*
X113018186Y-122499392D01*
X113018188Y-122499390D01*
X113018190Y-122499390D01*
X113132309Y-122433503D01*
X113132309Y-122433502D01*
X113132314Y-122433500D01*
X113225500Y-122340314D01*
X113225745Y-122339890D01*
X113291390Y-122226190D01*
X113291390Y-122226188D01*
X113291392Y-122226186D01*
X113325500Y-122098892D01*
X113325500Y-122020208D01*
X115816900Y-122020208D01*
X115816900Y-122151992D01*
X115841201Y-122242686D01*
X115851009Y-122279290D01*
X115916896Y-122393409D01*
X115916898Y-122393411D01*
X115916900Y-122393414D01*
X116010086Y-122486600D01*
X116010088Y-122486601D01*
X116010090Y-122486603D01*
X116124210Y-122552490D01*
X116124208Y-122552490D01*
X116124212Y-122552491D01*
X116124214Y-122552492D01*
X116251508Y-122586600D01*
X116251510Y-122586600D01*
X116383290Y-122586600D01*
X116383292Y-122586600D01*
X116510586Y-122552492D01*
X116510588Y-122552490D01*
X116510590Y-122552490D01*
X116624709Y-122486603D01*
X116624709Y-122486602D01*
X116624714Y-122486600D01*
X116717900Y-122393414D01*
X116739034Y-122356809D01*
X116783790Y-122279290D01*
X116783790Y-122279288D01*
X116783792Y-122279286D01*
X116802864Y-122208108D01*
X117948500Y-122208108D01*
X117948500Y-122339892D01*
X117963237Y-122394890D01*
X117982609Y-122467190D01*
X118048496Y-122581309D01*
X118048498Y-122581311D01*
X118048500Y-122581314D01*
X118141686Y-122674500D01*
X118141688Y-122674501D01*
X118141690Y-122674503D01*
X118255810Y-122740390D01*
X118255808Y-122740390D01*
X118255812Y-122740391D01*
X118255814Y-122740392D01*
X118383108Y-122774500D01*
X118383110Y-122774500D01*
X118514890Y-122774500D01*
X118514892Y-122774500D01*
X118642186Y-122740392D01*
X118642188Y-122740390D01*
X118642190Y-122740390D01*
X118756309Y-122674503D01*
X118756309Y-122674502D01*
X118756314Y-122674500D01*
X118849500Y-122581314D01*
X118861113Y-122561200D01*
X118915390Y-122467190D01*
X118915390Y-122467188D01*
X118915392Y-122467186D01*
X118949500Y-122339892D01*
X118949500Y-122208108D01*
X118915392Y-122080814D01*
X118915390Y-122080811D01*
X118915390Y-122080809D01*
X118884104Y-122026622D01*
X118884102Y-122026619D01*
X118859270Y-121983608D01*
X120324500Y-121983608D01*
X120324500Y-122115392D01*
X120349343Y-122208108D01*
X120358609Y-122242690D01*
X120424496Y-122356809D01*
X120424498Y-122356811D01*
X120424500Y-122356814D01*
X120517686Y-122450000D01*
X120517688Y-122450001D01*
X120517690Y-122450003D01*
X120631810Y-122515890D01*
X120631808Y-122515890D01*
X120631812Y-122515891D01*
X120631814Y-122515892D01*
X120759108Y-122550000D01*
X120759110Y-122550000D01*
X120890890Y-122550000D01*
X120890892Y-122550000D01*
X121018186Y-122515892D01*
X121018188Y-122515890D01*
X121018190Y-122515890D01*
X121132309Y-122450003D01*
X121132309Y-122450002D01*
X121132314Y-122450000D01*
X121225500Y-122356814D01*
X121239774Y-122332091D01*
X121291390Y-122242690D01*
X121291390Y-122242688D01*
X121291392Y-122242686D01*
X121325500Y-122115392D01*
X121325500Y-121983608D01*
X121291392Y-121856314D01*
X121291390Y-121856311D01*
X121291390Y-121856309D01*
X121225503Y-121742190D01*
X121225501Y-121742188D01*
X121225500Y-121742186D01*
X121132314Y-121649000D01*
X121132311Y-121648998D01*
X121132309Y-121648996D01*
X121018189Y-121583109D01*
X121018191Y-121583109D01*
X120956610Y-121566609D01*
X120890892Y-121549000D01*
X120759108Y-121549000D01*
X120693390Y-121566609D01*
X120631809Y-121583109D01*
X120517690Y-121648996D01*
X120424496Y-121742190D01*
X120358609Y-121856309D01*
X120354433Y-121871896D01*
X120324500Y-121983608D01*
X118859270Y-121983608D01*
X118849500Y-121966686D01*
X118756314Y-121873500D01*
X118756311Y-121873498D01*
X118756309Y-121873496D01*
X118642189Y-121807609D01*
X118642191Y-121807609D01*
X118592799Y-121794375D01*
X118514892Y-121773500D01*
X118383108Y-121773500D01*
X118305200Y-121794375D01*
X118255809Y-121807609D01*
X118141690Y-121873496D01*
X118048496Y-121966690D01*
X117982609Y-122080809D01*
X117973343Y-122115390D01*
X117948500Y-122208108D01*
X116802864Y-122208108D01*
X116817900Y-122151992D01*
X116817900Y-122020208D01*
X116783792Y-121892914D01*
X116783790Y-121892911D01*
X116783790Y-121892909D01*
X116717903Y-121778790D01*
X116717901Y-121778788D01*
X116717900Y-121778786D01*
X116624714Y-121685600D01*
X116624711Y-121685598D01*
X116624709Y-121685596D01*
X116510589Y-121619709D01*
X116510591Y-121619709D01*
X116461199Y-121606475D01*
X116383292Y-121585600D01*
X116251508Y-121585600D01*
X116173600Y-121606475D01*
X116124209Y-121619709D01*
X116010090Y-121685596D01*
X115916896Y-121778790D01*
X115851009Y-121892909D01*
X115851008Y-121892914D01*
X115816900Y-122020208D01*
X113325500Y-122020208D01*
X113325500Y-121967108D01*
X113291392Y-121839814D01*
X113291390Y-121839811D01*
X113291390Y-121839809D01*
X113225503Y-121725690D01*
X113225501Y-121725688D01*
X113225500Y-121725686D01*
X113132314Y-121632500D01*
X113132311Y-121632498D01*
X113132309Y-121632496D01*
X113018189Y-121566609D01*
X113018191Y-121566609D01*
X112952471Y-121549000D01*
X112890892Y-121532500D01*
X112759108Y-121532500D01*
X112697529Y-121549000D01*
X112631809Y-121566609D01*
X112517690Y-121632496D01*
X112424496Y-121725690D01*
X112358609Y-121839809D01*
X112349583Y-121873496D01*
X112324500Y-121967108D01*
X109964047Y-121967108D01*
X109959300Y-121958886D01*
X109866114Y-121865700D01*
X109866111Y-121865698D01*
X109866109Y-121865696D01*
X109751989Y-121799809D01*
X109751991Y-121799809D01*
X109702599Y-121786575D01*
X109624692Y-121765700D01*
X109492908Y-121765700D01*
X109415000Y-121786575D01*
X109365609Y-121799809D01*
X109251490Y-121865696D01*
X109158296Y-121958890D01*
X109092409Y-122073009D01*
X109081053Y-122115390D01*
X109058300Y-122200308D01*
X106946239Y-122200308D01*
X106913792Y-122079214D01*
X106913790Y-122079211D01*
X106913790Y-122079209D01*
X106847903Y-121965090D01*
X106847901Y-121965088D01*
X106847900Y-121965086D01*
X106754714Y-121871900D01*
X106754711Y-121871898D01*
X106754709Y-121871896D01*
X106640589Y-121806009D01*
X106640591Y-121806009D01*
X106591199Y-121792775D01*
X106513292Y-121771900D01*
X106381508Y-121771900D01*
X106303600Y-121792775D01*
X106254209Y-121806009D01*
X106140090Y-121871896D01*
X106046896Y-121965090D01*
X105981009Y-122079209D01*
X105980579Y-122080814D01*
X105946900Y-122206508D01*
X105304087Y-122206508D01*
X105325500Y-122126592D01*
X105325500Y-121994808D01*
X105291392Y-121867514D01*
X105291390Y-121867511D01*
X105291390Y-121867509D01*
X105225503Y-121753390D01*
X105225501Y-121753388D01*
X105225500Y-121753386D01*
X105132314Y-121660200D01*
X105132311Y-121660198D01*
X105132309Y-121660196D01*
X105018189Y-121594309D01*
X105018191Y-121594309D01*
X104968799Y-121581075D01*
X104890892Y-121560200D01*
X104759108Y-121560200D01*
X104681200Y-121581075D01*
X104631809Y-121594309D01*
X104517690Y-121660196D01*
X104424496Y-121753390D01*
X104358609Y-121867509D01*
X104357005Y-121873496D01*
X104324500Y-121994808D01*
X103674777Y-121994808D01*
X103641392Y-121870214D01*
X103641390Y-121870211D01*
X103641390Y-121870209D01*
X103575503Y-121756090D01*
X103575501Y-121756088D01*
X103575500Y-121756086D01*
X103482314Y-121662900D01*
X103482311Y-121662898D01*
X103482309Y-121662896D01*
X103368189Y-121597009D01*
X103368191Y-121597009D01*
X103316310Y-121583108D01*
X103240892Y-121562900D01*
X103109108Y-121562900D01*
X103033690Y-121583108D01*
X102981809Y-121597009D01*
X102867690Y-121662896D01*
X102774496Y-121756090D01*
X102708609Y-121870209D01*
X102689539Y-121941378D01*
X102674500Y-121997508D01*
X100515520Y-121997508D01*
X100495300Y-121962486D01*
X100402114Y-121869300D01*
X100402111Y-121869298D01*
X100402109Y-121869296D01*
X100287989Y-121803409D01*
X100287991Y-121803409D01*
X100238599Y-121790175D01*
X100160692Y-121769300D01*
X100028908Y-121769300D01*
X99951000Y-121790175D01*
X99901609Y-121803409D01*
X99787490Y-121869296D01*
X99694296Y-121962490D01*
X99628409Y-122076609D01*
X99614294Y-122129290D01*
X99594300Y-122203908D01*
X98391433Y-122203908D01*
X98383192Y-122201700D01*
X98251408Y-122201700D01*
X98173500Y-122222575D01*
X98124109Y-122235809D01*
X98009990Y-122301696D01*
X97916796Y-122394890D01*
X97850909Y-122509009D01*
X97844347Y-122533500D01*
X97816800Y-122636308D01*
X78000000Y-122636308D01*
X78000000Y-119756532D01*
X80949500Y-119756532D01*
X80949500Y-119963467D01*
X80989869Y-120166418D01*
X81069058Y-120357597D01*
X81148530Y-120476536D01*
X81184023Y-120529655D01*
X81330345Y-120675977D01*
X81502402Y-120790941D01*
X81693580Y-120870130D01*
X81896535Y-120910500D01*
X81896536Y-120910500D01*
X82103464Y-120910500D01*
X82103465Y-120910500D01*
X82306420Y-120870130D01*
X82497598Y-120790941D01*
X82669655Y-120675977D01*
X82815977Y-120529655D01*
X82930941Y-120357598D01*
X83010130Y-120166420D01*
X83050500Y-119963465D01*
X83050500Y-119756535D01*
X83050499Y-119756532D01*
X83489500Y-119756532D01*
X83489500Y-119963467D01*
X83529869Y-120166418D01*
X83609058Y-120357597D01*
X83688530Y-120476536D01*
X83724023Y-120529655D01*
X83870345Y-120675977D01*
X84042402Y-120790941D01*
X84233580Y-120870130D01*
X84436535Y-120910500D01*
X84436536Y-120910500D01*
X84643464Y-120910500D01*
X84643465Y-120910500D01*
X84846420Y-120870130D01*
X85037598Y-120790941D01*
X85209655Y-120675977D01*
X85355977Y-120529655D01*
X85391472Y-120476532D01*
X132949500Y-120476532D01*
X132949500Y-120683467D01*
X132989869Y-120886418D01*
X133069058Y-121077597D01*
X133069059Y-121077598D01*
X133184023Y-121249655D01*
X133330345Y-121395977D01*
X133502402Y-121510941D01*
X133693580Y-121590130D01*
X133896535Y-121630500D01*
X133896536Y-121630500D01*
X134103464Y-121630500D01*
X134103465Y-121630500D01*
X134306420Y-121590130D01*
X134497598Y-121510941D01*
X134669655Y-121395977D01*
X134815977Y-121249655D01*
X134930941Y-121077598D01*
X135010130Y-120886420D01*
X135050500Y-120683465D01*
X135050500Y-120476535D01*
X135010130Y-120273580D01*
X134930941Y-120082402D01*
X134815977Y-119910345D01*
X134669655Y-119764023D01*
X134658450Y-119756536D01*
X134497597Y-119649058D01*
X134306418Y-119569869D01*
X134103467Y-119529500D01*
X134103465Y-119529500D01*
X133896535Y-119529500D01*
X133896532Y-119529500D01*
X133693581Y-119569869D01*
X133502402Y-119649058D01*
X133330348Y-119764020D01*
X133184020Y-119910348D01*
X133069058Y-120082402D01*
X132989869Y-120273581D01*
X132949500Y-120476532D01*
X85391472Y-120476532D01*
X85470941Y-120357598D01*
X85550130Y-120166420D01*
X85590500Y-119963465D01*
X85590500Y-119756535D01*
X85550130Y-119553580D01*
X85470941Y-119362402D01*
X85355977Y-119190345D01*
X85209655Y-119044023D01*
X85209651Y-119044020D01*
X85037597Y-118929058D01*
X84846418Y-118849869D01*
X84643467Y-118809500D01*
X84643465Y-118809500D01*
X84436535Y-118809500D01*
X84436532Y-118809500D01*
X84233581Y-118849869D01*
X84042402Y-118929058D01*
X83870348Y-119044020D01*
X83724020Y-119190348D01*
X83609058Y-119362402D01*
X83529869Y-119553581D01*
X83489500Y-119756532D01*
X83050499Y-119756532D01*
X83010130Y-119553580D01*
X82930941Y-119362402D01*
X82815977Y-119190345D01*
X82669655Y-119044023D01*
X82669651Y-119044020D01*
X82497597Y-118929058D01*
X82306418Y-118849869D01*
X82103467Y-118809500D01*
X82103465Y-118809500D01*
X81896535Y-118809500D01*
X81896532Y-118809500D01*
X81693581Y-118849869D01*
X81502402Y-118929058D01*
X81330348Y-119044020D01*
X81184020Y-119190348D01*
X81069058Y-119362402D01*
X80989869Y-119553581D01*
X80949500Y-119756532D01*
X78000000Y-119756532D01*
X78000000Y-117216532D01*
X80949500Y-117216532D01*
X80949500Y-117423467D01*
X80989869Y-117626418D01*
X81069058Y-117817597D01*
X81148530Y-117936536D01*
X81184023Y-117989655D01*
X81330345Y-118135977D01*
X81502402Y-118250941D01*
X81693580Y-118330130D01*
X81896535Y-118370500D01*
X81896536Y-118370500D01*
X82103464Y-118370500D01*
X82103465Y-118370500D01*
X82306420Y-118330130D01*
X82497598Y-118250941D01*
X82669655Y-118135977D01*
X82815977Y-117989655D01*
X82930941Y-117817598D01*
X83010130Y-117626420D01*
X83050500Y-117423465D01*
X83050500Y-117216535D01*
X83050499Y-117216532D01*
X83489500Y-117216532D01*
X83489500Y-117423467D01*
X83529869Y-117626418D01*
X83609058Y-117817597D01*
X83688530Y-117936536D01*
X83724023Y-117989655D01*
X83870345Y-118135977D01*
X84042402Y-118250941D01*
X84233580Y-118330130D01*
X84436535Y-118370500D01*
X84436536Y-118370500D01*
X84643464Y-118370500D01*
X84643465Y-118370500D01*
X84846420Y-118330130D01*
X85037598Y-118250941D01*
X85209655Y-118135977D01*
X85355977Y-117989655D01*
X85470941Y-117817598D01*
X85550130Y-117626420D01*
X85590500Y-117423465D01*
X85590500Y-117216535D01*
X85550130Y-117013580D01*
X85470941Y-116822402D01*
X85355977Y-116650345D01*
X85209655Y-116504023D01*
X85192760Y-116492734D01*
X85037597Y-116389058D01*
X84846418Y-116309869D01*
X84643467Y-116269500D01*
X84643465Y-116269500D01*
X84436535Y-116269500D01*
X84436532Y-116269500D01*
X84233581Y-116309869D01*
X84042402Y-116389058D01*
X83870348Y-116504020D01*
X83724020Y-116650348D01*
X83609058Y-116822402D01*
X83529869Y-117013581D01*
X83489500Y-117216532D01*
X83050499Y-117216532D01*
X83010130Y-117013580D01*
X82930941Y-116822402D01*
X82815977Y-116650345D01*
X82669655Y-116504023D01*
X82652760Y-116492734D01*
X82497597Y-116389058D01*
X82306418Y-116309869D01*
X82103467Y-116269500D01*
X82103465Y-116269500D01*
X81896535Y-116269500D01*
X81896532Y-116269500D01*
X81693581Y-116309869D01*
X81502402Y-116389058D01*
X81330348Y-116504020D01*
X81184020Y-116650348D01*
X81069058Y-116822402D01*
X80989869Y-117013581D01*
X80949500Y-117216532D01*
X78000000Y-117216532D01*
X78000000Y-114676532D01*
X80949500Y-114676532D01*
X80949500Y-114883467D01*
X80989869Y-115086418D01*
X81069058Y-115277597D01*
X81173162Y-115433400D01*
X81184023Y-115449655D01*
X81330345Y-115595977D01*
X81502402Y-115710941D01*
X81693580Y-115790130D01*
X81896535Y-115830500D01*
X81896536Y-115830500D01*
X82103464Y-115830500D01*
X82103465Y-115830500D01*
X82306420Y-115790130D01*
X82497598Y-115710941D01*
X82669655Y-115595977D01*
X82815977Y-115449655D01*
X82930941Y-115277598D01*
X83010130Y-115086420D01*
X83050500Y-114883465D01*
X83050500Y-114676535D01*
X83050499Y-114676532D01*
X83489500Y-114676532D01*
X83489500Y-114883467D01*
X83529869Y-115086418D01*
X83609058Y-115277597D01*
X83713162Y-115433400D01*
X83724023Y-115449655D01*
X83870345Y-115595977D01*
X84042402Y-115710941D01*
X84233580Y-115790130D01*
X84436535Y-115830500D01*
X84436536Y-115830500D01*
X84643464Y-115830500D01*
X84643465Y-115830500D01*
X84846420Y-115790130D01*
X85037598Y-115710941D01*
X85209655Y-115595977D01*
X85355977Y-115449655D01*
X85470941Y-115277598D01*
X85550130Y-115086420D01*
X85590500Y-114883465D01*
X85590500Y-114676535D01*
X85550130Y-114473580D01*
X85470941Y-114282402D01*
X85355977Y-114110345D01*
X85209655Y-113964023D01*
X85198845Y-113956800D01*
X85037597Y-113849058D01*
X84846418Y-113769869D01*
X84643467Y-113729500D01*
X84643465Y-113729500D01*
X84436535Y-113729500D01*
X84436532Y-113729500D01*
X84233581Y-113769869D01*
X84042402Y-113849058D01*
X83870348Y-113964020D01*
X83724020Y-114110348D01*
X83609058Y-114282402D01*
X83529869Y-114473581D01*
X83489500Y-114676532D01*
X83050499Y-114676532D01*
X83010130Y-114473580D01*
X82930941Y-114282402D01*
X82815977Y-114110345D01*
X82669655Y-113964023D01*
X82658845Y-113956800D01*
X82497597Y-113849058D01*
X82306418Y-113769869D01*
X82103467Y-113729500D01*
X82103465Y-113729500D01*
X81896535Y-113729500D01*
X81896532Y-113729500D01*
X81693581Y-113769869D01*
X81502402Y-113849058D01*
X81330348Y-113964020D01*
X81184020Y-114110348D01*
X81069058Y-114282402D01*
X80989869Y-114473581D01*
X80949500Y-114676532D01*
X78000000Y-114676532D01*
X78000000Y-112136532D01*
X80949500Y-112136532D01*
X80949500Y-112343467D01*
X80989869Y-112546418D01*
X81069058Y-112737597D01*
X81184020Y-112909651D01*
X81184023Y-112909655D01*
X81330345Y-113055977D01*
X81502402Y-113170941D01*
X81693580Y-113250130D01*
X81896535Y-113290500D01*
X81896536Y-113290500D01*
X82103464Y-113290500D01*
X82103465Y-113290500D01*
X82306420Y-113250130D01*
X82497598Y-113170941D01*
X82669655Y-113055977D01*
X82815977Y-112909655D01*
X82930941Y-112737598D01*
X83010130Y-112546420D01*
X83050500Y-112343465D01*
X83050500Y-112136535D01*
X83050499Y-112136532D01*
X83489500Y-112136532D01*
X83489500Y-112343467D01*
X83529869Y-112546418D01*
X83609058Y-112737597D01*
X83724020Y-112909651D01*
X83724023Y-112909655D01*
X83870345Y-113055977D01*
X84042402Y-113170941D01*
X84233580Y-113250130D01*
X84436535Y-113290500D01*
X84436536Y-113290500D01*
X84643464Y-113290500D01*
X84643465Y-113290500D01*
X84846420Y-113250130D01*
X85037598Y-113170941D01*
X85209655Y-113055977D01*
X85355977Y-112909655D01*
X85470941Y-112737598D01*
X85550130Y-112546420D01*
X85590500Y-112343465D01*
X85590500Y-112136535D01*
X85550130Y-111933580D01*
X85470941Y-111742402D01*
X85355977Y-111570345D01*
X85209655Y-111424023D01*
X85209651Y-111424020D01*
X85037597Y-111309058D01*
X84846418Y-111229869D01*
X84643467Y-111189500D01*
X84643465Y-111189500D01*
X84436535Y-111189500D01*
X84436532Y-111189500D01*
X84233581Y-111229869D01*
X84042402Y-111309058D01*
X83870348Y-111424020D01*
X83724020Y-111570348D01*
X83609058Y-111742402D01*
X83529869Y-111933581D01*
X83489500Y-112136532D01*
X83050499Y-112136532D01*
X83010130Y-111933580D01*
X82930941Y-111742402D01*
X82815977Y-111570345D01*
X82669655Y-111424023D01*
X82669651Y-111424020D01*
X82497597Y-111309058D01*
X82306418Y-111229869D01*
X82103467Y-111189500D01*
X82103465Y-111189500D01*
X81896535Y-111189500D01*
X81896532Y-111189500D01*
X81693581Y-111229869D01*
X81502402Y-111309058D01*
X81330348Y-111424020D01*
X81184020Y-111570348D01*
X81069058Y-111742402D01*
X80989869Y-111933581D01*
X80949500Y-112136532D01*
X78000000Y-112136532D01*
X78000000Y-109596532D01*
X80949500Y-109596532D01*
X80949500Y-109803467D01*
X80989869Y-110006418D01*
X81069058Y-110197597D01*
X81069059Y-110197598D01*
X81184023Y-110369655D01*
X81330345Y-110515977D01*
X81502402Y-110630941D01*
X81693580Y-110710130D01*
X81896535Y-110750500D01*
X81896536Y-110750500D01*
X82103464Y-110750500D01*
X82103465Y-110750500D01*
X82306420Y-110710130D01*
X82497598Y-110630941D01*
X82669655Y-110515977D01*
X82815977Y-110369655D01*
X82930941Y-110197598D01*
X83010130Y-110006420D01*
X83050500Y-109803465D01*
X83050500Y-109596535D01*
X83050499Y-109596532D01*
X83489500Y-109596532D01*
X83489500Y-109803467D01*
X83529869Y-110006418D01*
X83609058Y-110197597D01*
X83609059Y-110197598D01*
X83724023Y-110369655D01*
X83870345Y-110515977D01*
X84042402Y-110630941D01*
X84233580Y-110710130D01*
X84436535Y-110750500D01*
X84436536Y-110750500D01*
X84643464Y-110750500D01*
X84643465Y-110750500D01*
X84846420Y-110710130D01*
X85037598Y-110630941D01*
X85209655Y-110515977D01*
X85355977Y-110369655D01*
X85470941Y-110197598D01*
X85550130Y-110006420D01*
X85590500Y-109803465D01*
X85590500Y-109596535D01*
X85550130Y-109393580D01*
X85470941Y-109202402D01*
X85355977Y-109030345D01*
X85209655Y-108884023D01*
X85209651Y-108884020D01*
X85037597Y-108769058D01*
X84846418Y-108689869D01*
X84643467Y-108649500D01*
X84643465Y-108649500D01*
X84436535Y-108649500D01*
X84436532Y-108649500D01*
X84233581Y-108689869D01*
X84042402Y-108769058D01*
X83870348Y-108884020D01*
X83724020Y-109030348D01*
X83609058Y-109202402D01*
X83529869Y-109393581D01*
X83489500Y-109596532D01*
X83050499Y-109596532D01*
X83010130Y-109393580D01*
X82930941Y-109202402D01*
X82815977Y-109030345D01*
X82669655Y-108884023D01*
X82669651Y-108884020D01*
X82497597Y-108769058D01*
X82306418Y-108689869D01*
X82103467Y-108649500D01*
X82103465Y-108649500D01*
X81896535Y-108649500D01*
X81896532Y-108649500D01*
X81693581Y-108689869D01*
X81502402Y-108769058D01*
X81330348Y-108884020D01*
X81184020Y-109030348D01*
X81069058Y-109202402D01*
X80989869Y-109393581D01*
X80949500Y-109596532D01*
X78000000Y-109596532D01*
X78000000Y-107056532D01*
X80949500Y-107056532D01*
X80949500Y-107263467D01*
X80989869Y-107466418D01*
X81069058Y-107657597D01*
X81097586Y-107700292D01*
X81184023Y-107829655D01*
X81330345Y-107975977D01*
X81502402Y-108090941D01*
X81693580Y-108170130D01*
X81896535Y-108210500D01*
X81896536Y-108210500D01*
X82103464Y-108210500D01*
X82103465Y-108210500D01*
X82306420Y-108170130D01*
X82497598Y-108090941D01*
X82669655Y-107975977D01*
X82815977Y-107829655D01*
X82930941Y-107657598D01*
X83010130Y-107466420D01*
X83050500Y-107263465D01*
X83050500Y-107056535D01*
X83050499Y-107056532D01*
X83489500Y-107056532D01*
X83489500Y-107263467D01*
X83529869Y-107466418D01*
X83609058Y-107657597D01*
X83637586Y-107700292D01*
X83724023Y-107829655D01*
X83870345Y-107975977D01*
X84042402Y-108090941D01*
X84233580Y-108170130D01*
X84436535Y-108210500D01*
X84436536Y-108210500D01*
X84643464Y-108210500D01*
X84643465Y-108210500D01*
X84846420Y-108170130D01*
X85037598Y-108090941D01*
X85209655Y-107975977D01*
X85355977Y-107829655D01*
X85470941Y-107657598D01*
X85550130Y-107466420D01*
X85590500Y-107263465D01*
X85590500Y-107056535D01*
X85550130Y-106853580D01*
X85470941Y-106662402D01*
X85355977Y-106490345D01*
X85209655Y-106344023D01*
X85037598Y-106229059D01*
X85037599Y-106229059D01*
X85037597Y-106229058D01*
X84846418Y-106149869D01*
X84643467Y-106109500D01*
X84643465Y-106109500D01*
X84436535Y-106109500D01*
X84436532Y-106109500D01*
X84233581Y-106149869D01*
X84042402Y-106229058D01*
X83870348Y-106344020D01*
X83724020Y-106490348D01*
X83609058Y-106662402D01*
X83529869Y-106853581D01*
X83489500Y-107056532D01*
X83050499Y-107056532D01*
X83010130Y-106853580D01*
X82930941Y-106662402D01*
X82815977Y-106490345D01*
X82669655Y-106344023D01*
X82497598Y-106229059D01*
X82497599Y-106229059D01*
X82497597Y-106229058D01*
X82306418Y-106149869D01*
X82103467Y-106109500D01*
X82103465Y-106109500D01*
X81896535Y-106109500D01*
X81896532Y-106109500D01*
X81693581Y-106149869D01*
X81502402Y-106229058D01*
X81330348Y-106344020D01*
X81184020Y-106490348D01*
X81069058Y-106662402D01*
X80989869Y-106853581D01*
X80949500Y-107056532D01*
X78000000Y-107056532D01*
X78000000Y-104516532D01*
X80949500Y-104516532D01*
X80949500Y-104723467D01*
X80989869Y-104926418D01*
X81069058Y-105117597D01*
X81145706Y-105232309D01*
X81184023Y-105289655D01*
X81330345Y-105435977D01*
X81502402Y-105550941D01*
X81693580Y-105630130D01*
X81896535Y-105670500D01*
X81896536Y-105670500D01*
X82103464Y-105670500D01*
X82103465Y-105670500D01*
X82306420Y-105630130D01*
X82497598Y-105550941D01*
X82669655Y-105435977D01*
X82815977Y-105289655D01*
X82930941Y-105117598D01*
X83010130Y-104926420D01*
X83050500Y-104723465D01*
X83050500Y-104516535D01*
X83010130Y-104313580D01*
X82930941Y-104122402D01*
X82815977Y-103950345D01*
X82669655Y-103804023D01*
X82669651Y-103804020D01*
X82497597Y-103689058D01*
X82306418Y-103609869D01*
X82103467Y-103569500D01*
X82103465Y-103569500D01*
X81896535Y-103569500D01*
X81896532Y-103569500D01*
X81693581Y-103609869D01*
X81502402Y-103689058D01*
X81330348Y-103804020D01*
X81184020Y-103950348D01*
X81069058Y-104122402D01*
X80989869Y-104313581D01*
X80949500Y-104516532D01*
X78000000Y-104516532D01*
X78000000Y-101976532D01*
X80949500Y-101976532D01*
X80949500Y-102183467D01*
X80989869Y-102386418D01*
X81069058Y-102577597D01*
X81184020Y-102749651D01*
X81184023Y-102749655D01*
X81330345Y-102895977D01*
X81502402Y-103010941D01*
X81693580Y-103090130D01*
X81896535Y-103130500D01*
X81896536Y-103130500D01*
X82103464Y-103130500D01*
X82103465Y-103130500D01*
X82306420Y-103090130D01*
X82417405Y-103044157D01*
X82478398Y-103039357D01*
X82525289Y-103065616D01*
X83070138Y-103610465D01*
X83070140Y-103610466D01*
X83070142Y-103610468D01*
X83144357Y-103653316D01*
X83144355Y-103653316D01*
X83144359Y-103653317D01*
X83144361Y-103653318D01*
X83227147Y-103675500D01*
X83312853Y-103675500D01*
X83759861Y-103675500D01*
X83818052Y-103694407D01*
X83854016Y-103743907D01*
X83854016Y-103805093D01*
X83829866Y-103844501D01*
X83768068Y-103906300D01*
X83724020Y-103950348D01*
X83609058Y-104122402D01*
X83529869Y-104313581D01*
X83489500Y-104516532D01*
X83489500Y-104723467D01*
X83529869Y-104926418D01*
X83609058Y-105117597D01*
X83685706Y-105232309D01*
X83724023Y-105289655D01*
X83870345Y-105435977D01*
X84042402Y-105550941D01*
X84233580Y-105630130D01*
X84436535Y-105670500D01*
X84436536Y-105670500D01*
X84643464Y-105670500D01*
X84643465Y-105670500D01*
X84846420Y-105630130D01*
X85037598Y-105550941D01*
X85209655Y-105435977D01*
X85355977Y-105289655D01*
X85470941Y-105117598D01*
X85550130Y-104926420D01*
X85590500Y-104723465D01*
X85590500Y-104516535D01*
X85550130Y-104313580D01*
X85470941Y-104122402D01*
X85355977Y-103950345D01*
X85250133Y-103844501D01*
X85222358Y-103789987D01*
X85231929Y-103729555D01*
X85275194Y-103686290D01*
X85320139Y-103675500D01*
X86209565Y-103675500D01*
X86267756Y-103694407D01*
X86279569Y-103704496D01*
X92687573Y-110112500D01*
X99009817Y-116434743D01*
X99037594Y-116489260D01*
X99028023Y-116549692D01*
X98987073Y-116590641D01*
X98987433Y-116591263D01*
X98985111Y-116592603D01*
X98984758Y-116592957D01*
X98983468Y-116593551D01*
X98867690Y-116660396D01*
X98774496Y-116753590D01*
X98708609Y-116867709D01*
X98705821Y-116878114D01*
X98674500Y-116995008D01*
X98674500Y-117126792D01*
X98677287Y-117137192D01*
X98708609Y-117254090D01*
X98774496Y-117368209D01*
X98774498Y-117368211D01*
X98774500Y-117368214D01*
X98867686Y-117461400D01*
X98867688Y-117461401D01*
X98867690Y-117461403D01*
X98981810Y-117527290D01*
X98981808Y-117527290D01*
X98981812Y-117527291D01*
X98981814Y-117527292D01*
X99109108Y-117561400D01*
X99109110Y-117561400D01*
X99240890Y-117561400D01*
X99240892Y-117561400D01*
X99368186Y-117527292D01*
X99368188Y-117527290D01*
X99368190Y-117527290D01*
X99482309Y-117461403D01*
X99482309Y-117461402D01*
X99482314Y-117461400D01*
X99575500Y-117368214D01*
X99575503Y-117368208D01*
X99579451Y-117363065D01*
X99581438Y-117364589D01*
X99618891Y-117330858D01*
X99679740Y-117324454D01*
X99732732Y-117355039D01*
X99744906Y-117371793D01*
X99807096Y-117479509D01*
X99807098Y-117479511D01*
X99807100Y-117479514D01*
X99900286Y-117572700D01*
X99900288Y-117572701D01*
X99900290Y-117572703D01*
X100014410Y-117638590D01*
X100014408Y-117638590D01*
X100014412Y-117638591D01*
X100014414Y-117638592D01*
X100141708Y-117672700D01*
X100141710Y-117672700D01*
X100273490Y-117672700D01*
X100273492Y-117672700D01*
X100400786Y-117638592D01*
X100400788Y-117638590D01*
X100400790Y-117638590D01*
X100514909Y-117572703D01*
X100514909Y-117572702D01*
X100514914Y-117572700D01*
X100608100Y-117479514D01*
X100612848Y-117471290D01*
X100673990Y-117365390D01*
X100673990Y-117365388D01*
X100673992Y-117365386D01*
X100708100Y-117238092D01*
X100708100Y-117106308D01*
X100681064Y-117005408D01*
X102672900Y-117005408D01*
X102672900Y-117137192D01*
X102698976Y-117234509D01*
X102707009Y-117264490D01*
X102772896Y-117378609D01*
X102772898Y-117378611D01*
X102772900Y-117378614D01*
X102866086Y-117471800D01*
X102866088Y-117471801D01*
X102866090Y-117471803D01*
X102980210Y-117537690D01*
X102980208Y-117537690D01*
X102980212Y-117537691D01*
X102980214Y-117537692D01*
X103107508Y-117571800D01*
X103107510Y-117571800D01*
X103239290Y-117571800D01*
X103239292Y-117571800D01*
X103366586Y-117537692D01*
X103366588Y-117537690D01*
X103366590Y-117537690D01*
X103480709Y-117471803D01*
X103480709Y-117471802D01*
X103480714Y-117471800D01*
X103573900Y-117378614D01*
X103577838Y-117371793D01*
X103639790Y-117264490D01*
X103639790Y-117264488D01*
X103639792Y-117264486D01*
X103673900Y-117137192D01*
X103673900Y-117005408D01*
X103639792Y-116878114D01*
X103639790Y-116878111D01*
X103639790Y-116878109D01*
X103573903Y-116763990D01*
X103573901Y-116763988D01*
X103573900Y-116763986D01*
X103480714Y-116670800D01*
X103480711Y-116670798D01*
X103480709Y-116670796D01*
X103366589Y-116604909D01*
X103366591Y-116604909D01*
X103313340Y-116590641D01*
X103239292Y-116570800D01*
X103107508Y-116570800D01*
X103033460Y-116590641D01*
X102980209Y-116604909D01*
X102866090Y-116670796D01*
X102772896Y-116763990D01*
X102707009Y-116878109D01*
X102691657Y-116935404D01*
X102672900Y-117005408D01*
X100681064Y-117005408D01*
X100673992Y-116979014D01*
X100669242Y-116970786D01*
X100608103Y-116864890D01*
X100608101Y-116864888D01*
X100608100Y-116864886D01*
X100514914Y-116771700D01*
X100514911Y-116771698D01*
X100514909Y-116771696D01*
X100400789Y-116705809D01*
X100400791Y-116705809D01*
X100351399Y-116692575D01*
X100273492Y-116671700D01*
X100273490Y-116671700D01*
X100208434Y-116671700D01*
X100150243Y-116652793D01*
X100138430Y-116642704D01*
X93382516Y-109886790D01*
X90629834Y-107134108D01*
X91699500Y-107134108D01*
X91699500Y-107265892D01*
X91712259Y-107313508D01*
X91733609Y-107393190D01*
X91799496Y-107507309D01*
X91799498Y-107507311D01*
X91799500Y-107507314D01*
X91892686Y-107600500D01*
X91892688Y-107600501D01*
X91892690Y-107600503D01*
X92006810Y-107666390D01*
X92006808Y-107666390D01*
X92006812Y-107666391D01*
X92006814Y-107666392D01*
X92134108Y-107700500D01*
X92134110Y-107700500D01*
X92265890Y-107700500D01*
X92265892Y-107700500D01*
X92393186Y-107666392D01*
X92393188Y-107666390D01*
X92393190Y-107666390D01*
X92507309Y-107600503D01*
X92507309Y-107600502D01*
X92507314Y-107600500D01*
X92600500Y-107507314D01*
X92624110Y-107466420D01*
X92666390Y-107393190D01*
X92666390Y-107393188D01*
X92666392Y-107393186D01*
X92700500Y-107265892D01*
X92700500Y-107134108D01*
X92666392Y-107006814D01*
X92666390Y-107006811D01*
X92666390Y-107006809D01*
X92600503Y-106892690D01*
X92600501Y-106892688D01*
X92600500Y-106892686D01*
X92507314Y-106799500D01*
X92507311Y-106799498D01*
X92507309Y-106799496D01*
X92393189Y-106733609D01*
X92393191Y-106733609D01*
X92343799Y-106720375D01*
X92265892Y-106699500D01*
X92134108Y-106699500D01*
X92056200Y-106720375D01*
X92006809Y-106733609D01*
X91892690Y-106799496D01*
X91799496Y-106892690D01*
X91733609Y-107006809D01*
X91714539Y-107077978D01*
X91699500Y-107134108D01*
X90629834Y-107134108D01*
X86585262Y-103089535D01*
X86585259Y-103089533D01*
X86585257Y-103089531D01*
X86511042Y-103046683D01*
X86511044Y-103046683D01*
X86478921Y-103038076D01*
X86428253Y-103024500D01*
X86428251Y-103024500D01*
X85320139Y-103024500D01*
X85261948Y-103005593D01*
X85225984Y-102956093D01*
X85225984Y-102894907D01*
X85250133Y-102855498D01*
X85355977Y-102749655D01*
X85470941Y-102577598D01*
X85504160Y-102497402D01*
X85516913Y-102466614D01*
X85556650Y-102420088D01*
X85608377Y-102405500D01*
X89696065Y-102405500D01*
X89754256Y-102424407D01*
X89766069Y-102434496D01*
X104295504Y-116963930D01*
X104323281Y-117018447D01*
X104324500Y-117033934D01*
X104324500Y-117098992D01*
X104334735Y-117137190D01*
X104358609Y-117226290D01*
X104424496Y-117340409D01*
X104424498Y-117340411D01*
X104424500Y-117340414D01*
X104517686Y-117433600D01*
X104517688Y-117433601D01*
X104517690Y-117433603D01*
X104631810Y-117499490D01*
X104631808Y-117499490D01*
X104631812Y-117499491D01*
X104631814Y-117499492D01*
X104759108Y-117533600D01*
X104759110Y-117533600D01*
X104890890Y-117533600D01*
X104890892Y-117533600D01*
X105018186Y-117499492D01*
X105018188Y-117499490D01*
X105018190Y-117499490D01*
X105132309Y-117433603D01*
X105132309Y-117433602D01*
X105132314Y-117433600D01*
X105225500Y-117340414D01*
X105269337Y-117264486D01*
X105291390Y-117226290D01*
X105291390Y-117226288D01*
X105291392Y-117226286D01*
X105325500Y-117098992D01*
X105325500Y-116967208D01*
X105291392Y-116839914D01*
X105291390Y-116839911D01*
X105291390Y-116839909D01*
X105225503Y-116725790D01*
X105225501Y-116725788D01*
X105225500Y-116725786D01*
X105132314Y-116632600D01*
X105132311Y-116632598D01*
X105132309Y-116632596D01*
X105018189Y-116566709D01*
X105018191Y-116566709D01*
X104968799Y-116553475D01*
X104890892Y-116532600D01*
X104890890Y-116532600D01*
X104825834Y-116532600D01*
X104767643Y-116513693D01*
X104755830Y-116503604D01*
X100117534Y-111865308D01*
X101499500Y-111865308D01*
X101499500Y-111997092D01*
X101529579Y-112109351D01*
X101533609Y-112124390D01*
X101599496Y-112238509D01*
X101599498Y-112238511D01*
X101599500Y-112238514D01*
X101692686Y-112331700D01*
X101692688Y-112331701D01*
X101692690Y-112331703D01*
X101806810Y-112397590D01*
X101806808Y-112397590D01*
X101806812Y-112397591D01*
X101806814Y-112397592D01*
X101934108Y-112431700D01*
X101934110Y-112431700D01*
X102065890Y-112431700D01*
X102065892Y-112431700D01*
X102193186Y-112397592D01*
X102193188Y-112397590D01*
X102193190Y-112397590D01*
X102307309Y-112331703D01*
X102307309Y-112331702D01*
X102307314Y-112331700D01*
X102400500Y-112238514D01*
X102401770Y-112236314D01*
X102412415Y-112217877D01*
X102457883Y-112176935D01*
X102518733Y-112170538D01*
X102571722Y-112201130D01*
X102583888Y-112217874D01*
X102599498Y-112244911D01*
X102599500Y-112244914D01*
X102692686Y-112338100D01*
X102692688Y-112338101D01*
X102692690Y-112338103D01*
X102806810Y-112403990D01*
X102806808Y-112403990D01*
X102806812Y-112403991D01*
X102806814Y-112403992D01*
X102934108Y-112438100D01*
X102934110Y-112438100D01*
X103065890Y-112438100D01*
X103065892Y-112438100D01*
X103193186Y-112403992D01*
X103280400Y-112353638D01*
X103340248Y-112340917D01*
X103396143Y-112365803D01*
X103426736Y-112418791D01*
X103428900Y-112439375D01*
X103428900Y-113561547D01*
X103428900Y-113647253D01*
X103438773Y-113684100D01*
X103451083Y-113730043D01*
X103493931Y-113804257D01*
X103493933Y-113804259D01*
X103493935Y-113804262D01*
X106112405Y-116422732D01*
X106140181Y-116477247D01*
X106141400Y-116492734D01*
X106141400Y-118284778D01*
X106122493Y-118342969D01*
X106112404Y-118354781D01*
X106066400Y-118400784D01*
X106066396Y-118400790D01*
X106000509Y-118514909D01*
X106000508Y-118514914D01*
X105966400Y-118642208D01*
X105966400Y-118773992D01*
X105986731Y-118849869D01*
X106000509Y-118901290D01*
X106066396Y-119015409D01*
X106066398Y-119015411D01*
X106066400Y-119015414D01*
X106159586Y-119108600D01*
X106159588Y-119108601D01*
X106159590Y-119108603D01*
X106273710Y-119174490D01*
X106273708Y-119174490D01*
X106273712Y-119174491D01*
X106273714Y-119174492D01*
X106401008Y-119208600D01*
X106401010Y-119208600D01*
X106532790Y-119208600D01*
X106532792Y-119208600D01*
X106660086Y-119174492D01*
X106660088Y-119174490D01*
X106660090Y-119174490D01*
X106774209Y-119108603D01*
X106774209Y-119108602D01*
X106774214Y-119108600D01*
X106867400Y-119015414D01*
X106933292Y-118901286D01*
X106967400Y-118773992D01*
X106967400Y-118642208D01*
X121966400Y-118642208D01*
X121966400Y-118773992D01*
X121986731Y-118849869D01*
X122000509Y-118901290D01*
X122066396Y-119015409D01*
X122066398Y-119015411D01*
X122066400Y-119015414D01*
X122159586Y-119108600D01*
X122159588Y-119108601D01*
X122159590Y-119108603D01*
X122273710Y-119174490D01*
X122273708Y-119174490D01*
X122273712Y-119174491D01*
X122273714Y-119174492D01*
X122401008Y-119208600D01*
X122401010Y-119208600D01*
X122532790Y-119208600D01*
X122532792Y-119208600D01*
X122660086Y-119174492D01*
X122660088Y-119174490D01*
X122660090Y-119174490D01*
X122774209Y-119108603D01*
X122774209Y-119108602D01*
X122774214Y-119108600D01*
X122867400Y-119015414D01*
X122933292Y-118901286D01*
X122967400Y-118773992D01*
X122967400Y-118642208D01*
X122933292Y-118514914D01*
X122933290Y-118514911D01*
X122933290Y-118514909D01*
X122867403Y-118400790D01*
X122867401Y-118400788D01*
X122867400Y-118400786D01*
X122774214Y-118307600D01*
X122774211Y-118307598D01*
X122774209Y-118307596D01*
X122660089Y-118241709D01*
X122660091Y-118241709D01*
X122610699Y-118228475D01*
X122532792Y-118207600D01*
X122401008Y-118207600D01*
X122323100Y-118228475D01*
X122273709Y-118241709D01*
X122159590Y-118307596D01*
X122066396Y-118400790D01*
X122000509Y-118514909D01*
X122000508Y-118514914D01*
X121966400Y-118642208D01*
X106967400Y-118642208D01*
X106933292Y-118514914D01*
X106933290Y-118514911D01*
X106933290Y-118514909D01*
X106867403Y-118400790D01*
X106867399Y-118400784D01*
X106821396Y-118354781D01*
X106793619Y-118300264D01*
X106792400Y-118284778D01*
X106792400Y-117934108D01*
X117819500Y-117934108D01*
X117819500Y-118065892D01*
X117840286Y-118143467D01*
X117853609Y-118193190D01*
X117919496Y-118307309D01*
X117919498Y-118307311D01*
X117919500Y-118307314D01*
X118012686Y-118400500D01*
X118012688Y-118400501D01*
X118012690Y-118400503D01*
X118126810Y-118466390D01*
X118126808Y-118466390D01*
X118126812Y-118466391D01*
X118126814Y-118466392D01*
X118254108Y-118500500D01*
X118254110Y-118500500D01*
X118385890Y-118500500D01*
X118385892Y-118500500D01*
X118513186Y-118466392D01*
X118513188Y-118466390D01*
X118513190Y-118466390D01*
X118627309Y-118400503D01*
X118627309Y-118400502D01*
X118627314Y-118400500D01*
X118720500Y-118307314D01*
X118786392Y-118193186D01*
X118820500Y-118065892D01*
X118820500Y-117936532D01*
X132949500Y-117936532D01*
X132949500Y-118143467D01*
X132989869Y-118346418D01*
X133069058Y-118537597D01*
X133138957Y-118642209D01*
X133184023Y-118709655D01*
X133330345Y-118855977D01*
X133502402Y-118970941D01*
X133693580Y-119050130D01*
X133896535Y-119090500D01*
X133896536Y-119090500D01*
X134103464Y-119090500D01*
X134103465Y-119090500D01*
X134306420Y-119050130D01*
X134497598Y-118970941D01*
X134669655Y-118855977D01*
X134815977Y-118709655D01*
X134930941Y-118537598D01*
X135010130Y-118346420D01*
X135050500Y-118143465D01*
X135050500Y-117936535D01*
X135010130Y-117733580D01*
X134930941Y-117542402D01*
X134815977Y-117370345D01*
X134669655Y-117224023D01*
X134669651Y-117224020D01*
X134497597Y-117109058D01*
X134306418Y-117029869D01*
X134103467Y-116989500D01*
X134103465Y-116989500D01*
X133896535Y-116989500D01*
X133896532Y-116989500D01*
X133693581Y-117029869D01*
X133502402Y-117109058D01*
X133330348Y-117224020D01*
X133184020Y-117370348D01*
X133069058Y-117542402D01*
X132989869Y-117733581D01*
X132949500Y-117936532D01*
X118820500Y-117936532D01*
X118820500Y-117934108D01*
X118786392Y-117806814D01*
X118786390Y-117806811D01*
X118786390Y-117806809D01*
X118720503Y-117692690D01*
X118720501Y-117692688D01*
X118720500Y-117692686D01*
X118627314Y-117599500D01*
X118627311Y-117599498D01*
X118627309Y-117599496D01*
X118513189Y-117533609D01*
X118513191Y-117533609D01*
X118463799Y-117520375D01*
X118385892Y-117499500D01*
X118254108Y-117499500D01*
X118176200Y-117520375D01*
X118126809Y-117533609D01*
X118012690Y-117599496D01*
X117919496Y-117692690D01*
X117853609Y-117806809D01*
X117850718Y-117817598D01*
X117819500Y-117934108D01*
X106792400Y-117934108D01*
X106792400Y-117224008D01*
X107614400Y-117224008D01*
X107614400Y-117355792D01*
X107635249Y-117433603D01*
X107648509Y-117483090D01*
X107714396Y-117597209D01*
X107714398Y-117597211D01*
X107714400Y-117597214D01*
X107807586Y-117690400D01*
X107807588Y-117690401D01*
X107807590Y-117690403D01*
X107921710Y-117756290D01*
X107921708Y-117756290D01*
X107921712Y-117756291D01*
X107921714Y-117756292D01*
X108049008Y-117790400D01*
X108049010Y-117790400D01*
X108180790Y-117790400D01*
X108180792Y-117790400D01*
X108308086Y-117756292D01*
X108308088Y-117756290D01*
X108308090Y-117756290D01*
X108422209Y-117690403D01*
X108422209Y-117690402D01*
X108422214Y-117690400D01*
X108515400Y-117597214D01*
X108522216Y-117585409D01*
X108581290Y-117483090D01*
X108581290Y-117483088D01*
X108581292Y-117483086D01*
X108615400Y-117355792D01*
X108615400Y-117224008D01*
X108581292Y-117096714D01*
X108581290Y-117096711D01*
X108581290Y-117096709D01*
X108515403Y-116982590D01*
X108515401Y-116982588D01*
X108515400Y-116982586D01*
X108422214Y-116889400D01*
X108422211Y-116889398D01*
X108422209Y-116889396D01*
X108308089Y-116823509D01*
X108308091Y-116823509D01*
X108258699Y-116810275D01*
X108180792Y-116789400D01*
X108049008Y-116789400D01*
X107971100Y-116810275D01*
X107921709Y-116823509D01*
X107807590Y-116889396D01*
X107714396Y-116982590D01*
X107648509Y-117096709D01*
X107637662Y-117137192D01*
X107614400Y-117224008D01*
X106792400Y-117224008D01*
X106792400Y-116274048D01*
X106792400Y-116274047D01*
X106770218Y-116191262D01*
X106727365Y-116117038D01*
X106727362Y-116117035D01*
X106666762Y-116056434D01*
X106666762Y-116056435D01*
X104108896Y-113498569D01*
X104081119Y-113444052D01*
X104079900Y-113428565D01*
X104079900Y-112435856D01*
X104098807Y-112377665D01*
X104148307Y-112341701D01*
X104209493Y-112341701D01*
X104228400Y-112350120D01*
X104306810Y-112395390D01*
X104306808Y-112395390D01*
X104306812Y-112395391D01*
X104306814Y-112395392D01*
X104434108Y-112429500D01*
X104499165Y-112429500D01*
X104557356Y-112448407D01*
X104569169Y-112458496D01*
X109600435Y-117489762D01*
X109600434Y-117489762D01*
X109637963Y-117527290D01*
X109661038Y-117550365D01*
X109735262Y-117593218D01*
X109818047Y-117615400D01*
X109903752Y-117615400D01*
X110041578Y-117615400D01*
X110099769Y-117634307D01*
X110111581Y-117644396D01*
X110157584Y-117690399D01*
X110157590Y-117690403D01*
X110271710Y-117756290D01*
X110271708Y-117756290D01*
X110271712Y-117756291D01*
X110271714Y-117756292D01*
X110399008Y-117790400D01*
X110399010Y-117790400D01*
X110530790Y-117790400D01*
X110530792Y-117790400D01*
X110658086Y-117756292D01*
X110658088Y-117756290D01*
X110658090Y-117756290D01*
X110772209Y-117690403D01*
X110772209Y-117690402D01*
X110772214Y-117690400D01*
X110865400Y-117597214D01*
X110872216Y-117585409D01*
X110931290Y-117483090D01*
X110931290Y-117483088D01*
X110931292Y-117483086D01*
X110965400Y-117355792D01*
X110965400Y-117225208D01*
X111615600Y-117225208D01*
X111615600Y-117356992D01*
X111621394Y-117378614D01*
X111649709Y-117484290D01*
X111715596Y-117598409D01*
X111715598Y-117598411D01*
X111715600Y-117598414D01*
X111808786Y-117691600D01*
X111808788Y-117691601D01*
X111808790Y-117691603D01*
X111922910Y-117757490D01*
X111922908Y-117757490D01*
X111922912Y-117757491D01*
X111922914Y-117757492D01*
X112050208Y-117791600D01*
X112050210Y-117791600D01*
X112181990Y-117791600D01*
X112181992Y-117791600D01*
X112309286Y-117757492D01*
X112309288Y-117757490D01*
X112309290Y-117757490D01*
X112423409Y-117691603D01*
X112423409Y-117691602D01*
X112423414Y-117691600D01*
X112516600Y-117598414D01*
X112519600Y-117593218D01*
X112582490Y-117484290D01*
X112582490Y-117484288D01*
X112582492Y-117484286D01*
X112616600Y-117356992D01*
X112616600Y-117225208D01*
X112616278Y-117224008D01*
X113964400Y-117224008D01*
X113964400Y-117355792D01*
X113985249Y-117433603D01*
X113998509Y-117483090D01*
X114064396Y-117597209D01*
X114064398Y-117597211D01*
X114064400Y-117597214D01*
X114157586Y-117690400D01*
X114157588Y-117690401D01*
X114157590Y-117690403D01*
X114271710Y-117756290D01*
X114271708Y-117756290D01*
X114271712Y-117756291D01*
X114271714Y-117756292D01*
X114399008Y-117790400D01*
X114399010Y-117790400D01*
X114530790Y-117790400D01*
X114530792Y-117790400D01*
X114658086Y-117756292D01*
X114658088Y-117756290D01*
X114658090Y-117756290D01*
X114772209Y-117690403D01*
X114772209Y-117690402D01*
X114772214Y-117690400D01*
X114865400Y-117597214D01*
X114872216Y-117585409D01*
X114931290Y-117483090D01*
X114931290Y-117483088D01*
X114931292Y-117483086D01*
X114965400Y-117355792D01*
X114965400Y-117224008D01*
X114962238Y-117212208D01*
X115623400Y-117212208D01*
X115623400Y-117343992D01*
X115632676Y-117378609D01*
X115657509Y-117471290D01*
X115723396Y-117585409D01*
X115723398Y-117585411D01*
X115723400Y-117585414D01*
X115816586Y-117678600D01*
X115816588Y-117678601D01*
X115816590Y-117678603D01*
X115930710Y-117744490D01*
X115930708Y-117744490D01*
X115930712Y-117744491D01*
X115930714Y-117744492D01*
X116058008Y-117778600D01*
X116058010Y-117778600D01*
X116189790Y-117778600D01*
X116189792Y-117778600D01*
X116317086Y-117744492D01*
X116317088Y-117744490D01*
X116317090Y-117744490D01*
X116431209Y-117678603D01*
X116431209Y-117678602D01*
X116431214Y-117678600D01*
X116524400Y-117585414D01*
X116531739Y-117572703D01*
X116590290Y-117471290D01*
X116590290Y-117471288D01*
X116590292Y-117471286D01*
X116624400Y-117343992D01*
X116624400Y-117224808D01*
X119615200Y-117224808D01*
X119615200Y-117356592D01*
X119633119Y-117423467D01*
X119649309Y-117483890D01*
X119715196Y-117598009D01*
X119715198Y-117598011D01*
X119715200Y-117598014D01*
X119808386Y-117691200D01*
X119808388Y-117691201D01*
X119808390Y-117691203D01*
X119922510Y-117757090D01*
X119922508Y-117757090D01*
X119922512Y-117757091D01*
X119922514Y-117757092D01*
X120049808Y-117791200D01*
X120049810Y-117791200D01*
X120181590Y-117791200D01*
X120181592Y-117791200D01*
X120308886Y-117757092D01*
X120308888Y-117757090D01*
X120308890Y-117757090D01*
X120423009Y-117691203D01*
X120423009Y-117691202D01*
X120423014Y-117691200D01*
X120516200Y-117598014D01*
X120523478Y-117585409D01*
X120582090Y-117483890D01*
X120582090Y-117483888D01*
X120582092Y-117483886D01*
X120616200Y-117356592D01*
X120616200Y-117234508D01*
X123624900Y-117234508D01*
X123624900Y-117366292D01*
X123640220Y-117423467D01*
X123659009Y-117493590D01*
X123724896Y-117607709D01*
X123724898Y-117607711D01*
X123724900Y-117607714D01*
X123818086Y-117700900D01*
X123818088Y-117700901D01*
X123818090Y-117700903D01*
X123932210Y-117766790D01*
X123932208Y-117766790D01*
X123932212Y-117766791D01*
X123932214Y-117766792D01*
X124059508Y-117800900D01*
X124059510Y-117800900D01*
X124191290Y-117800900D01*
X124191292Y-117800900D01*
X124318586Y-117766792D01*
X124318588Y-117766790D01*
X124318590Y-117766790D01*
X124432709Y-117700903D01*
X124432709Y-117700902D01*
X124432714Y-117700900D01*
X124525900Y-117607714D01*
X124530645Y-117599496D01*
X124591790Y-117493590D01*
X124591790Y-117493588D01*
X124591792Y-117493586D01*
X124625900Y-117366292D01*
X124625900Y-117234508D01*
X124591792Y-117107214D01*
X124591790Y-117107211D01*
X124591790Y-117107209D01*
X124525903Y-116993090D01*
X124525901Y-116993088D01*
X124525900Y-116993086D01*
X124432714Y-116899900D01*
X124432711Y-116899898D01*
X124432709Y-116899896D01*
X124318589Y-116834009D01*
X124318591Y-116834009D01*
X124269199Y-116820775D01*
X124191292Y-116799900D01*
X124059508Y-116799900D01*
X123981600Y-116820775D01*
X123932209Y-116834009D01*
X123818090Y-116899896D01*
X123724896Y-116993090D01*
X123659009Y-117107209D01*
X123650976Y-117137190D01*
X123624900Y-117234508D01*
X120616200Y-117234508D01*
X120616200Y-117224808D01*
X120582092Y-117097514D01*
X120582090Y-117097511D01*
X120582090Y-117097509D01*
X120516203Y-116983390D01*
X120516201Y-116983388D01*
X120516200Y-116983386D01*
X120423014Y-116890200D01*
X120423011Y-116890198D01*
X120423009Y-116890196D01*
X120308889Y-116824309D01*
X120308891Y-116824309D01*
X120259499Y-116811075D01*
X120181592Y-116790200D01*
X120049808Y-116790200D01*
X119971900Y-116811075D01*
X119922509Y-116824309D01*
X119808390Y-116890196D01*
X119715196Y-116983390D01*
X119649309Y-117097509D01*
X119638677Y-117137190D01*
X119615200Y-117224808D01*
X116624400Y-117224808D01*
X116624400Y-117212208D01*
X116590292Y-117084914D01*
X116590290Y-117084911D01*
X116590290Y-117084909D01*
X116524403Y-116970790D01*
X116524401Y-116970788D01*
X116524400Y-116970786D01*
X116431214Y-116877600D01*
X116431211Y-116877598D01*
X116431209Y-116877596D01*
X116317089Y-116811709D01*
X116317091Y-116811709D01*
X116267699Y-116798475D01*
X116189792Y-116777600D01*
X116058008Y-116777600D01*
X115980100Y-116798475D01*
X115930709Y-116811709D01*
X115816590Y-116877596D01*
X115723396Y-116970790D01*
X115657509Y-117084909D01*
X115651038Y-117109059D01*
X115623400Y-117212208D01*
X114962238Y-117212208D01*
X114931292Y-117096714D01*
X114931290Y-117096711D01*
X114931290Y-117096709D01*
X114865403Y-116982590D01*
X114865401Y-116982588D01*
X114865400Y-116982586D01*
X114772214Y-116889400D01*
X114772211Y-116889398D01*
X114772209Y-116889396D01*
X114658089Y-116823509D01*
X114658091Y-116823509D01*
X114608699Y-116810275D01*
X114530792Y-116789400D01*
X114399008Y-116789400D01*
X114321100Y-116810275D01*
X114271709Y-116823509D01*
X114157590Y-116889396D01*
X114064396Y-116982590D01*
X113998509Y-117096709D01*
X113987662Y-117137192D01*
X113964400Y-117224008D01*
X112616278Y-117224008D01*
X112582492Y-117097914D01*
X112582490Y-117097911D01*
X112582490Y-117097909D01*
X112516603Y-116983790D01*
X112516601Y-116983788D01*
X112516600Y-116983786D01*
X112423414Y-116890600D01*
X112423411Y-116890598D01*
X112423409Y-116890596D01*
X112309289Y-116824709D01*
X112309291Y-116824709D01*
X112259899Y-116811475D01*
X112181992Y-116790600D01*
X112050208Y-116790600D01*
X111972300Y-116811475D01*
X111922909Y-116824709D01*
X111808790Y-116890596D01*
X111715596Y-116983790D01*
X111649709Y-117097909D01*
X111630639Y-117169078D01*
X111615600Y-117225208D01*
X110965400Y-117225208D01*
X110965400Y-117224008D01*
X110931292Y-117096714D01*
X110931290Y-117096711D01*
X110931290Y-117096709D01*
X110865403Y-116982590D01*
X110865401Y-116982588D01*
X110865400Y-116982586D01*
X110772214Y-116889400D01*
X110772211Y-116889398D01*
X110772209Y-116889396D01*
X110658089Y-116823509D01*
X110658091Y-116823509D01*
X110608699Y-116810275D01*
X110530792Y-116789400D01*
X110399008Y-116789400D01*
X110321100Y-116810275D01*
X110271709Y-116823509D01*
X110157590Y-116889396D01*
X110157584Y-116889400D01*
X110111581Y-116935404D01*
X110057064Y-116963181D01*
X110041578Y-116964400D01*
X110036735Y-116964400D01*
X109978544Y-116945493D01*
X109966731Y-116935404D01*
X107898335Y-114867008D01*
X128324499Y-114867008D01*
X128324499Y-114998792D01*
X128347978Y-115086418D01*
X128358608Y-115126090D01*
X128424495Y-115240209D01*
X128424497Y-115240211D01*
X128424499Y-115240214D01*
X128517685Y-115333400D01*
X128517687Y-115333401D01*
X128517689Y-115333403D01*
X128631809Y-115399290D01*
X128631807Y-115399290D01*
X128631811Y-115399291D01*
X128631813Y-115399292D01*
X128759107Y-115433400D01*
X128759109Y-115433400D01*
X128890889Y-115433400D01*
X128890891Y-115433400D01*
X129018185Y-115399292D01*
X129018187Y-115399290D01*
X129018189Y-115399290D01*
X129132308Y-115333403D01*
X129132308Y-115333402D01*
X129132313Y-115333400D01*
X129225499Y-115240214D01*
X129291391Y-115126086D01*
X129325499Y-114998792D01*
X129325499Y-114867008D01*
X129291391Y-114739714D01*
X129291389Y-114739711D01*
X129291389Y-114739709D01*
X129225502Y-114625590D01*
X129225500Y-114625588D01*
X129225499Y-114625586D01*
X129132313Y-114532400D01*
X129132310Y-114532398D01*
X129132308Y-114532396D01*
X129018188Y-114466509D01*
X129018190Y-114466509D01*
X128968798Y-114453275D01*
X128890891Y-114432400D01*
X128759107Y-114432400D01*
X128681199Y-114453275D01*
X128631808Y-114466509D01*
X128517689Y-114532396D01*
X128424495Y-114625590D01*
X128358608Y-114739709D01*
X128351537Y-114766099D01*
X128324499Y-114867008D01*
X107898335Y-114867008D01*
X107231035Y-114199708D01*
X115940100Y-114199708D01*
X115940100Y-114331492D01*
X115967138Y-114432400D01*
X115974209Y-114458790D01*
X116040096Y-114572909D01*
X116040098Y-114572911D01*
X116040100Y-114572914D01*
X116133286Y-114666100D01*
X116133288Y-114666101D01*
X116133290Y-114666103D01*
X116247410Y-114731990D01*
X116247408Y-114731990D01*
X116247412Y-114731991D01*
X116247414Y-114731992D01*
X116374708Y-114766100D01*
X116374710Y-114766100D01*
X116506491Y-114766100D01*
X116506492Y-114766100D01*
X116633786Y-114731992D01*
X116633788Y-114731990D01*
X116633790Y-114731990D01*
X116747909Y-114666103D01*
X116747909Y-114666102D01*
X116747914Y-114666100D01*
X116841100Y-114572914D01*
X116906992Y-114458786D01*
X116941100Y-114331492D01*
X116941100Y-114199708D01*
X116906992Y-114072414D01*
X116906990Y-114072411D01*
X116906990Y-114072409D01*
X116841103Y-113958290D01*
X116841101Y-113958288D01*
X116841100Y-113958286D01*
X116747914Y-113865100D01*
X116747911Y-113865098D01*
X116747909Y-113865096D01*
X116633789Y-113799209D01*
X116633791Y-113799209D01*
X116584399Y-113785975D01*
X116506492Y-113765100D01*
X116374708Y-113765100D01*
X116296800Y-113785975D01*
X116247409Y-113799209D01*
X116133290Y-113865096D01*
X116040096Y-113958290D01*
X115974209Y-114072409D01*
X115964044Y-114110348D01*
X115940100Y-114199708D01*
X107231035Y-114199708D01*
X105552373Y-112521046D01*
X105524596Y-112466529D01*
X105534167Y-112406097D01*
X105572875Y-112365307D01*
X105628314Y-112333300D01*
X105721500Y-112240114D01*
X105740968Y-112206394D01*
X105787390Y-112125990D01*
X105787390Y-112125988D01*
X105787392Y-112125986D01*
X105821500Y-111998692D01*
X105821500Y-111887108D01*
X110032500Y-111887108D01*
X110032500Y-112018892D01*
X110061197Y-112125990D01*
X110066609Y-112146190D01*
X110132496Y-112260309D01*
X110132498Y-112260311D01*
X110132500Y-112260314D01*
X110225686Y-112353500D01*
X110225688Y-112353501D01*
X110225690Y-112353503D01*
X110339810Y-112419390D01*
X110339808Y-112419390D01*
X110339812Y-112419391D01*
X110339814Y-112419392D01*
X110467108Y-112453500D01*
X110467110Y-112453500D01*
X110598890Y-112453500D01*
X110598892Y-112453500D01*
X110726186Y-112419392D01*
X110726188Y-112419390D01*
X110726190Y-112419390D01*
X110840309Y-112353503D01*
X110840309Y-112353502D01*
X110840314Y-112353500D01*
X110933500Y-112260314D01*
X110954964Y-112223136D01*
X111000433Y-112182197D01*
X111061283Y-112175801D01*
X111114271Y-112206394D01*
X111139158Y-112262289D01*
X111139700Y-112272638D01*
X111139700Y-112290992D01*
X111162924Y-112377665D01*
X111173809Y-112418290D01*
X111239696Y-112532409D01*
X111239698Y-112532411D01*
X111239700Y-112532414D01*
X111332886Y-112625600D01*
X111332888Y-112625601D01*
X111332890Y-112625603D01*
X111447010Y-112691490D01*
X111447008Y-112691490D01*
X111447012Y-112691491D01*
X111447014Y-112691492D01*
X111574308Y-112725600D01*
X111574310Y-112725600D01*
X111706090Y-112725600D01*
X111706092Y-112725600D01*
X111833386Y-112691492D01*
X111833388Y-112691490D01*
X111833390Y-112691490D01*
X111947509Y-112625603D01*
X111947509Y-112625602D01*
X111947514Y-112625600D01*
X112040700Y-112532414D01*
X112089202Y-112448407D01*
X112106590Y-112418290D01*
X112106590Y-112418288D01*
X112106592Y-112418286D01*
X112140700Y-112290992D01*
X112140700Y-112159208D01*
X112106592Y-112031914D01*
X112106590Y-112031911D01*
X112106590Y-112031909D01*
X112040703Y-111917790D01*
X112040701Y-111917788D01*
X112040700Y-111917786D01*
X111947514Y-111824600D01*
X111947511Y-111824598D01*
X111947509Y-111824596D01*
X111833389Y-111758709D01*
X111833391Y-111758709D01*
X111783999Y-111745475D01*
X111706092Y-111724600D01*
X111574308Y-111724600D01*
X111496400Y-111745475D01*
X111447009Y-111758709D01*
X111332890Y-111824596D01*
X111239696Y-111917790D01*
X111218236Y-111954961D01*
X111172766Y-111995902D01*
X111111916Y-112002298D01*
X111058928Y-111971705D01*
X111034042Y-111915809D01*
X111033500Y-111905461D01*
X111033500Y-111887109D01*
X111028373Y-111867975D01*
X110999392Y-111759814D01*
X110999390Y-111759811D01*
X110999390Y-111759809D01*
X110933503Y-111645690D01*
X110933501Y-111645688D01*
X110933500Y-111645686D01*
X110840314Y-111552500D01*
X110840311Y-111552498D01*
X110840309Y-111552496D01*
X110726189Y-111486609D01*
X110726191Y-111486609D01*
X110676799Y-111473375D01*
X110598892Y-111452500D01*
X110467108Y-111452500D01*
X110389200Y-111473375D01*
X110339809Y-111486609D01*
X110225690Y-111552496D01*
X110132496Y-111645690D01*
X110066609Y-111759809D01*
X110066608Y-111759814D01*
X110032500Y-111887108D01*
X105821500Y-111887108D01*
X105821500Y-111866908D01*
X105787392Y-111739614D01*
X105787390Y-111739611D01*
X105787390Y-111739609D01*
X105721503Y-111625490D01*
X105721501Y-111625488D01*
X105721500Y-111625486D01*
X105628314Y-111532300D01*
X105628311Y-111532298D01*
X105628309Y-111532296D01*
X105514189Y-111466409D01*
X105514191Y-111466409D01*
X105462280Y-111452500D01*
X105386892Y-111432300D01*
X105255108Y-111432300D01*
X105179720Y-111452500D01*
X105127809Y-111466409D01*
X105013690Y-111532296D01*
X105013689Y-111532297D01*
X105013686Y-111532299D01*
X105013686Y-111532300D01*
X104982401Y-111563584D01*
X104927887Y-111591360D01*
X104867455Y-111581789D01*
X104842399Y-111563585D01*
X104807314Y-111528500D01*
X104807311Y-111528498D01*
X104807309Y-111528496D01*
X104693189Y-111462609D01*
X104693191Y-111462609D01*
X104643799Y-111449375D01*
X104565892Y-111428500D01*
X104434108Y-111428500D01*
X104370461Y-111445554D01*
X104306812Y-111462608D01*
X104228400Y-111507880D01*
X104168551Y-111520601D01*
X104112656Y-111495714D01*
X104082063Y-111442726D01*
X104079900Y-111422143D01*
X104079900Y-110631948D01*
X104079630Y-110630941D01*
X104057718Y-110549162D01*
X104014865Y-110474938D01*
X104004417Y-110464490D01*
X103954262Y-110414334D01*
X103954262Y-110414335D01*
X103086035Y-109546108D01*
X112706300Y-109546108D01*
X112706300Y-109677892D01*
X112719650Y-109727714D01*
X112740409Y-109805190D01*
X112806296Y-109919309D01*
X112806298Y-109919311D01*
X112806300Y-109919314D01*
X112899486Y-110012500D01*
X112899488Y-110012501D01*
X112899490Y-110012503D01*
X113013610Y-110078390D01*
X113013608Y-110078390D01*
X113013612Y-110078391D01*
X113013614Y-110078392D01*
X113140908Y-110112500D01*
X113140910Y-110112500D01*
X113272690Y-110112500D01*
X113272692Y-110112500D01*
X113399986Y-110078392D01*
X113399988Y-110078390D01*
X113399990Y-110078390D01*
X113514109Y-110012503D01*
X113514109Y-110012502D01*
X113514114Y-110012500D01*
X113594406Y-109932208D01*
X116169800Y-109932208D01*
X116169800Y-110063992D01*
X116176097Y-110087492D01*
X116203909Y-110191290D01*
X116269796Y-110305409D01*
X116269798Y-110305411D01*
X116269800Y-110305414D01*
X116362986Y-110398600D01*
X116362988Y-110398601D01*
X116362990Y-110398603D01*
X116477110Y-110464490D01*
X116477108Y-110464490D01*
X116477112Y-110464491D01*
X116477114Y-110464492D01*
X116604408Y-110498600D01*
X116604410Y-110498600D01*
X116736190Y-110498600D01*
X116736192Y-110498600D01*
X116863486Y-110464492D01*
X116863488Y-110464490D01*
X116863490Y-110464490D01*
X116977609Y-110398603D01*
X116977609Y-110398602D01*
X116977614Y-110398600D01*
X117070800Y-110305414D01*
X117133048Y-110197598D01*
X117136690Y-110191290D01*
X117136690Y-110191288D01*
X117136692Y-110191286D01*
X117170800Y-110063992D01*
X117170800Y-109932208D01*
X117136692Y-109804914D01*
X117136690Y-109804911D01*
X117136690Y-109804909D01*
X117070803Y-109690790D01*
X117070801Y-109690788D01*
X117070800Y-109690786D01*
X116977614Y-109597600D01*
X116977611Y-109597598D01*
X116977609Y-109597596D01*
X116904191Y-109555208D01*
X118145600Y-109555208D01*
X118145600Y-109686992D01*
X118175679Y-109799251D01*
X118179709Y-109814290D01*
X118245596Y-109928409D01*
X118245598Y-109928411D01*
X118245600Y-109928414D01*
X118338786Y-110021600D01*
X118338788Y-110021601D01*
X118338790Y-110021603D01*
X118452910Y-110087490D01*
X118452908Y-110087490D01*
X118452912Y-110087491D01*
X118452914Y-110087492D01*
X118580208Y-110121600D01*
X118580210Y-110121600D01*
X118711990Y-110121600D01*
X118711992Y-110121600D01*
X118839286Y-110087492D01*
X118839288Y-110087490D01*
X118839290Y-110087490D01*
X118953409Y-110021603D01*
X118953409Y-110021602D01*
X118953414Y-110021600D01*
X119046600Y-109928414D01*
X119070632Y-109886790D01*
X119112490Y-109814290D01*
X119112490Y-109814288D01*
X119112492Y-109814286D01*
X119146600Y-109686992D01*
X119146600Y-109555208D01*
X119112492Y-109427914D01*
X119112490Y-109427911D01*
X119112490Y-109427909D01*
X119046603Y-109313790D01*
X119046601Y-109313788D01*
X119046600Y-109313786D01*
X118953414Y-109220600D01*
X118953411Y-109220598D01*
X118953409Y-109220596D01*
X118839289Y-109154709D01*
X118839291Y-109154709D01*
X118789899Y-109141475D01*
X118711992Y-109120600D01*
X118580208Y-109120600D01*
X118502300Y-109141475D01*
X118452909Y-109154709D01*
X118338790Y-109220596D01*
X118245596Y-109313790D01*
X118179709Y-109427909D01*
X118179708Y-109427914D01*
X118145600Y-109555208D01*
X116904191Y-109555208D01*
X116863489Y-109531709D01*
X116863491Y-109531709D01*
X116814099Y-109518475D01*
X116736192Y-109497600D01*
X116604408Y-109497600D01*
X116526500Y-109518475D01*
X116477109Y-109531709D01*
X116362990Y-109597596D01*
X116269796Y-109690790D01*
X116203909Y-109804909D01*
X116199624Y-109820903D01*
X116169800Y-109932208D01*
X113594406Y-109932208D01*
X113607300Y-109919314D01*
X113673192Y-109805186D01*
X113707300Y-109677892D01*
X113707300Y-109546108D01*
X113673192Y-109418814D01*
X113673190Y-109418811D01*
X113673190Y-109418809D01*
X113607303Y-109304690D01*
X113607301Y-109304688D01*
X113607300Y-109304686D01*
X113514114Y-109211500D01*
X113514111Y-109211498D01*
X113514109Y-109211496D01*
X113399989Y-109145609D01*
X113399991Y-109145609D01*
X113350599Y-109132375D01*
X113272692Y-109111500D01*
X113140908Y-109111500D01*
X113063000Y-109132375D01*
X113013609Y-109145609D01*
X112899490Y-109211496D01*
X112806296Y-109304690D01*
X112740409Y-109418809D01*
X112736057Y-109435052D01*
X112706300Y-109546108D01*
X103086035Y-109546108D01*
X103029496Y-109489569D01*
X103001719Y-109435052D01*
X103000500Y-109419565D01*
X103000500Y-109354509D01*
X103000500Y-109354508D01*
X102966392Y-109227214D01*
X102966390Y-109227211D01*
X102966390Y-109227209D01*
X102900503Y-109113090D01*
X102900501Y-109113088D01*
X102900500Y-109113086D01*
X102807314Y-109019900D01*
X102807311Y-109019898D01*
X102807309Y-109019896D01*
X102693189Y-108954009D01*
X102693191Y-108954009D01*
X102643799Y-108940775D01*
X102565892Y-108919900D01*
X102434108Y-108919900D01*
X102356200Y-108940775D01*
X102306809Y-108954009D01*
X102192690Y-109019896D01*
X102099496Y-109113090D01*
X102033609Y-109227209D01*
X102033608Y-109227214D01*
X101999500Y-109354508D01*
X101999500Y-109486292D01*
X102015528Y-109546109D01*
X102033609Y-109613590D01*
X102099496Y-109727709D01*
X102099498Y-109727711D01*
X102099500Y-109727714D01*
X102192686Y-109820900D01*
X102192688Y-109820901D01*
X102192690Y-109820903D01*
X102306810Y-109886790D01*
X102306808Y-109886790D01*
X102306812Y-109886791D01*
X102306814Y-109886792D01*
X102434108Y-109920900D01*
X102499165Y-109920900D01*
X102557356Y-109939807D01*
X102569169Y-109949896D01*
X103399904Y-110780631D01*
X103427681Y-110835148D01*
X103428900Y-110850635D01*
X103428900Y-111435824D01*
X103409993Y-111494015D01*
X103360493Y-111529979D01*
X103299307Y-111529979D01*
X103280400Y-111521561D01*
X103193187Y-111471208D01*
X103150754Y-111459838D01*
X103065892Y-111437100D01*
X102934108Y-111437100D01*
X102876634Y-111452500D01*
X102806809Y-111471209D01*
X102692690Y-111537096D01*
X102599496Y-111630290D01*
X102587582Y-111650926D01*
X102542112Y-111691866D01*
X102481261Y-111698260D01*
X102428274Y-111667666D01*
X102416112Y-111650926D01*
X102400500Y-111623886D01*
X102307314Y-111530700D01*
X102307311Y-111530698D01*
X102307309Y-111530696D01*
X102193189Y-111464809D01*
X102193191Y-111464809D01*
X102143799Y-111451575D01*
X102065892Y-111430700D01*
X101934108Y-111430700D01*
X101856200Y-111451575D01*
X101806809Y-111464809D01*
X101692690Y-111530696D01*
X101599496Y-111623890D01*
X101533609Y-111738009D01*
X101533179Y-111739614D01*
X101499500Y-111865308D01*
X100117534Y-111865308D01*
X97454628Y-109202402D01*
X96768734Y-108516508D01*
X105035900Y-108516508D01*
X105035900Y-108648292D01*
X105047041Y-108689870D01*
X105070009Y-108775590D01*
X105135896Y-108889709D01*
X105135898Y-108889711D01*
X105135900Y-108889714D01*
X105229086Y-108982900D01*
X105229088Y-108982901D01*
X105229090Y-108982903D01*
X105343210Y-109048790D01*
X105343208Y-109048790D01*
X105343212Y-109048791D01*
X105343214Y-109048792D01*
X105470508Y-109082900D01*
X105470510Y-109082900D01*
X105602290Y-109082900D01*
X105602292Y-109082900D01*
X105729586Y-109048792D01*
X105729588Y-109048790D01*
X105729590Y-109048790D01*
X105843709Y-108982903D01*
X105843709Y-108982902D01*
X105843714Y-108982900D01*
X105936900Y-108889714D01*
X105940186Y-108884023D01*
X106002790Y-108775590D01*
X106002790Y-108775588D01*
X106002792Y-108775586D01*
X106036900Y-108648292D01*
X106036900Y-108516508D01*
X106002792Y-108389214D01*
X106002790Y-108389211D01*
X106002790Y-108389209D01*
X105936903Y-108275090D01*
X105936901Y-108275088D01*
X105936900Y-108275086D01*
X105843714Y-108181900D01*
X105843711Y-108181898D01*
X105843709Y-108181896D01*
X105729589Y-108116009D01*
X105729591Y-108116009D01*
X105680199Y-108102775D01*
X105602292Y-108081900D01*
X105470508Y-108081900D01*
X105392600Y-108102775D01*
X105343209Y-108116009D01*
X105229090Y-108181896D01*
X105135896Y-108275090D01*
X105070009Y-108389209D01*
X105070008Y-108389214D01*
X105035900Y-108516508D01*
X96768734Y-108516508D01*
X96186334Y-107934108D01*
X114431100Y-107934108D01*
X114431100Y-108065892D01*
X114444529Y-108116009D01*
X114465209Y-108193190D01*
X114531096Y-108307309D01*
X114531098Y-108307311D01*
X114531100Y-108307314D01*
X114624286Y-108400500D01*
X114624288Y-108400501D01*
X114624290Y-108400503D01*
X114738410Y-108466390D01*
X114738408Y-108466390D01*
X114738412Y-108466391D01*
X114738414Y-108466392D01*
X114865708Y-108500500D01*
X114865710Y-108500500D01*
X114997490Y-108500500D01*
X114997492Y-108500500D01*
X115124786Y-108466392D01*
X115124788Y-108466390D01*
X115124790Y-108466390D01*
X115238909Y-108400503D01*
X115238909Y-108400502D01*
X115238914Y-108400500D01*
X115332100Y-108307314D01*
X115387996Y-108210500D01*
X115397990Y-108193190D01*
X115397990Y-108193188D01*
X115397992Y-108193186D01*
X115432100Y-108065892D01*
X115432100Y-107934108D01*
X115397992Y-107806814D01*
X115397990Y-107806811D01*
X115397990Y-107806809D01*
X115332103Y-107692690D01*
X115332101Y-107692688D01*
X115332100Y-107692686D01*
X115259765Y-107620351D01*
X115231990Y-107565837D01*
X115241561Y-107505405D01*
X115259764Y-107480349D01*
X115340500Y-107399614D01*
X115390213Y-107313509D01*
X115406390Y-107285490D01*
X115406390Y-107285488D01*
X115406392Y-107285486D01*
X115440500Y-107158192D01*
X115440500Y-107026408D01*
X115406392Y-106899114D01*
X115406390Y-106899111D01*
X115406390Y-106899109D01*
X115340503Y-106784990D01*
X115340501Y-106784988D01*
X115340500Y-106784986D01*
X115247314Y-106691800D01*
X115247311Y-106691798D01*
X115247309Y-106691796D01*
X115133189Y-106625909D01*
X115133191Y-106625909D01*
X115083799Y-106612675D01*
X115005892Y-106591800D01*
X114874108Y-106591800D01*
X114796200Y-106612675D01*
X114746809Y-106625909D01*
X114632690Y-106691796D01*
X114539496Y-106784990D01*
X114473609Y-106899109D01*
X114473608Y-106899114D01*
X114439500Y-107026408D01*
X114439500Y-107158192D01*
X114447257Y-107187140D01*
X114473609Y-107285490D01*
X114539496Y-107399609D01*
X114539498Y-107399611D01*
X114539500Y-107399614D01*
X114611834Y-107471948D01*
X114639610Y-107526463D01*
X114630039Y-107586895D01*
X114611835Y-107611950D01*
X114566189Y-107657597D01*
X114531097Y-107692689D01*
X114531096Y-107692690D01*
X114465209Y-107806809D01*
X114454764Y-107845792D01*
X114431100Y-107934108D01*
X96186334Y-107934108D01*
X95565734Y-107313508D01*
X110522100Y-107313508D01*
X110522100Y-107445292D01*
X110547801Y-107541209D01*
X110556209Y-107572590D01*
X110622096Y-107686709D01*
X110622098Y-107686711D01*
X110622100Y-107686714D01*
X110715286Y-107779900D01*
X110715288Y-107779901D01*
X110715290Y-107779903D01*
X110829410Y-107845790D01*
X110829408Y-107845790D01*
X110829412Y-107845791D01*
X110829414Y-107845792D01*
X110956708Y-107879900D01*
X110956710Y-107879900D01*
X111088490Y-107879900D01*
X111088492Y-107879900D01*
X111215786Y-107845792D01*
X111215788Y-107845790D01*
X111215790Y-107845790D01*
X111222558Y-107841883D01*
X111329909Y-107779903D01*
X111329909Y-107779902D01*
X111329914Y-107779900D01*
X111423100Y-107686714D01*
X111461413Y-107620354D01*
X111488990Y-107572590D01*
X111488990Y-107572588D01*
X111488992Y-107572586D01*
X111523100Y-107445292D01*
X111523100Y-107313508D01*
X111488992Y-107186214D01*
X111488991Y-107186213D01*
X111488991Y-107186211D01*
X111488990Y-107186210D01*
X111478481Y-107168008D01*
X111902900Y-107168008D01*
X111902900Y-107299792D01*
X111927925Y-107393186D01*
X111937009Y-107427090D01*
X112002896Y-107541209D01*
X112002898Y-107541211D01*
X112002900Y-107541214D01*
X112096086Y-107634400D01*
X112096088Y-107634401D01*
X112096090Y-107634403D01*
X112210210Y-107700290D01*
X112210208Y-107700290D01*
X112210212Y-107700291D01*
X112210214Y-107700292D01*
X112337508Y-107734400D01*
X112337510Y-107734400D01*
X112469290Y-107734400D01*
X112469292Y-107734400D01*
X112596586Y-107700292D01*
X112596588Y-107700290D01*
X112596590Y-107700290D01*
X112710709Y-107634403D01*
X112710709Y-107634402D01*
X112710714Y-107634400D01*
X112803900Y-107541214D01*
X112823475Y-107507309D01*
X112869790Y-107427090D01*
X112869790Y-107427088D01*
X112869792Y-107427086D01*
X112903900Y-107299792D01*
X112903900Y-107168008D01*
X112869792Y-107040714D01*
X112869790Y-107040711D01*
X112869790Y-107040709D01*
X112803903Y-106926590D01*
X112803901Y-106926588D01*
X112803900Y-106926586D01*
X112710714Y-106833400D01*
X112710711Y-106833398D01*
X112710709Y-106833396D01*
X112596589Y-106767509D01*
X112596591Y-106767509D01*
X112547199Y-106754275D01*
X112469292Y-106733400D01*
X112337508Y-106733400D01*
X112259600Y-106754275D01*
X112210209Y-106767509D01*
X112096090Y-106833396D01*
X112002896Y-106926590D01*
X111937009Y-107040709D01*
X111928602Y-107072086D01*
X111902900Y-107168008D01*
X111478481Y-107168008D01*
X111423103Y-107072090D01*
X111423101Y-107072088D01*
X111423100Y-107072086D01*
X111329914Y-106978900D01*
X111329911Y-106978898D01*
X111329909Y-106978896D01*
X111215789Y-106913009D01*
X111215791Y-106913009D01*
X111139957Y-106892690D01*
X111088492Y-106878900D01*
X110956708Y-106878900D01*
X110905243Y-106892690D01*
X110829409Y-106913009D01*
X110715290Y-106978896D01*
X110622096Y-107072090D01*
X110556209Y-107186209D01*
X110556208Y-107186214D01*
X110522100Y-107313508D01*
X95565734Y-107313508D01*
X94386334Y-106134108D01*
X94999500Y-106134108D01*
X94999500Y-106265892D01*
X95020434Y-106344020D01*
X95033609Y-106393190D01*
X95099496Y-106507309D01*
X95099498Y-106507311D01*
X95099500Y-106507314D01*
X95192686Y-106600500D01*
X95192688Y-106600501D01*
X95192690Y-106600503D01*
X95306810Y-106666390D01*
X95306808Y-106666390D01*
X95306812Y-106666391D01*
X95306814Y-106666392D01*
X95434108Y-106700500D01*
X95434110Y-106700500D01*
X95565890Y-106700500D01*
X95565892Y-106700500D01*
X95693186Y-106666392D01*
X95693188Y-106666390D01*
X95693190Y-106666390D01*
X95807309Y-106600503D01*
X95807309Y-106600502D01*
X95807314Y-106600500D01*
X95900500Y-106507314D01*
X95966392Y-106393186D01*
X96000500Y-106265892D01*
X96000500Y-106134108D01*
X95966392Y-106006814D01*
X95966390Y-106006811D01*
X95966390Y-106006809D01*
X95900503Y-105892690D01*
X95900501Y-105892688D01*
X95900500Y-105892686D01*
X95807314Y-105799500D01*
X95807311Y-105799498D01*
X95807309Y-105799496D01*
X95693189Y-105733609D01*
X95693191Y-105733609D01*
X95617051Y-105713208D01*
X95565892Y-105699500D01*
X95434108Y-105699500D01*
X95382949Y-105713208D01*
X95306809Y-105733609D01*
X95192690Y-105799496D01*
X95099496Y-105892690D01*
X95033609Y-106006809D01*
X95033608Y-106006814D01*
X94999500Y-106134108D01*
X94386334Y-106134108D01*
X93611834Y-105359608D01*
X110427500Y-105359608D01*
X110427500Y-105491392D01*
X110443456Y-105550941D01*
X110461609Y-105618690D01*
X110527496Y-105732809D01*
X110527498Y-105732811D01*
X110527500Y-105732814D01*
X110620686Y-105826000D01*
X110697624Y-105870420D01*
X110738564Y-105915889D01*
X110744960Y-105976739D01*
X110743750Y-105981779D01*
X110742508Y-105986413D01*
X110742508Y-105986414D01*
X110708400Y-106113708D01*
X110708400Y-106245492D01*
X110734800Y-106344020D01*
X110742509Y-106372790D01*
X110808396Y-106486909D01*
X110808398Y-106486911D01*
X110808400Y-106486914D01*
X110901586Y-106580100D01*
X110901588Y-106580101D01*
X110901590Y-106580103D01*
X111015710Y-106645990D01*
X111015708Y-106645990D01*
X111015712Y-106645991D01*
X111015714Y-106645992D01*
X111143008Y-106680100D01*
X111143010Y-106680100D01*
X111274790Y-106680100D01*
X111274792Y-106680100D01*
X111402086Y-106645992D01*
X111402088Y-106645990D01*
X111402090Y-106645990D01*
X111516209Y-106580103D01*
X111516209Y-106580102D01*
X111516214Y-106580100D01*
X111609400Y-106486914D01*
X111675292Y-106372786D01*
X111709400Y-106245492D01*
X111709400Y-106113708D01*
X111675292Y-105986414D01*
X111675290Y-105986411D01*
X111675290Y-105986409D01*
X111609403Y-105872290D01*
X111609401Y-105872288D01*
X111609400Y-105872286D01*
X111516214Y-105779100D01*
X111516211Y-105779098D01*
X111516209Y-105779096D01*
X111439276Y-105734679D01*
X111398335Y-105689210D01*
X111391939Y-105628360D01*
X111393149Y-105623320D01*
X111394389Y-105618690D01*
X111394392Y-105618686D01*
X111428500Y-105491392D01*
X111428500Y-105359608D01*
X111394392Y-105232314D01*
X111394390Y-105232311D01*
X111394390Y-105232309D01*
X111328503Y-105118190D01*
X111328501Y-105118188D01*
X111328500Y-105118186D01*
X111235314Y-105025000D01*
X111235311Y-105024998D01*
X111235309Y-105024996D01*
X111121189Y-104959109D01*
X111121191Y-104959109D01*
X111071799Y-104945875D01*
X110993892Y-104925000D01*
X110862108Y-104925000D01*
X110784200Y-104945875D01*
X110734809Y-104959109D01*
X110620690Y-105024996D01*
X110527496Y-105118190D01*
X110461609Y-105232309D01*
X110461608Y-105232314D01*
X110427500Y-105359608D01*
X93611834Y-105359608D01*
X91692135Y-103439908D01*
X96568200Y-103439908D01*
X96568200Y-103571692D01*
X96596015Y-103675500D01*
X96602309Y-103698990D01*
X96668196Y-103813109D01*
X96668198Y-103813111D01*
X96668200Y-103813114D01*
X96761386Y-103906300D01*
X96761388Y-103906301D01*
X96761390Y-103906303D01*
X96875510Y-103972190D01*
X96875508Y-103972190D01*
X96875512Y-103972191D01*
X96875514Y-103972192D01*
X97002808Y-104006300D01*
X97002810Y-104006300D01*
X97134590Y-104006300D01*
X97134592Y-104006300D01*
X97261886Y-103972192D01*
X97261888Y-103972190D01*
X97261890Y-103972190D01*
X97376009Y-103906303D01*
X97376009Y-103906302D01*
X97376014Y-103906300D01*
X97469200Y-103813114D01*
X97474449Y-103804023D01*
X97535090Y-103698990D01*
X97535090Y-103698988D01*
X97535092Y-103698986D01*
X97569200Y-103571692D01*
X97569200Y-103439908D01*
X97535092Y-103312614D01*
X97535090Y-103312611D01*
X97535090Y-103312609D01*
X97469203Y-103198490D01*
X97469201Y-103198488D01*
X97469200Y-103198486D01*
X97376014Y-103105300D01*
X97376011Y-103105298D01*
X97376009Y-103105296D01*
X97261889Y-103039409D01*
X97261891Y-103039409D01*
X97185139Y-103018844D01*
X97134592Y-103005300D01*
X97002808Y-103005300D01*
X96952261Y-103018844D01*
X96875509Y-103039409D01*
X96761390Y-103105296D01*
X96668196Y-103198490D01*
X96602309Y-103312609D01*
X96602308Y-103312614D01*
X96568200Y-103439908D01*
X91692135Y-103439908D01*
X90986335Y-102734108D01*
X94999500Y-102734108D01*
X94999500Y-102865892D01*
X95007562Y-102895979D01*
X95033609Y-102993190D01*
X95099496Y-103107309D01*
X95099498Y-103107311D01*
X95099500Y-103107314D01*
X95192686Y-103200500D01*
X95192688Y-103200501D01*
X95192690Y-103200503D01*
X95306810Y-103266390D01*
X95306808Y-103266390D01*
X95306812Y-103266391D01*
X95306814Y-103266392D01*
X95434108Y-103300500D01*
X95434110Y-103300500D01*
X95565890Y-103300500D01*
X95565892Y-103300500D01*
X95693186Y-103266392D01*
X95693188Y-103266390D01*
X95693190Y-103266390D01*
X95807309Y-103200503D01*
X95807309Y-103200502D01*
X95807314Y-103200500D01*
X95900500Y-103107314D01*
X95924573Y-103065618D01*
X95966390Y-102993190D01*
X95966390Y-102993188D01*
X95966392Y-102993186D01*
X96000500Y-102865892D01*
X96000500Y-102734108D01*
X95966392Y-102606814D01*
X95966390Y-102606811D01*
X95966390Y-102606809D01*
X95900503Y-102492690D01*
X95900501Y-102492688D01*
X95900500Y-102492686D01*
X95807314Y-102399500D01*
X95807311Y-102399498D01*
X95807309Y-102399496D01*
X95693189Y-102333609D01*
X95693191Y-102333609D01*
X95643799Y-102320375D01*
X95565892Y-102299500D01*
X95434108Y-102299500D01*
X95356200Y-102320375D01*
X95306809Y-102333609D01*
X95192690Y-102399496D01*
X95099496Y-102492690D01*
X95033609Y-102606809D01*
X95033608Y-102606814D01*
X94999500Y-102734108D01*
X90986335Y-102734108D01*
X90071762Y-101819535D01*
X90071759Y-101819533D01*
X90071757Y-101819531D01*
X89997542Y-101776683D01*
X89997544Y-101776683D01*
X89965421Y-101768076D01*
X89914753Y-101754500D01*
X89914751Y-101754500D01*
X85608377Y-101754500D01*
X85550186Y-101735593D01*
X85516913Y-101693386D01*
X85470941Y-101582402D01*
X85404269Y-101482620D01*
X85371855Y-101434108D01*
X100499500Y-101434108D01*
X100499500Y-101565892D01*
X100503924Y-101582402D01*
X100533609Y-101693190D01*
X100599496Y-101807309D01*
X100599498Y-101807311D01*
X100599500Y-101807314D01*
X100692686Y-101900500D01*
X100692688Y-101900501D01*
X100692690Y-101900503D01*
X100806810Y-101966390D01*
X100806808Y-101966390D01*
X100806812Y-101966391D01*
X100806814Y-101966392D01*
X100934108Y-102000500D01*
X100934110Y-102000500D01*
X101065890Y-102000500D01*
X101065892Y-102000500D01*
X101193186Y-101966392D01*
X101193188Y-101966390D01*
X101193190Y-101966390D01*
X101307309Y-101900503D01*
X101307309Y-101900502D01*
X101307314Y-101900500D01*
X101400500Y-101807314D01*
X101418185Y-101776683D01*
X101466390Y-101693190D01*
X101466390Y-101693188D01*
X101466392Y-101693186D01*
X101500500Y-101565892D01*
X101500500Y-101434108D01*
X101466392Y-101306814D01*
X101466390Y-101306811D01*
X101466390Y-101306809D01*
X101400503Y-101192690D01*
X101400501Y-101192688D01*
X101400500Y-101192686D01*
X101307314Y-101099500D01*
X101307311Y-101099498D01*
X101307309Y-101099496D01*
X101193189Y-101033609D01*
X101193191Y-101033609D01*
X101143799Y-101020375D01*
X101065892Y-100999500D01*
X100934108Y-100999500D01*
X100856200Y-101020375D01*
X100806809Y-101033609D01*
X100692690Y-101099496D01*
X100599496Y-101192690D01*
X100533609Y-101306809D01*
X100533608Y-101306814D01*
X100499500Y-101434108D01*
X85371855Y-101434108D01*
X85355979Y-101410348D01*
X85355977Y-101410345D01*
X85209655Y-101264023D01*
X85037598Y-101149059D01*
X85037599Y-101149059D01*
X85037597Y-101149058D01*
X84846418Y-101069869D01*
X84643467Y-101029500D01*
X84643465Y-101029500D01*
X84436535Y-101029500D01*
X84436532Y-101029500D01*
X84233581Y-101069869D01*
X84042402Y-101149058D01*
X83870348Y-101264020D01*
X83724020Y-101410348D01*
X83609058Y-101582402D01*
X83529869Y-101773581D01*
X83489500Y-101976532D01*
X83489500Y-102183467D01*
X83529869Y-102386418D01*
X83609058Y-102577597D01*
X83724020Y-102749651D01*
X83724023Y-102749655D01*
X83829866Y-102855498D01*
X83857642Y-102910013D01*
X83848071Y-102970445D01*
X83804806Y-103013710D01*
X83759861Y-103024500D01*
X83445835Y-103024500D01*
X83387644Y-103005593D01*
X83375831Y-102995504D01*
X82985619Y-102605292D01*
X82957842Y-102550775D01*
X82964159Y-102497402D01*
X82966111Y-102492690D01*
X83010130Y-102386420D01*
X83050500Y-102183465D01*
X83050500Y-101976535D01*
X83010130Y-101773580D01*
X82930941Y-101582402D01*
X82815977Y-101410345D01*
X82669655Y-101264023D01*
X82497598Y-101149059D01*
X82497599Y-101149059D01*
X82497597Y-101149058D01*
X82306418Y-101069869D01*
X82103467Y-101029500D01*
X82103465Y-101029500D01*
X81896535Y-101029500D01*
X81896532Y-101029500D01*
X81693581Y-101069869D01*
X81502402Y-101149058D01*
X81330348Y-101264020D01*
X81184020Y-101410348D01*
X81069058Y-101582402D01*
X80989869Y-101773581D01*
X80949500Y-101976532D01*
X78000000Y-101976532D01*
X78000000Y-99436532D01*
X83489500Y-99436532D01*
X83489500Y-99643467D01*
X83529869Y-99846418D01*
X83609058Y-100037597D01*
X83724020Y-100209651D01*
X83724023Y-100209655D01*
X83870345Y-100355977D01*
X84042402Y-100470941D01*
X84233580Y-100550130D01*
X84436535Y-100590500D01*
X84436536Y-100590500D01*
X84643464Y-100590500D01*
X84643465Y-100590500D01*
X84846420Y-100550130D01*
X85037598Y-100470941D01*
X85209655Y-100355977D01*
X85355977Y-100209655D01*
X85470941Y-100037598D01*
X85472387Y-100034108D01*
X87999500Y-100034108D01*
X87999500Y-100165892D01*
X88011225Y-100209651D01*
X88033609Y-100293190D01*
X88099496Y-100407309D01*
X88099498Y-100407311D01*
X88099500Y-100407314D01*
X88192686Y-100500500D01*
X88192688Y-100500501D01*
X88192690Y-100500503D01*
X88306810Y-100566390D01*
X88306808Y-100566390D01*
X88306812Y-100566391D01*
X88306814Y-100566392D01*
X88434108Y-100600500D01*
X88434110Y-100600500D01*
X88565890Y-100600500D01*
X88565892Y-100600500D01*
X88693186Y-100566392D01*
X88693188Y-100566390D01*
X88693190Y-100566390D01*
X88807309Y-100500503D01*
X88807309Y-100500502D01*
X88807314Y-100500500D01*
X88900500Y-100407314D01*
X88900503Y-100407309D01*
X88966390Y-100293190D01*
X88966390Y-100293188D01*
X88966392Y-100293186D01*
X89000500Y-100165892D01*
X89000500Y-100034108D01*
X88993801Y-100009108D01*
X93999500Y-100009108D01*
X93999500Y-100140892D01*
X94006199Y-100165892D01*
X94033609Y-100268190D01*
X94099496Y-100382309D01*
X94099498Y-100382311D01*
X94099500Y-100382314D01*
X94192686Y-100475500D01*
X94192688Y-100475501D01*
X94192690Y-100475503D01*
X94306810Y-100541390D01*
X94306808Y-100541390D01*
X94306812Y-100541391D01*
X94306814Y-100541392D01*
X94434108Y-100575500D01*
X94434110Y-100575500D01*
X94565890Y-100575500D01*
X94565892Y-100575500D01*
X94693186Y-100541392D01*
X94693188Y-100541390D01*
X94693190Y-100541390D01*
X94807309Y-100475503D01*
X94807309Y-100475502D01*
X94807314Y-100475500D01*
X94900500Y-100382314D01*
X94900503Y-100382309D01*
X94966390Y-100268190D01*
X94966390Y-100268188D01*
X94966392Y-100268186D01*
X94969923Y-100255008D01*
X111904500Y-100255008D01*
X111904500Y-100386792D01*
X111927613Y-100473052D01*
X111938609Y-100514090D01*
X112004496Y-100628209D01*
X112004498Y-100628211D01*
X112004500Y-100628214D01*
X112097686Y-100721400D01*
X112097688Y-100721401D01*
X112097690Y-100721403D01*
X112211810Y-100787290D01*
X112211808Y-100787290D01*
X112211812Y-100787291D01*
X112211814Y-100787292D01*
X112339108Y-100821400D01*
X112339110Y-100821400D01*
X112470890Y-100821400D01*
X112470892Y-100821400D01*
X112598186Y-100787292D01*
X112598188Y-100787290D01*
X112598190Y-100787290D01*
X112712309Y-100721403D01*
X112712309Y-100721402D01*
X112712314Y-100721400D01*
X112805500Y-100628214D01*
X112855628Y-100541390D01*
X112871390Y-100514090D01*
X112871390Y-100514088D01*
X112871392Y-100514086D01*
X112905500Y-100386792D01*
X112905500Y-100255008D01*
X112871392Y-100127714D01*
X112871390Y-100127711D01*
X112871390Y-100127709D01*
X112805503Y-100013590D01*
X112805501Y-100013588D01*
X112805500Y-100013586D01*
X112712314Y-99920400D01*
X112712311Y-99920398D01*
X112712309Y-99920396D01*
X112598189Y-99854509D01*
X112598191Y-99854509D01*
X112548799Y-99841275D01*
X112470892Y-99820400D01*
X112339108Y-99820400D01*
X112261200Y-99841275D01*
X112211809Y-99854509D01*
X112097690Y-99920396D01*
X112004496Y-100013590D01*
X111938609Y-100127709D01*
X111935077Y-100140892D01*
X111904500Y-100255008D01*
X94969923Y-100255008D01*
X95000500Y-100140892D01*
X95000500Y-100009108D01*
X94966392Y-99881814D01*
X94966390Y-99881811D01*
X94966390Y-99881809D01*
X94900503Y-99767690D01*
X94900501Y-99767688D01*
X94900500Y-99767686D01*
X94807314Y-99674500D01*
X94807311Y-99674498D01*
X94807309Y-99674496D01*
X94693189Y-99608609D01*
X94693191Y-99608609D01*
X94643799Y-99595375D01*
X94565892Y-99574500D01*
X94434108Y-99574500D01*
X94356200Y-99595375D01*
X94306809Y-99608609D01*
X94192690Y-99674496D01*
X94099496Y-99767690D01*
X94033609Y-99881809D01*
X94026909Y-99906814D01*
X93999500Y-100009108D01*
X88993801Y-100009108D01*
X88966392Y-99906814D01*
X88966390Y-99906811D01*
X88966390Y-99906809D01*
X88900503Y-99792690D01*
X88900501Y-99792688D01*
X88900500Y-99792686D01*
X88807314Y-99699500D01*
X88807311Y-99699498D01*
X88807309Y-99699496D01*
X88693189Y-99633609D01*
X88693191Y-99633609D01*
X88643799Y-99620375D01*
X88565892Y-99599500D01*
X88434108Y-99599500D01*
X88356200Y-99620375D01*
X88306809Y-99633609D01*
X88192690Y-99699496D01*
X88099496Y-99792690D01*
X88033609Y-99906809D01*
X88014539Y-99977978D01*
X87999500Y-100034108D01*
X85472387Y-100034108D01*
X85550130Y-99846420D01*
X85590500Y-99643465D01*
X85590500Y-99436535D01*
X85550130Y-99233580D01*
X85470941Y-99042402D01*
X85355977Y-98870345D01*
X85209655Y-98724023D01*
X85209651Y-98724020D01*
X85037597Y-98609058D01*
X84846418Y-98529869D01*
X84643467Y-98489500D01*
X84643465Y-98489500D01*
X84436535Y-98489500D01*
X84436532Y-98489500D01*
X84233581Y-98529869D01*
X84042402Y-98609058D01*
X83870348Y-98724020D01*
X83724020Y-98870348D01*
X83609058Y-99042402D01*
X83529869Y-99233581D01*
X83489500Y-99436532D01*
X78000000Y-99436532D01*
X78000000Y-96896532D01*
X83489500Y-96896532D01*
X83489500Y-97103464D01*
X83529869Y-97306418D01*
X83609058Y-97497597D01*
X83724020Y-97669651D01*
X83724023Y-97669655D01*
X83870345Y-97815977D01*
X84042402Y-97930941D01*
X84233580Y-98010130D01*
X84436535Y-98050500D01*
X84436536Y-98050500D01*
X84643464Y-98050500D01*
X84643465Y-98050500D01*
X84846420Y-98010130D01*
X85037598Y-97930941D01*
X85209655Y-97815977D01*
X85355977Y-97669655D01*
X85470941Y-97497598D01*
X85550130Y-97306420D01*
X85590500Y-97103465D01*
X85590500Y-96896535D01*
X85550130Y-96693580D01*
X85532406Y-96650790D01*
X85488464Y-96544704D01*
X85475459Y-96513308D01*
X102499500Y-96513308D01*
X102499500Y-96645092D01*
X102513653Y-96697911D01*
X102533609Y-96772390D01*
X102599496Y-96886509D01*
X102599498Y-96886511D01*
X102599500Y-96886514D01*
X102692686Y-96979700D01*
X102692688Y-96979701D01*
X102692690Y-96979703D01*
X102806810Y-97045590D01*
X102806808Y-97045590D01*
X102806812Y-97045591D01*
X102806814Y-97045592D01*
X102934108Y-97079700D01*
X102934110Y-97079700D01*
X103049374Y-97079700D01*
X103107565Y-97098607D01*
X103143529Y-97148107D01*
X103144994Y-97153054D01*
X103147136Y-97161047D01*
X103161509Y-97214689D01*
X103227396Y-97328809D01*
X103227398Y-97328811D01*
X103227400Y-97328814D01*
X103320586Y-97422000D01*
X103320588Y-97422001D01*
X103320590Y-97422003D01*
X103434710Y-97487890D01*
X103434708Y-97487890D01*
X103434712Y-97487891D01*
X103434714Y-97487892D01*
X103562008Y-97522000D01*
X103562010Y-97522000D01*
X103693790Y-97522000D01*
X103693792Y-97522000D01*
X103821086Y-97487892D01*
X103821088Y-97487890D01*
X103821090Y-97487890D01*
X103935209Y-97422003D01*
X103935209Y-97422002D01*
X103935214Y-97422000D01*
X104028400Y-97328814D01*
X104094292Y-97214686D01*
X104127288Y-97091541D01*
X104160610Y-97040230D01*
X104217731Y-97018303D01*
X104272413Y-97031430D01*
X104306814Y-97051292D01*
X104434108Y-97085400D01*
X104434110Y-97085400D01*
X104565890Y-97085400D01*
X104565892Y-97085400D01*
X104693186Y-97051292D01*
X104693188Y-97051290D01*
X104693190Y-97051290D01*
X104807309Y-96985403D01*
X104807309Y-96985402D01*
X104807314Y-96985400D01*
X104900500Y-96892214D01*
X104966392Y-96778086D01*
X105000500Y-96650792D01*
X105000500Y-96519008D01*
X104966392Y-96391714D01*
X104966390Y-96391711D01*
X104966390Y-96391709D01*
X104900503Y-96277590D01*
X104900501Y-96277588D01*
X104900500Y-96277586D01*
X104807314Y-96184400D01*
X104807311Y-96184398D01*
X104807309Y-96184396D01*
X104693189Y-96118509D01*
X104693191Y-96118509D01*
X104643799Y-96105275D01*
X104565892Y-96084400D01*
X104434108Y-96084400D01*
X104356200Y-96105275D01*
X104306809Y-96118509D01*
X104192690Y-96184396D01*
X104099496Y-96277590D01*
X104033609Y-96391709D01*
X104013604Y-96466369D01*
X104001028Y-96513308D01*
X104000613Y-96514855D01*
X103967289Y-96566169D01*
X103910167Y-96588096D01*
X103855486Y-96574968D01*
X103821089Y-96555109D01*
X103821091Y-96555109D01*
X103771699Y-96541875D01*
X103693792Y-96521000D01*
X103578526Y-96521000D01*
X103520335Y-96502093D01*
X103484371Y-96452593D01*
X103482905Y-96447645D01*
X103466392Y-96386014D01*
X103434808Y-96331309D01*
X103400503Y-96271890D01*
X103400501Y-96271888D01*
X103400500Y-96271886D01*
X103307314Y-96178700D01*
X103307311Y-96178698D01*
X103307309Y-96178696D01*
X103193189Y-96112809D01*
X103193191Y-96112809D01*
X103143799Y-96099575D01*
X103065892Y-96078700D01*
X102934108Y-96078700D01*
X102856200Y-96099575D01*
X102806809Y-96112809D01*
X102692690Y-96178696D01*
X102599496Y-96271890D01*
X102533609Y-96386009D01*
X102517100Y-96447622D01*
X102499500Y-96513308D01*
X85475459Y-96513308D01*
X85470941Y-96502402D01*
X85355979Y-96330348D01*
X85355977Y-96330345D01*
X85209655Y-96184023D01*
X85111606Y-96118509D01*
X85037597Y-96069058D01*
X84846418Y-95989869D01*
X84643467Y-95949500D01*
X84643465Y-95949500D01*
X84436535Y-95949500D01*
X84436532Y-95949500D01*
X84233581Y-95989869D01*
X84042402Y-96069058D01*
X83870348Y-96184020D01*
X83724020Y-96330348D01*
X83609058Y-96502402D01*
X83529869Y-96693581D01*
X83489500Y-96896532D01*
X78000000Y-96896532D01*
X78000000Y-95328108D01*
X112113400Y-95328108D01*
X112113400Y-95459892D01*
X112143479Y-95572151D01*
X112147509Y-95587190D01*
X112213396Y-95701309D01*
X112213398Y-95701311D01*
X112213400Y-95701314D01*
X112306586Y-95794500D01*
X112393033Y-95844410D01*
X112433973Y-95889879D01*
X112440369Y-95950729D01*
X112413536Y-96000149D01*
X112323800Y-96089885D01*
X112323796Y-96089890D01*
X112257909Y-96204009D01*
X112257908Y-96204014D01*
X112223800Y-96331308D01*
X112223800Y-96463092D01*
X112243732Y-96537480D01*
X112257909Y-96590390D01*
X112323796Y-96704509D01*
X112323798Y-96704511D01*
X112323800Y-96704514D01*
X112416986Y-96797700D01*
X112416988Y-96797701D01*
X112416990Y-96797703D01*
X112531110Y-96863590D01*
X112531108Y-96863590D01*
X112531112Y-96863591D01*
X112531114Y-96863592D01*
X112658408Y-96897700D01*
X112723465Y-96897700D01*
X112781656Y-96916607D01*
X112793469Y-96926696D01*
X113176504Y-97309731D01*
X113204281Y-97364248D01*
X113205500Y-97379735D01*
X113205500Y-100590547D01*
X113205500Y-100676253D01*
X113217597Y-100721400D01*
X113227683Y-100759043D01*
X113270531Y-100833257D01*
X113270533Y-100833259D01*
X113270535Y-100833262D01*
X120002805Y-107565532D01*
X120030581Y-107620047D01*
X120031800Y-107635534D01*
X120031800Y-113032978D01*
X120012893Y-113091169D01*
X120002804Y-113102981D01*
X119956800Y-113148984D01*
X119956796Y-113148990D01*
X119890909Y-113263109D01*
X119890908Y-113263114D01*
X119856800Y-113390408D01*
X119856800Y-113522192D01*
X119875214Y-113590914D01*
X119890909Y-113649490D01*
X119956796Y-113763609D01*
X119956798Y-113763611D01*
X119956800Y-113763614D01*
X120049986Y-113856800D01*
X120049988Y-113856801D01*
X120049990Y-113856803D01*
X120164110Y-113922690D01*
X120164108Y-113922690D01*
X120164112Y-113922691D01*
X120164114Y-113922692D01*
X120291408Y-113956800D01*
X120291410Y-113956800D01*
X120423190Y-113956800D01*
X120423192Y-113956800D01*
X120550486Y-113922692D01*
X120550488Y-113922690D01*
X120550490Y-113922690D01*
X120664609Y-113856803D01*
X120664609Y-113856802D01*
X120664614Y-113856800D01*
X120757800Y-113763614D01*
X120823692Y-113649486D01*
X120857800Y-113522192D01*
X120857800Y-113390408D01*
X120823692Y-113263114D01*
X120816196Y-113250130D01*
X120797477Y-113217708D01*
X123608100Y-113217708D01*
X123608100Y-113349492D01*
X123633437Y-113444052D01*
X123642209Y-113476790D01*
X123708096Y-113590909D01*
X123708098Y-113590911D01*
X123708100Y-113590914D01*
X123801286Y-113684100D01*
X123801288Y-113684101D01*
X123801290Y-113684103D01*
X123915410Y-113749990D01*
X123915408Y-113749990D01*
X123915412Y-113749991D01*
X123915414Y-113749992D01*
X124042708Y-113784100D01*
X124042710Y-113784100D01*
X124174490Y-113784100D01*
X124174492Y-113784100D01*
X124301786Y-113749992D01*
X124301788Y-113749990D01*
X124301790Y-113749990D01*
X124415909Y-113684103D01*
X124415909Y-113684102D01*
X124415914Y-113684100D01*
X124509100Y-113590914D01*
X124574992Y-113476786D01*
X124609100Y-113349492D01*
X124609100Y-113217708D01*
X124574992Y-113090414D01*
X124574990Y-113090411D01*
X124574990Y-113090409D01*
X124509103Y-112976290D01*
X124509101Y-112976288D01*
X124509100Y-112976286D01*
X124415914Y-112883100D01*
X124415911Y-112883098D01*
X124415909Y-112883096D01*
X124301789Y-112817209D01*
X124301791Y-112817209D01*
X124252399Y-112803975D01*
X124174492Y-112783100D01*
X124042708Y-112783100D01*
X123964800Y-112803975D01*
X123915409Y-112817209D01*
X123801290Y-112883096D01*
X123708096Y-112976290D01*
X123642209Y-113090409D01*
X123626514Y-113148984D01*
X123608100Y-113217708D01*
X120797477Y-113217708D01*
X120757803Y-113148990D01*
X120757799Y-113148984D01*
X120711796Y-113102981D01*
X120684019Y-113048464D01*
X120682800Y-113032978D01*
X120682800Y-107416848D01*
X120681709Y-107412778D01*
X120681708Y-107412774D01*
X120678181Y-107399610D01*
X120660618Y-107334061D01*
X120660615Y-107334055D01*
X120617768Y-107259842D01*
X120617767Y-107259841D01*
X120617766Y-107259840D01*
X120617765Y-107259838D01*
X113885496Y-100527569D01*
X113857719Y-100473052D01*
X113856500Y-100457565D01*
X113856500Y-100008508D01*
X114436600Y-100008508D01*
X114436600Y-100140292D01*
X114466679Y-100252551D01*
X114470709Y-100267590D01*
X114536596Y-100381709D01*
X114536598Y-100381711D01*
X114536600Y-100381714D01*
X114629786Y-100474900D01*
X114629788Y-100474901D01*
X114629790Y-100474903D01*
X114743910Y-100540790D01*
X114743908Y-100540790D01*
X114743912Y-100540791D01*
X114743914Y-100540792D01*
X114871208Y-100574900D01*
X114871210Y-100574900D01*
X115002990Y-100574900D01*
X115002992Y-100574900D01*
X115130286Y-100540792D01*
X115130288Y-100540790D01*
X115130290Y-100540790D01*
X115244409Y-100474903D01*
X115244409Y-100474902D01*
X115244414Y-100474900D01*
X115337600Y-100381714D01*
X115352459Y-100355977D01*
X115403490Y-100267590D01*
X115403490Y-100267588D01*
X115403492Y-100267586D01*
X115437600Y-100140292D01*
X115437600Y-100008508D01*
X115403492Y-99881214D01*
X115403490Y-99881211D01*
X115403490Y-99881209D01*
X115337603Y-99767090D01*
X115337601Y-99767088D01*
X115337600Y-99767086D01*
X115244414Y-99673900D01*
X115244411Y-99673898D01*
X115244409Y-99673896D01*
X115130289Y-99608009D01*
X115130291Y-99608009D01*
X115080899Y-99594775D01*
X115002992Y-99573900D01*
X114871208Y-99573900D01*
X114793300Y-99594775D01*
X114743909Y-99608009D01*
X114629790Y-99673896D01*
X114536596Y-99767090D01*
X114470709Y-99881209D01*
X114460209Y-99920396D01*
X114436600Y-100008508D01*
X113856500Y-100008508D01*
X113856500Y-98508608D01*
X114426700Y-98508608D01*
X114426700Y-98640392D01*
X114449108Y-98724020D01*
X114460809Y-98767690D01*
X114526696Y-98881809D01*
X114526698Y-98881811D01*
X114526700Y-98881814D01*
X114619886Y-98975000D01*
X114619888Y-98975001D01*
X114619890Y-98975003D01*
X114734010Y-99040890D01*
X114734008Y-99040890D01*
X114734012Y-99040891D01*
X114734014Y-99040892D01*
X114861308Y-99075000D01*
X114861310Y-99075000D01*
X114993090Y-99075000D01*
X114993092Y-99075000D01*
X115120386Y-99040892D01*
X115120388Y-99040890D01*
X115120390Y-99040890D01*
X115234509Y-98975003D01*
X115234509Y-98975002D01*
X115234514Y-98975000D01*
X115327700Y-98881814D01*
X115393592Y-98767686D01*
X115427700Y-98640392D01*
X115427700Y-98508608D01*
X115393592Y-98381314D01*
X115393590Y-98381311D01*
X115393590Y-98381309D01*
X115327703Y-98267190D01*
X115327701Y-98267188D01*
X115327700Y-98267186D01*
X115234514Y-98174000D01*
X115234511Y-98173998D01*
X115234509Y-98173996D01*
X115120389Y-98108109D01*
X115120391Y-98108109D01*
X115070999Y-98094875D01*
X114993092Y-98074000D01*
X114861308Y-98074000D01*
X114783400Y-98094875D01*
X114734009Y-98108109D01*
X114619890Y-98173996D01*
X114526696Y-98267190D01*
X114460809Y-98381309D01*
X114460808Y-98381314D01*
X114426700Y-98508608D01*
X113856500Y-98508608D01*
X113856500Y-97161048D01*
X113856500Y-97161047D01*
X113841071Y-97103465D01*
X113841071Y-97103464D01*
X113841071Y-97103463D01*
X113834320Y-97078266D01*
X113834319Y-97078264D01*
X113834318Y-97078263D01*
X113834318Y-97078261D01*
X113791465Y-97004038D01*
X113253796Y-96466369D01*
X113226019Y-96411852D01*
X113224800Y-96396365D01*
X113224800Y-96331309D01*
X113208878Y-96271886D01*
X113190692Y-96204014D01*
X113190690Y-96204011D01*
X113190690Y-96204009D01*
X113124803Y-96089890D01*
X113124801Y-96089888D01*
X113124800Y-96089886D01*
X113031614Y-95996700D01*
X113031611Y-95996698D01*
X113031609Y-95996696D01*
X112945167Y-95946789D01*
X112904226Y-95901320D01*
X112897830Y-95840470D01*
X112924662Y-95791051D01*
X113014400Y-95701314D01*
X113080292Y-95587186D01*
X113114400Y-95459892D01*
X113114400Y-95328108D01*
X113080292Y-95200814D01*
X113080290Y-95200811D01*
X113080290Y-95200809D01*
X113014403Y-95086690D01*
X113014401Y-95086688D01*
X113014400Y-95086686D01*
X112921214Y-94993500D01*
X112921211Y-94993498D01*
X112921209Y-94993496D01*
X112807089Y-94927609D01*
X112807091Y-94927609D01*
X112757699Y-94914375D01*
X112679792Y-94893500D01*
X112548008Y-94893500D01*
X112470100Y-94914375D01*
X112420709Y-94927609D01*
X112306590Y-94993496D01*
X112213396Y-95086690D01*
X112147509Y-95200809D01*
X112147508Y-95200814D01*
X112113400Y-95328108D01*
X78000000Y-95328108D01*
X78000000Y-93992808D01*
X103160200Y-93992808D01*
X103160200Y-94124592D01*
X103160361Y-94125192D01*
X103194309Y-94251890D01*
X103260196Y-94366009D01*
X103260198Y-94366011D01*
X103260200Y-94366014D01*
X103353386Y-94459200D01*
X103353388Y-94459201D01*
X103353390Y-94459203D01*
X103467510Y-94525090D01*
X103467508Y-94525090D01*
X103467512Y-94525091D01*
X103467514Y-94525092D01*
X103594808Y-94559200D01*
X103594810Y-94559200D01*
X103726590Y-94559200D01*
X103726592Y-94559200D01*
X103853886Y-94525092D01*
X103853888Y-94525090D01*
X103853890Y-94525090D01*
X103968009Y-94459203D01*
X103968009Y-94459202D01*
X103968014Y-94459200D01*
X104061200Y-94366014D01*
X104065371Y-94358790D01*
X104127090Y-94251890D01*
X104127090Y-94251888D01*
X104127092Y-94251886D01*
X104161200Y-94124592D01*
X104161200Y-93992808D01*
X104160691Y-93990908D01*
X108499500Y-93990908D01*
X108499500Y-94122692D01*
X108500170Y-94125192D01*
X108533609Y-94249990D01*
X108599496Y-94364109D01*
X108599498Y-94364111D01*
X108599500Y-94364114D01*
X108692686Y-94457300D01*
X108692688Y-94457301D01*
X108692690Y-94457303D01*
X108806810Y-94523190D01*
X108806808Y-94523190D01*
X108806812Y-94523191D01*
X108806814Y-94523192D01*
X108934108Y-94557300D01*
X108934110Y-94557300D01*
X109065890Y-94557300D01*
X109065892Y-94557300D01*
X109193186Y-94523192D01*
X109193188Y-94523190D01*
X109193190Y-94523190D01*
X109307309Y-94457303D01*
X109307309Y-94457302D01*
X109307314Y-94457300D01*
X109378048Y-94386565D01*
X109432563Y-94358790D01*
X109492995Y-94368361D01*
X109518050Y-94386564D01*
X109591286Y-94459800D01*
X109591288Y-94459801D01*
X109591290Y-94459803D01*
X109705410Y-94525690D01*
X109705408Y-94525690D01*
X109705412Y-94525691D01*
X109705414Y-94525692D01*
X109832708Y-94559800D01*
X109832710Y-94559800D01*
X109964490Y-94559800D01*
X109964492Y-94559800D01*
X110091786Y-94525692D01*
X110091788Y-94525690D01*
X110091790Y-94525690D01*
X110205909Y-94459803D01*
X110205909Y-94459802D01*
X110205914Y-94459800D01*
X110299100Y-94366614D01*
X110299103Y-94366609D01*
X110364990Y-94252490D01*
X110364990Y-94252488D01*
X110364992Y-94252486D01*
X110399100Y-94125192D01*
X110399100Y-93993408D01*
X110364992Y-93866114D01*
X110364990Y-93866111D01*
X110364990Y-93866109D01*
X110299103Y-93751990D01*
X110299101Y-93751988D01*
X110299100Y-93751986D01*
X110205914Y-93658800D01*
X110205911Y-93658798D01*
X110205909Y-93658796D01*
X110091789Y-93592909D01*
X110091791Y-93592909D01*
X110042399Y-93579675D01*
X109964492Y-93558800D01*
X109832708Y-93558800D01*
X109754800Y-93579675D01*
X109705409Y-93592909D01*
X109591290Y-93658796D01*
X109591289Y-93658797D01*
X109520552Y-93729533D01*
X109466035Y-93757309D01*
X109405603Y-93747737D01*
X109380548Y-93729534D01*
X109307314Y-93656300D01*
X109307311Y-93656298D01*
X109307309Y-93656296D01*
X109193189Y-93590409D01*
X109193191Y-93590409D01*
X109143799Y-93577175D01*
X109065892Y-93556300D01*
X108934108Y-93556300D01*
X108856200Y-93577175D01*
X108806809Y-93590409D01*
X108692690Y-93656296D01*
X108599496Y-93749490D01*
X108533609Y-93863609D01*
X108533608Y-93863614D01*
X108499500Y-93990908D01*
X104160691Y-93990908D01*
X104127092Y-93865514D01*
X104127090Y-93865511D01*
X104127090Y-93865509D01*
X104061203Y-93751390D01*
X104061201Y-93751388D01*
X104061200Y-93751386D01*
X103968014Y-93658200D01*
X103968011Y-93658198D01*
X103968009Y-93658196D01*
X103853889Y-93592309D01*
X103853891Y-93592309D01*
X103804499Y-93579075D01*
X103726592Y-93558200D01*
X103594808Y-93558200D01*
X103516900Y-93579075D01*
X103467509Y-93592309D01*
X103353390Y-93658196D01*
X103260196Y-93751390D01*
X103194309Y-93865509D01*
X103194147Y-93866114D01*
X103160200Y-93992808D01*
X78000000Y-93992808D01*
X78000000Y-90549508D01*
X109334100Y-90549508D01*
X109334100Y-90681292D01*
X109364179Y-90793551D01*
X109368209Y-90808590D01*
X109434096Y-90922709D01*
X109434098Y-90922711D01*
X109434100Y-90922714D01*
X109527286Y-91015900D01*
X109527288Y-91015901D01*
X109527290Y-91015903D01*
X109641410Y-91081790D01*
X109641408Y-91081790D01*
X109641412Y-91081791D01*
X109641414Y-91081792D01*
X109768708Y-91115900D01*
X109768710Y-91115900D01*
X109900490Y-91115900D01*
X109900492Y-91115900D01*
X110027786Y-91081792D01*
X110027788Y-91081790D01*
X110027790Y-91081790D01*
X110141909Y-91015903D01*
X110141909Y-91015902D01*
X110141914Y-91015900D01*
X110235100Y-90922714D01*
X110300992Y-90808586D01*
X110335100Y-90681292D01*
X110335100Y-90549508D01*
X110300992Y-90422214D01*
X110300990Y-90422211D01*
X110300990Y-90422209D01*
X110235103Y-90308090D01*
X110235101Y-90308088D01*
X110235100Y-90308086D01*
X110141914Y-90214900D01*
X110141911Y-90214898D01*
X110141909Y-90214896D01*
X110027789Y-90149009D01*
X110027791Y-90149009D01*
X109978399Y-90135775D01*
X109900492Y-90114900D01*
X109768708Y-90114900D01*
X109690800Y-90135775D01*
X109641409Y-90149009D01*
X109527290Y-90214896D01*
X109434096Y-90308090D01*
X109368209Y-90422209D01*
X109368208Y-90422214D01*
X109334100Y-90549508D01*
X78000000Y-90549508D01*
X78000000Y-84099000D01*
X78018907Y-84040809D01*
X78068407Y-84004845D01*
X78099000Y-84000000D01*
X137901000Y-84000000D01*
X137959191Y-84018907D01*
G37*
%TD.AperFunction*%
%TD*%
%TA.AperFunction,Conductor*%
%TO.N,3V3_LOGIC*%
G36*
X90212996Y-44013262D02*
G01*
X90293216Y-44059577D01*
X90445943Y-44100500D01*
X90445945Y-44100500D01*
X90604055Y-44100500D01*
X90604057Y-44100500D01*
X90756784Y-44059577D01*
X90837003Y-44013262D01*
X90886502Y-44000000D01*
X93113498Y-44000000D01*
X93162996Y-44013262D01*
X93243216Y-44059577D01*
X93395943Y-44100500D01*
X93395945Y-44100500D01*
X93554055Y-44100500D01*
X93554057Y-44100500D01*
X93706784Y-44059577D01*
X93787003Y-44013262D01*
X93836502Y-44000000D01*
X122901000Y-44000000D01*
X122959191Y-44018907D01*
X122995155Y-44068407D01*
X123000000Y-44099000D01*
X123000000Y-67901000D01*
X122981093Y-67959191D01*
X122931593Y-67995155D01*
X122901000Y-68000000D01*
X86099000Y-68000000D01*
X86040809Y-67981093D01*
X86004845Y-67931593D01*
X86000000Y-67901000D01*
X86000000Y-59434108D01*
X100499500Y-59434108D01*
X100499500Y-59565892D01*
X100529579Y-59678151D01*
X100533609Y-59693190D01*
X100599496Y-59807309D01*
X100599498Y-59807311D01*
X100599500Y-59807314D01*
X100692686Y-59900500D01*
X100692688Y-59900501D01*
X100692690Y-59900503D01*
X100806810Y-59966390D01*
X100806808Y-59966390D01*
X100806812Y-59966391D01*
X100806814Y-59966392D01*
X100934108Y-60000500D01*
X100934110Y-60000500D01*
X101065890Y-60000500D01*
X101065892Y-60000500D01*
X101193186Y-59966392D01*
X101193188Y-59966390D01*
X101193190Y-59966390D01*
X101307309Y-59900503D01*
X101307309Y-59900502D01*
X101307314Y-59900500D01*
X101400500Y-59807314D01*
X101466392Y-59693186D01*
X101500500Y-59565892D01*
X101500500Y-59434108D01*
X101466392Y-59306814D01*
X101466390Y-59306811D01*
X101466390Y-59306809D01*
X101400503Y-59192690D01*
X101400501Y-59192688D01*
X101400500Y-59192686D01*
X101307314Y-59099500D01*
X101307311Y-59099498D01*
X101307309Y-59099496D01*
X101193189Y-59033609D01*
X101193191Y-59033609D01*
X101143799Y-59020375D01*
X101065892Y-58999500D01*
X100934108Y-58999500D01*
X100856200Y-59020375D01*
X100806809Y-59033609D01*
X100692690Y-59099496D01*
X100599496Y-59192690D01*
X100533609Y-59306809D01*
X100533608Y-59306814D01*
X100499500Y-59434108D01*
X86000000Y-59434108D01*
X86000000Y-58257108D01*
X88474500Y-58257108D01*
X88474500Y-58388892D01*
X88504579Y-58501151D01*
X88508609Y-58516190D01*
X88574496Y-58630309D01*
X88574498Y-58630311D01*
X88574500Y-58630314D01*
X88667686Y-58723500D01*
X88667688Y-58723501D01*
X88667690Y-58723503D01*
X88781810Y-58789390D01*
X88781808Y-58789390D01*
X88781812Y-58789391D01*
X88781814Y-58789392D01*
X88909108Y-58823500D01*
X88909110Y-58823500D01*
X89040890Y-58823500D01*
X89040892Y-58823500D01*
X89168186Y-58789392D01*
X89168188Y-58789390D01*
X89168190Y-58789390D01*
X89282309Y-58723503D01*
X89282309Y-58723502D01*
X89282314Y-58723500D01*
X89375500Y-58630314D01*
X89441392Y-58516186D01*
X89475500Y-58388892D01*
X89475500Y-58257108D01*
X89441392Y-58129814D01*
X89441390Y-58129811D01*
X89441390Y-58129809D01*
X89375503Y-58015690D01*
X89375501Y-58015688D01*
X89375500Y-58015686D01*
X89282314Y-57922500D01*
X89282311Y-57922498D01*
X89282309Y-57922496D01*
X89168189Y-57856609D01*
X89168191Y-57856609D01*
X89118799Y-57843375D01*
X89040892Y-57822500D01*
X88909108Y-57822500D01*
X88831200Y-57843375D01*
X88781809Y-57856609D01*
X88667690Y-57922496D01*
X88574496Y-58015690D01*
X88508609Y-58129809D01*
X88508608Y-58129814D01*
X88474500Y-58257108D01*
X86000000Y-58257108D01*
X86000000Y-54791208D01*
X93193900Y-54791208D01*
X93193900Y-54922992D01*
X93223979Y-55035251D01*
X93228009Y-55050290D01*
X93293896Y-55164409D01*
X93293898Y-55164411D01*
X93293900Y-55164414D01*
X93387086Y-55257600D01*
X93387088Y-55257601D01*
X93387090Y-55257603D01*
X93501210Y-55323490D01*
X93501208Y-55323490D01*
X93501212Y-55323491D01*
X93501214Y-55323492D01*
X93628508Y-55357600D01*
X93628510Y-55357600D01*
X93760290Y-55357600D01*
X93760292Y-55357600D01*
X93887586Y-55323492D01*
X93887588Y-55323490D01*
X93887590Y-55323490D01*
X94001709Y-55257603D01*
X94001709Y-55257602D01*
X94001714Y-55257600D01*
X94094900Y-55164414D01*
X94160792Y-55050286D01*
X94194900Y-54922992D01*
X94194900Y-54791208D01*
X94160792Y-54663914D01*
X94160790Y-54663911D01*
X94160790Y-54663909D01*
X94094903Y-54549790D01*
X94094901Y-54549788D01*
X94094900Y-54549786D01*
X94001714Y-54456600D01*
X94001711Y-54456598D01*
X94001709Y-54456596D01*
X93887589Y-54390709D01*
X93887591Y-54390709D01*
X93838199Y-54377475D01*
X93760292Y-54356600D01*
X93628508Y-54356600D01*
X93550600Y-54377475D01*
X93501209Y-54390709D01*
X93387090Y-54456596D01*
X93293896Y-54549790D01*
X93228009Y-54663909D01*
X93228008Y-54663914D01*
X93193900Y-54791208D01*
X86000000Y-54791208D01*
X86000000Y-51180105D01*
X86018907Y-51121914D01*
X86068407Y-51085950D01*
X86073355Y-51084484D01*
X86139386Y-51066792D01*
X86253514Y-51000900D01*
X86346700Y-50907714D01*
X86412592Y-50793586D01*
X86446700Y-50666292D01*
X86446700Y-50534508D01*
X86412592Y-50407214D01*
X86412590Y-50407211D01*
X86412590Y-50407209D01*
X86346703Y-50293090D01*
X86346701Y-50293088D01*
X86346700Y-50293086D01*
X86253514Y-50199900D01*
X86253511Y-50199898D01*
X86253509Y-50199896D01*
X86139391Y-50134010D01*
X86139388Y-50134009D01*
X86139386Y-50134008D01*
X86073375Y-50116320D01*
X86071109Y-50114849D01*
X86068407Y-50114849D01*
X86045647Y-50098313D01*
X86022062Y-50082996D01*
X86021093Y-50080473D01*
X86018907Y-50078885D01*
X86010213Y-50052128D01*
X86000136Y-50025875D01*
X86000000Y-50020694D01*
X86000000Y-50010808D01*
X91204800Y-50010808D01*
X91204800Y-50142592D01*
X91234879Y-50254851D01*
X91238909Y-50269890D01*
X91304796Y-50384009D01*
X91304798Y-50384011D01*
X91304800Y-50384014D01*
X91397986Y-50477200D01*
X91397988Y-50477201D01*
X91397990Y-50477203D01*
X91512110Y-50543090D01*
X91512108Y-50543090D01*
X91512112Y-50543091D01*
X91512114Y-50543092D01*
X91639408Y-50577200D01*
X91639410Y-50577200D01*
X91771190Y-50577200D01*
X91771192Y-50577200D01*
X91898486Y-50543092D01*
X91898488Y-50543090D01*
X91898490Y-50543090D01*
X92012609Y-50477203D01*
X92012609Y-50477202D01*
X92012614Y-50477200D01*
X92105800Y-50384014D01*
X92158295Y-50293090D01*
X92171690Y-50269890D01*
X92171690Y-50269888D01*
X92171692Y-50269886D01*
X92205800Y-50142592D01*
X92205800Y-50010808D01*
X92171692Y-49883514D01*
X92171690Y-49883511D01*
X92171690Y-49883509D01*
X92105803Y-49769390D01*
X92105801Y-49769388D01*
X92105800Y-49769386D01*
X92012614Y-49676200D01*
X92012611Y-49676198D01*
X92012609Y-49676196D01*
X91898489Y-49610309D01*
X91898491Y-49610309D01*
X91849099Y-49597075D01*
X91771192Y-49576200D01*
X91639408Y-49576200D01*
X91561500Y-49597075D01*
X91512109Y-49610309D01*
X91397990Y-49676196D01*
X91304796Y-49769390D01*
X91238909Y-49883509D01*
X91238908Y-49883514D01*
X91204800Y-50010808D01*
X86000000Y-50010808D01*
X86000000Y-48709108D01*
X89162400Y-48709108D01*
X89162400Y-48840892D01*
X89192479Y-48953151D01*
X89196509Y-48968190D01*
X89262396Y-49082309D01*
X89262398Y-49082311D01*
X89262400Y-49082314D01*
X89355586Y-49175500D01*
X89355588Y-49175501D01*
X89355590Y-49175503D01*
X89469710Y-49241390D01*
X89469708Y-49241390D01*
X89469712Y-49241391D01*
X89469714Y-49241392D01*
X89597008Y-49275500D01*
X89597010Y-49275500D01*
X89728790Y-49275500D01*
X89728792Y-49275500D01*
X89856086Y-49241392D01*
X89856088Y-49241390D01*
X89856090Y-49241390D01*
X89970209Y-49175503D01*
X89970209Y-49175502D01*
X89970214Y-49175500D01*
X90063400Y-49082314D01*
X90129292Y-48968186D01*
X90163400Y-48840892D01*
X90163400Y-48709108D01*
X90129292Y-48581814D01*
X90129290Y-48581811D01*
X90129290Y-48581809D01*
X90063403Y-48467690D01*
X90063401Y-48467688D01*
X90063400Y-48467686D01*
X89970214Y-48374500D01*
X89970211Y-48374498D01*
X89970209Y-48374496D01*
X89950219Y-48362955D01*
X89856089Y-48308609D01*
X89856091Y-48308609D01*
X89806699Y-48295375D01*
X89763157Y-48283708D01*
X91232300Y-48283708D01*
X91232300Y-48415492D01*
X91262379Y-48527751D01*
X91266409Y-48542790D01*
X91332296Y-48656909D01*
X91332298Y-48656911D01*
X91332300Y-48656914D01*
X91425486Y-48750100D01*
X91425488Y-48750101D01*
X91425490Y-48750103D01*
X91539610Y-48815990D01*
X91539608Y-48815990D01*
X91539612Y-48815991D01*
X91539614Y-48815992D01*
X91666908Y-48850100D01*
X91666910Y-48850100D01*
X91798690Y-48850100D01*
X91798692Y-48850100D01*
X91925986Y-48815992D01*
X91925988Y-48815990D01*
X91925990Y-48815990D01*
X92040109Y-48750103D01*
X92040109Y-48750102D01*
X92040114Y-48750100D01*
X92133300Y-48656914D01*
X92199192Y-48542786D01*
X92233300Y-48415492D01*
X92233300Y-48283708D01*
X92199192Y-48156414D01*
X92199190Y-48156411D01*
X92199190Y-48156409D01*
X92175120Y-48114719D01*
X92150288Y-48071708D01*
X100946900Y-48071708D01*
X100946900Y-48203492D01*
X100975066Y-48308609D01*
X100981009Y-48330790D01*
X101046896Y-48444909D01*
X101046898Y-48444911D01*
X101046900Y-48444914D01*
X101140086Y-48538100D01*
X101140088Y-48538101D01*
X101140090Y-48538103D01*
X101254210Y-48603990D01*
X101254208Y-48603990D01*
X101254212Y-48603991D01*
X101254214Y-48603992D01*
X101381508Y-48638100D01*
X101381510Y-48638100D01*
X101513290Y-48638100D01*
X101513292Y-48638100D01*
X101640586Y-48603992D01*
X101640588Y-48603990D01*
X101640590Y-48603990D01*
X101754709Y-48538103D01*
X101754709Y-48538102D01*
X101754714Y-48538100D01*
X101847900Y-48444914D01*
X101913792Y-48330786D01*
X101947900Y-48203492D01*
X101947900Y-48071708D01*
X101913792Y-47944414D01*
X101913790Y-47944411D01*
X101913790Y-47944409D01*
X101847903Y-47830290D01*
X101847901Y-47830288D01*
X101847900Y-47830286D01*
X101754714Y-47737100D01*
X101754711Y-47737098D01*
X101754709Y-47737096D01*
X101640589Y-47671209D01*
X101640591Y-47671209D01*
X101591199Y-47657975D01*
X101513292Y-47637100D01*
X101381508Y-47637100D01*
X101303600Y-47657975D01*
X101254209Y-47671209D01*
X101140090Y-47737096D01*
X101046896Y-47830290D01*
X100981009Y-47944409D01*
X100981008Y-47944414D01*
X100946900Y-48071708D01*
X92150288Y-48071708D01*
X92133303Y-48042290D01*
X92133301Y-48042288D01*
X92133300Y-48042286D01*
X92040114Y-47949100D01*
X92040111Y-47949098D01*
X92040109Y-47949096D01*
X91925989Y-47883209D01*
X91925991Y-47883209D01*
X91876599Y-47869975D01*
X91798692Y-47849100D01*
X91666908Y-47849100D01*
X91589000Y-47869975D01*
X91539609Y-47883209D01*
X91425490Y-47949096D01*
X91332296Y-48042290D01*
X91266409Y-48156409D01*
X91247339Y-48227578D01*
X91232300Y-48283708D01*
X89763157Y-48283708D01*
X89728792Y-48274500D01*
X89597008Y-48274500D01*
X89519100Y-48295375D01*
X89469709Y-48308609D01*
X89355590Y-48374496D01*
X89262396Y-48467690D01*
X89196509Y-48581809D01*
X89196508Y-48581814D01*
X89162400Y-48709108D01*
X86000000Y-48709108D01*
X86000000Y-47408408D01*
X104010200Y-47408408D01*
X104010200Y-47540192D01*
X104036166Y-47637100D01*
X104044309Y-47667490D01*
X104110196Y-47781609D01*
X104110198Y-47781611D01*
X104110200Y-47781614D01*
X104203386Y-47874800D01*
X104203388Y-47874801D01*
X104203390Y-47874803D01*
X104317510Y-47940690D01*
X104317508Y-47940690D01*
X104317512Y-47940691D01*
X104317514Y-47940692D01*
X104444808Y-47974800D01*
X104444810Y-47974800D01*
X104576590Y-47974800D01*
X104576592Y-47974800D01*
X104703886Y-47940692D01*
X104703888Y-47940690D01*
X104703890Y-47940690D01*
X104818009Y-47874803D01*
X104818009Y-47874802D01*
X104818014Y-47874800D01*
X104911200Y-47781614D01*
X104977092Y-47667486D01*
X105011200Y-47540192D01*
X105011200Y-47408408D01*
X104977092Y-47281114D01*
X104977090Y-47281111D01*
X104977090Y-47281109D01*
X104911203Y-47166990D01*
X104911201Y-47166988D01*
X104911200Y-47166986D01*
X104818014Y-47073800D01*
X104818011Y-47073798D01*
X104818009Y-47073796D01*
X104703889Y-47007909D01*
X104703891Y-47007909D01*
X104654499Y-46994675D01*
X104576592Y-46973800D01*
X104444808Y-46973800D01*
X104366900Y-46994675D01*
X104317509Y-47007909D01*
X104203390Y-47073796D01*
X104110196Y-47166990D01*
X104044309Y-47281109D01*
X104044308Y-47281114D01*
X104010200Y-47408408D01*
X86000000Y-47408408D01*
X86000000Y-46384108D01*
X100199500Y-46384108D01*
X100199500Y-46515892D01*
X100229579Y-46628151D01*
X100233609Y-46643190D01*
X100299496Y-46757309D01*
X100299498Y-46757311D01*
X100299500Y-46757314D01*
X100392686Y-46850500D01*
X100392688Y-46850501D01*
X100392690Y-46850503D01*
X100506810Y-46916390D01*
X100506808Y-46916390D01*
X100506812Y-46916391D01*
X100506814Y-46916392D01*
X100634108Y-46950500D01*
X100634110Y-46950500D01*
X100765890Y-46950500D01*
X100765892Y-46950500D01*
X100893186Y-46916392D01*
X100893188Y-46916390D01*
X100893190Y-46916390D01*
X101007309Y-46850503D01*
X101007309Y-46850502D01*
X101007314Y-46850500D01*
X101100500Y-46757314D01*
X101156045Y-46661108D01*
X107491900Y-46661108D01*
X107491900Y-46792892D01*
X107507336Y-46850500D01*
X107526009Y-46920190D01*
X107591896Y-47034309D01*
X107591898Y-47034311D01*
X107591900Y-47034314D01*
X107685086Y-47127500D01*
X107685088Y-47127501D01*
X107685090Y-47127503D01*
X107799210Y-47193390D01*
X107799208Y-47193390D01*
X107799212Y-47193391D01*
X107799214Y-47193392D01*
X107926508Y-47227500D01*
X107926510Y-47227500D01*
X107930021Y-47227500D01*
X107932413Y-47228277D01*
X107932942Y-47228347D01*
X107932929Y-47228444D01*
X107988212Y-47246407D01*
X108024176Y-47295907D01*
X108025647Y-47352120D01*
X108010700Y-47407908D01*
X108010700Y-47539692D01*
X108036800Y-47637100D01*
X108044809Y-47666990D01*
X108110696Y-47781109D01*
X108110698Y-47781111D01*
X108110700Y-47781114D01*
X108203886Y-47874300D01*
X108203888Y-47874301D01*
X108203890Y-47874303D01*
X108318010Y-47940190D01*
X108318008Y-47940190D01*
X108318012Y-47940191D01*
X108318014Y-47940192D01*
X108445308Y-47974300D01*
X108445310Y-47974300D01*
X108577090Y-47974300D01*
X108577092Y-47974300D01*
X108704386Y-47940192D01*
X108704388Y-47940190D01*
X108704390Y-47940190D01*
X108818509Y-47874303D01*
X108818509Y-47874302D01*
X108818514Y-47874300D01*
X108911700Y-47781114D01*
X108975154Y-47671209D01*
X108977590Y-47666990D01*
X108977590Y-47666988D01*
X108977592Y-47666986D01*
X109011700Y-47539692D01*
X109011700Y-47407908D01*
X108977592Y-47280614D01*
X108977590Y-47280611D01*
X108977590Y-47280609D01*
X108911703Y-47166490D01*
X108911701Y-47166488D01*
X108911700Y-47166486D01*
X108818514Y-47073300D01*
X108818511Y-47073298D01*
X108818509Y-47073296D01*
X108704389Y-47007409D01*
X108704391Y-47007409D01*
X108654999Y-46994175D01*
X108577092Y-46973300D01*
X108573579Y-46973300D01*
X108571186Y-46972522D01*
X108570658Y-46972453D01*
X108570670Y-46972355D01*
X108515388Y-46954393D01*
X108479424Y-46904893D01*
X108477952Y-46848679D01*
X108492900Y-46792892D01*
X108492900Y-46661108D01*
X108458792Y-46533814D01*
X108458790Y-46533811D01*
X108458790Y-46533809D01*
X108392903Y-46419690D01*
X108392901Y-46419688D01*
X108392900Y-46419686D01*
X108299714Y-46326500D01*
X108299711Y-46326498D01*
X108299709Y-46326496D01*
X108185589Y-46260609D01*
X108185591Y-46260609D01*
X108136199Y-46247375D01*
X108058292Y-46226500D01*
X107926508Y-46226500D01*
X107848600Y-46247375D01*
X107799209Y-46260609D01*
X107685090Y-46326496D01*
X107591896Y-46419690D01*
X107526009Y-46533809D01*
X107526008Y-46533814D01*
X107491900Y-46661108D01*
X101156045Y-46661108D01*
X101166392Y-46643186D01*
X101200500Y-46515892D01*
X101200500Y-46384108D01*
X101166392Y-46256814D01*
X101166390Y-46256811D01*
X101166390Y-46256809D01*
X101100503Y-46142690D01*
X101100501Y-46142688D01*
X101100500Y-46142686D01*
X101007314Y-46049500D01*
X101007311Y-46049498D01*
X101007309Y-46049496D01*
X100893189Y-45983609D01*
X100893191Y-45983609D01*
X100843799Y-45970375D01*
X100765892Y-45949500D01*
X100634108Y-45949500D01*
X100556200Y-45970375D01*
X100506809Y-45983609D01*
X100392690Y-46049496D01*
X100299496Y-46142690D01*
X100233609Y-46256809D01*
X100233608Y-46256814D01*
X100199500Y-46384108D01*
X86000000Y-46384108D01*
X86000000Y-45179208D01*
X96053000Y-45179208D01*
X96053000Y-45310992D01*
X96083079Y-45423251D01*
X96087109Y-45438290D01*
X96152996Y-45552409D01*
X96152998Y-45552411D01*
X96153000Y-45552414D01*
X96246186Y-45645600D01*
X96246188Y-45645601D01*
X96246190Y-45645603D01*
X96360310Y-45711490D01*
X96360308Y-45711490D01*
X96360312Y-45711491D01*
X96360314Y-45711492D01*
X96487608Y-45745600D01*
X96487610Y-45745600D01*
X96619390Y-45745600D01*
X96619392Y-45745600D01*
X96746686Y-45711492D01*
X96746688Y-45711490D01*
X96746690Y-45711490D01*
X96860809Y-45645603D01*
X96860809Y-45645602D01*
X96860814Y-45645600D01*
X96954000Y-45552414D01*
X97019892Y-45438286D01*
X97054000Y-45310992D01*
X97054000Y-45179208D01*
X97019892Y-45051914D01*
X97019890Y-45051911D01*
X97019890Y-45051909D01*
X96954003Y-44937790D01*
X96954001Y-44937788D01*
X96954000Y-44937786D01*
X96860814Y-44844600D01*
X96860811Y-44844598D01*
X96860809Y-44844596D01*
X96746689Y-44778709D01*
X96746691Y-44778709D01*
X96697299Y-44765475D01*
X96619392Y-44744600D01*
X96487608Y-44744600D01*
X96409700Y-44765475D01*
X96360309Y-44778709D01*
X96246190Y-44844596D01*
X96152996Y-44937790D01*
X96087109Y-45051909D01*
X96087108Y-45051914D01*
X96053000Y-45179208D01*
X86000000Y-45179208D01*
X86000000Y-44099000D01*
X86018907Y-44040809D01*
X86068407Y-44004845D01*
X86099000Y-44000000D01*
X90163498Y-44000000D01*
X90212996Y-44013262D01*
G37*
%TD.AperFunction*%
%TD*%
%TA.AperFunction,Conductor*%
%TO.N,5V_CAN_ISO*%
G36*
X152750913Y-1518907D02*
G01*
X152786877Y-1568407D01*
X152786877Y-1629593D01*
X152769252Y-1661801D01*
X152688256Y-1760494D01*
X152674120Y-1777720D01*
X152674113Y-1777730D01*
X152304483Y-2469260D01*
X152304481Y-2469265D01*
X152076857Y-3219637D01*
X152076856Y-3219642D01*
X152000000Y-3999997D01*
X152000000Y-4000003D01*
X152076856Y-4780356D01*
X152076857Y-4780361D01*
X152304481Y-5530733D01*
X152304483Y-5530738D01*
X152674113Y-6222268D01*
X152674119Y-6222277D01*
X152674121Y-6222280D01*
X153171572Y-6828427D01*
X153777719Y-7325878D01*
X153777723Y-7325880D01*
X153777730Y-7325885D01*
X154469260Y-7695515D01*
X154469266Y-7695518D01*
X154992014Y-7854091D01*
X155219637Y-7923141D01*
X155219642Y-7923142D01*
X155999997Y-8000000D01*
X156000000Y-8000000D01*
X156000003Y-8000000D01*
X156780356Y-7923142D01*
X156780361Y-7923141D01*
X157530733Y-7695518D01*
X157778669Y-7562993D01*
X158222268Y-7325885D01*
X158222271Y-7325882D01*
X158222280Y-7325878D01*
X158338197Y-7230746D01*
X158395172Y-7208448D01*
X158454375Y-7223896D01*
X158493190Y-7271193D01*
X158500000Y-7307276D01*
X158500000Y-44901000D01*
X158481093Y-44959191D01*
X158431593Y-44995155D01*
X158401000Y-45000000D01*
X140099000Y-45000000D01*
X140040809Y-44981093D01*
X140004845Y-44931593D01*
X140000000Y-44901000D01*
X140000000Y-34611208D01*
X142497400Y-34611208D01*
X142497400Y-34742992D01*
X142527479Y-34855251D01*
X142531509Y-34870290D01*
X142597396Y-34984409D01*
X142597398Y-34984411D01*
X142597400Y-34984414D01*
X142690586Y-35077600D01*
X142690588Y-35077601D01*
X142690590Y-35077603D01*
X142804710Y-35143490D01*
X142804708Y-35143490D01*
X142804712Y-35143491D01*
X142804714Y-35143492D01*
X142932008Y-35177600D01*
X142932010Y-35177600D01*
X143063790Y-35177600D01*
X143063792Y-35177600D01*
X143191086Y-35143492D01*
X143191088Y-35143490D01*
X143191090Y-35143490D01*
X143305209Y-35077603D01*
X143305209Y-35077602D01*
X143305214Y-35077600D01*
X143398400Y-34984414D01*
X143464292Y-34870286D01*
X143498400Y-34742992D01*
X143498400Y-34611208D01*
X143464292Y-34483914D01*
X143464290Y-34483911D01*
X143464290Y-34483909D01*
X143398403Y-34369790D01*
X143398401Y-34369788D01*
X143398400Y-34369786D01*
X143305214Y-34276600D01*
X143305211Y-34276598D01*
X143305209Y-34276596D01*
X143191089Y-34210709D01*
X143191091Y-34210709D01*
X143141699Y-34197475D01*
X143063792Y-34176600D01*
X142932008Y-34176600D01*
X142854100Y-34197475D01*
X142804709Y-34210709D01*
X142690590Y-34276596D01*
X142597396Y-34369790D01*
X142531509Y-34483909D01*
X142531508Y-34483914D01*
X142497400Y-34611208D01*
X140000000Y-34611208D01*
X140000000Y-23934108D01*
X141659500Y-23934108D01*
X141659500Y-24065892D01*
X141689579Y-24178151D01*
X141693609Y-24193190D01*
X141759496Y-24307309D01*
X141759498Y-24307311D01*
X141759500Y-24307314D01*
X141852686Y-24400500D01*
X141852688Y-24400501D01*
X141852690Y-24400503D01*
X141966810Y-24466390D01*
X141966808Y-24466390D01*
X141966812Y-24466391D01*
X141966814Y-24466392D01*
X142094108Y-24500500D01*
X142094110Y-24500500D01*
X142225890Y-24500500D01*
X142225892Y-24500500D01*
X142353186Y-24466392D01*
X142353188Y-24466390D01*
X142353190Y-24466390D01*
X142467309Y-24400503D01*
X142467309Y-24400502D01*
X142467314Y-24400500D01*
X142560500Y-24307314D01*
X142626392Y-24193186D01*
X142660500Y-24065892D01*
X142660500Y-23934108D01*
X142626392Y-23806814D01*
X142626390Y-23806811D01*
X142626390Y-23806809D01*
X142560503Y-23692690D01*
X142560501Y-23692688D01*
X142560500Y-23692686D01*
X142467314Y-23599500D01*
X142467311Y-23599498D01*
X142467309Y-23599496D01*
X142353189Y-23533609D01*
X142353191Y-23533609D01*
X142303799Y-23520375D01*
X142225892Y-23499500D01*
X142094108Y-23499500D01*
X142016200Y-23520375D01*
X141966809Y-23533609D01*
X141852690Y-23599496D01*
X141759496Y-23692690D01*
X141693609Y-23806809D01*
X141693608Y-23806814D01*
X141659500Y-23934108D01*
X140000000Y-23934108D01*
X140000000Y-19115108D01*
X145149500Y-19115108D01*
X145149500Y-19246892D01*
X145179579Y-19359151D01*
X145183609Y-19374190D01*
X145249496Y-19488309D01*
X145249498Y-19488311D01*
X145249500Y-19488314D01*
X145342686Y-19581500D01*
X145342688Y-19581501D01*
X145342690Y-19581503D01*
X145456810Y-19647390D01*
X145456808Y-19647390D01*
X145456812Y-19647391D01*
X145456814Y-19647392D01*
X145584108Y-19681500D01*
X145584110Y-19681500D01*
X145715890Y-19681500D01*
X145715892Y-19681500D01*
X145843186Y-19647392D01*
X145843188Y-19647390D01*
X145843190Y-19647390D01*
X145957309Y-19581503D01*
X145957309Y-19581502D01*
X145957314Y-19581500D01*
X146050500Y-19488314D01*
X146116392Y-19374186D01*
X146150500Y-19246892D01*
X146150500Y-19115108D01*
X146116392Y-18987814D01*
X146116390Y-18987811D01*
X146116390Y-18987809D01*
X146050503Y-18873690D01*
X146050501Y-18873688D01*
X146050500Y-18873686D01*
X145957314Y-18780500D01*
X145957311Y-18780498D01*
X145957309Y-18780496D01*
X145843189Y-18714609D01*
X145843191Y-18714609D01*
X145793799Y-18701375D01*
X145715892Y-18680500D01*
X145584108Y-18680500D01*
X145506200Y-18701375D01*
X145456809Y-18714609D01*
X145342690Y-18780496D01*
X145249496Y-18873690D01*
X145183609Y-18987809D01*
X145183608Y-18987814D01*
X145149500Y-19115108D01*
X140000000Y-19115108D01*
X140000000Y-1599000D01*
X140018907Y-1540809D01*
X140068407Y-1504845D01*
X140099000Y-1500000D01*
X152692722Y-1500000D01*
X152750913Y-1518907D01*
G37*
%TD.AperFunction*%
%TD*%
M02*
