%TF.GenerationSoftware,KiCad,Pcbnew,10.0.5*%
%TF.CreationDate,2026-08-25T17:45:02+08:00*%
%TF.ProjectId,controller,636f6e74-726f-46c6-9c65-722e6b696361,EVT1*%
%TF.SameCoordinates,Original*%
%TF.FileFunction,Soldermask,Top*%
%TF.FilePolarity,Negative*%
%FSLAX46Y46*%
G04 Gerber Fmt 4.6, Leading zero omitted, Abs format (unit mm)*
G04 Created by KiCad (PCBNEW 10.0.5) date 2026-08-25 17:45:02*
%MOMM*%
%LPD*%
G01*
G04 APERTURE LIST*
G04 Aperture macros list*
%AMRoundRect*
0 Rectangle with rounded corners*
0 $1 Rounding radius*
0 $2 $3 $4 $5 $6 $7 $8 $9 X,Y pos of 4 corners*
0 Add a 4 corners polygon primitive as box body*
4,1,4,$2,$3,$4,$5,$6,$7,$8,$9,$2,$3,0*
0 Add four circle primitives for the rounded corners*
1,1,$1+$1,$2,$3*
1,1,$1+$1,$4,$5*
1,1,$1+$1,$6,$7*
1,1,$1+$1,$8,$9*
0 Add four rect primitives between the rounded corners*
20,1,$1+$1,$2,$3,$4,$5,0*
20,1,$1+$1,$4,$5,$6,$7,0*
20,1,$1+$1,$6,$7,$8,$9,0*
20,1,$1+$1,$8,$9,$2,$3,0*%
G04 Aperture macros list end*
%ADD10RoundRect,0.250000X-0.325000X-1.100000X0.325000X-1.100000X0.325000X1.100000X-0.325000X1.100000X0*%
%ADD11RoundRect,0.225000X-0.250000X0.225000X-0.250000X-0.225000X0.250000X-0.225000X0.250000X0.225000X0*%
%ADD12RoundRect,0.225000X0.225000X0.250000X-0.225000X0.250000X-0.225000X-0.250000X0.225000X-0.250000X0*%
%ADD13RoundRect,0.225000X0.250000X-0.225000X0.250000X0.225000X-0.250000X0.225000X-0.250000X-0.225000X0*%
%ADD14RoundRect,0.225000X-0.225000X-0.250000X0.225000X-0.250000X0.225000X0.250000X-0.225000X0.250000X0*%
%ADD15RoundRect,0.250000X-0.250000X-0.475000X0.250000X-0.475000X0.250000X0.475000X-0.250000X0.475000X0*%
%ADD16RoundRect,0.250001X0.949999X-0.949999X0.949999X0.949999X-0.949999X0.949999X-0.949999X-0.949999X0*%
%ADD17C,2.400000*%
%ADD18RoundRect,0.250000X0.250000X0.475000X-0.250000X0.475000X-0.250000X-0.475000X0.250000X-0.475000X0*%
%ADD19RoundRect,0.250000X-0.750000X-0.750000X0.750000X-0.750000X0.750000X0.750000X-0.750000X0.750000X0*%
%ADD20C,2.000000*%
%ADD21RoundRect,0.250000X1.000000X-1.400000X1.000000X1.400000X-1.000000X1.400000X-1.000000X-1.400000X0*%
%ADD22RoundRect,0.140000X-0.360000X-0.210000X0.360000X-0.210000X0.360000X0.210000X-0.360000X0.210000X0*%
%ADD23RoundRect,0.225000X-0.225000X-0.375000X0.225000X-0.375000X0.225000X0.375000X-0.225000X0.375000X0*%
%ADD24RoundRect,0.480000X-0.720000X-1.020000X0.720000X-1.020000X0.720000X1.020000X-0.720000X1.020000X0*%
%ADD25RoundRect,0.250000X-0.375000X-0.625000X0.375000X-0.625000X0.375000X0.625000X-0.375000X0.625000X0*%
%ADD26C,3.200000*%
%ADD27R,1.700000X1.700000*%
%ADD28C,1.700000*%
%ADD29RoundRect,0.220000X-0.380000X-0.330000X0.380000X-0.330000X0.380000X0.330000X-0.380000X0.330000X0*%
%ADD30RoundRect,0.162500X0.437500X0.162500X-0.437500X0.162500X-0.437500X-0.162500X0.437500X-0.162500X0*%
%ADD31R,4.500000X4.700000*%
%ADD32RoundRect,0.175000X0.325000X0.175000X-0.325000X0.175000X-0.325000X-0.175000X0.325000X-0.175000X0*%
%ADD33RoundRect,0.162500X-0.437500X-0.162500X0.437500X-0.162500X0.437500X0.162500X-0.437500X0.162500X0*%
%ADD34RoundRect,0.175000X-0.325000X-0.175000X0.325000X-0.175000X0.325000X0.175000X-0.325000X0.175000X0*%
%ADD35RoundRect,0.200000X-0.200000X-0.275000X0.200000X-0.275000X0.200000X0.275000X-0.200000X0.275000X0*%
%ADD36RoundRect,0.250000X-0.312500X-0.625000X0.312500X-0.625000X0.312500X0.625000X-0.312500X0.625000X0*%
%ADD37C,1.500000*%
%ADD38RoundRect,0.087500X-0.662500X-0.087500X0.662500X-0.087500X0.662500X0.087500X-0.662500X0.087500X0*%
%ADD39RoundRect,0.050000X-0.350000X-0.075000X0.350000X-0.075000X0.350000X0.075000X-0.350000X0.075000X0*%
%ADD40RoundRect,0.050000X-0.075000X-0.350000X0.075000X-0.350000X0.075000X0.350000X-0.075000X0.350000X0*%
%ADD41RoundRect,0.500000X-0.750000X-0.750000X0.750000X-0.750000X0.750000X0.750000X-0.750000X0.750000X0*%
%ADD42RoundRect,0.060000X-0.315000X-0.090000X0.315000X-0.090000X0.315000X0.090000X-0.315000X0.090000X0*%
%ADD43RoundRect,0.060000X-0.090000X-0.315000X0.090000X-0.315000X0.090000X0.315000X-0.090000X0.315000X0*%
%ADD44RoundRect,0.075000X-0.725000X-0.075000X0.725000X-0.075000X0.725000X0.075000X-0.725000X0.075000X0*%
%ADD45RoundRect,0.075000X-0.075000X-0.725000X0.075000X-0.725000X0.075000X0.725000X-0.075000X0.725000X0*%
%ADD46RoundRect,0.120000X-0.705000X-0.180000X0.705000X-0.180000X0.705000X0.180000X-0.705000X0.180000X0*%
%ADD47RoundRect,0.200000X-0.300000X-0.950000X0.300000X-0.950000X0.300000X0.950000X-0.300000X0.950000X0*%
%ADD48RoundRect,0.150000X-0.875000X-0.150000X0.875000X-0.150000X0.875000X0.150000X-0.875000X0.150000X0*%
%ADD49RoundRect,0.250000X-0.450000X-0.350000X0.450000X-0.350000X0.450000X0.350000X-0.450000X0.350000X0*%
G04 APERTURE END LIST*
D10*
%TO.C,C1*%
X29525000Y-36000000D03*
X32475000Y-36000000D03*
%TD*%
D11*
%TO.C,C10*%
X95500000Y-101725000D03*
X95500000Y-103275000D03*
%TD*%
%TO.C,C11*%
X95500000Y-104925000D03*
X95500000Y-106475000D03*
%TD*%
%TO.C,C12*%
X95500000Y-108125000D03*
X95500000Y-109675000D03*
%TD*%
D12*
%TO.C,C13*%
X101525000Y-113000000D03*
X99975000Y-113000000D03*
%TD*%
%TO.C,C14*%
X112525000Y-113000000D03*
X110975000Y-113000000D03*
%TD*%
D13*
%TO.C,C15*%
X116000000Y-98025000D03*
X116000000Y-96475000D03*
%TD*%
D14*
%TO.C,C16*%
X99475000Y-93000000D03*
X101025000Y-93000000D03*
%TD*%
D15*
%TO.C,C17*%
X107050000Y-91500000D03*
X108950000Y-91500000D03*
%TD*%
D14*
%TO.C,C18*%
X111225000Y-18000000D03*
X112775000Y-18000000D03*
%TD*%
%TO.C,C19*%
X121225000Y-111000000D03*
X122775000Y-111000000D03*
%TD*%
%TO.C,C20*%
X109230000Y-46755000D03*
X110780000Y-46755000D03*
%TD*%
D16*
%TO.C,C3*%
X105000000Y-39000000D03*
D17*
X105000000Y-34000000D03*
%TD*%
D15*
%TO.C,C4*%
X109550000Y-6500000D03*
X111450000Y-6500000D03*
%TD*%
D13*
%TO.C,C40*%
X127750000Y-36975000D03*
X127750000Y-35425000D03*
%TD*%
%TO.C,C41*%
X142250000Y-36975000D03*
X142250000Y-35425000D03*
%TD*%
D18*
%TO.C,C42*%
X133450000Y-14500000D03*
X131550000Y-14500000D03*
%TD*%
D15*
%TO.C,C43*%
X143750000Y-14000000D03*
X145650000Y-14000000D03*
%TD*%
D13*
%TO.C,C44*%
X142250000Y-43325000D03*
X142250000Y-41775000D03*
%TD*%
D19*
%TO.C,C5*%
X119000000Y-20500000D03*
D20*
X124000000Y-20500000D03*
%TD*%
D10*
%TO.C,C7*%
X86025000Y-56500000D03*
X88975000Y-56500000D03*
%TD*%
%TO.C,C8*%
X91525000Y-56500000D03*
X94475000Y-56500000D03*
%TD*%
D11*
%TO.C,C9*%
X95500000Y-98525000D03*
X95500000Y-100075000D03*
%TD*%
D14*
%TO.C,CG1*%
X24725000Y-26500000D03*
X26275000Y-26500000D03*
%TD*%
%TO.C,CSS4*%
X105230000Y-46755000D03*
X106780000Y-46755000D03*
%TD*%
D13*
%TO.C,CY1*%
X88500000Y-103275000D03*
X88500000Y-101725000D03*
%TD*%
D14*
%TO.C,CY2*%
X91225000Y-106500000D03*
X92775000Y-106500000D03*
%TD*%
D21*
%TO.C,D1*%
X28600000Y-10500000D03*
X35400000Y-10500000D03*
%TD*%
D22*
%TO.C,D2*%
X148800000Y-52200000D03*
X148800000Y-53800000D03*
X151200000Y-53800000D03*
X151200000Y-52200000D03*
%TD*%
D23*
%TO.C,D3*%
X18350000Y-82500000D03*
X21650000Y-82500000D03*
%TD*%
%TO.C,D4*%
X18350000Y-103500000D03*
X21650000Y-103500000D03*
%TD*%
D24*
%TO.C,F1*%
X19200000Y-13000000D03*
X24800000Y-13000000D03*
%TD*%
D25*
%TO.C,F2*%
X60905000Y-86155000D03*
X63705000Y-86155000D03*
%TD*%
D26*
%TO.C,H1*%
X4000000Y-4000000D03*
%TD*%
%TO.C,H2*%
X156000000Y-4000000D03*
%TD*%
%TO.C,H3*%
X156000000Y-126000000D03*
%TD*%
%TO.C,H4*%
X4000000Y-126000000D03*
%TD*%
D27*
%TO.C,J13*%
X134000000Y-115500000D03*
D28*
X134000000Y-118040000D03*
X134000000Y-120580000D03*
X134000000Y-123120000D03*
%TD*%
D27*
%TO.C,J4*%
X82000000Y-97000000D03*
D28*
X84540000Y-97000000D03*
X82000000Y-99540000D03*
X84540000Y-99540000D03*
X82000000Y-102080000D03*
X84540000Y-102080000D03*
X82000000Y-104620000D03*
X84540000Y-104620000D03*
X82000000Y-107160000D03*
X84540000Y-107160000D03*
X82000000Y-109700000D03*
X84540000Y-109700000D03*
X82000000Y-112240000D03*
X84540000Y-112240000D03*
X82000000Y-114780000D03*
X84540000Y-114780000D03*
X82000000Y-117320000D03*
X84540000Y-117320000D03*
X82000000Y-119860000D03*
X84540000Y-119860000D03*
%TD*%
D27*
%TO.C,JP1*%
X148000000Y-84000000D03*
D28*
X148000000Y-86540000D03*
%TD*%
D29*
%TO.C,L1*%
X142000000Y-46950000D03*
X142000000Y-49050000D03*
X146000000Y-49050000D03*
X146000000Y-46950000D03*
%TD*%
D30*
%TO.C,Q1*%
X24825000Y-22905000D03*
X24825000Y-21635000D03*
X24825000Y-20365000D03*
X24825000Y-19095000D03*
D31*
X21325000Y-21000000D03*
D32*
X19075000Y-22995000D03*
X19075000Y-21665000D03*
X19075000Y-20335000D03*
X19075000Y-19005000D03*
%TD*%
D33*
%TO.C,Q2*%
X27175000Y-19095000D03*
X27175000Y-20365000D03*
X27175000Y-21635000D03*
X27175000Y-22905000D03*
D31*
X30675000Y-21000000D03*
D34*
X32925000Y-19005000D03*
X32925000Y-20335000D03*
X32925000Y-21665000D03*
X32925000Y-22995000D03*
%TD*%
D35*
%TO.C,R30*%
X99175000Y-118000000D03*
X100825000Y-118000000D03*
%TD*%
%TO.C,R31*%
X103175000Y-118000000D03*
X104825000Y-118000000D03*
%TD*%
%TO.C,R32*%
X107175000Y-118000000D03*
X108825000Y-118000000D03*
%TD*%
%TO.C,R33*%
X111175000Y-118000000D03*
X112825000Y-118000000D03*
%TD*%
%TO.C,R34*%
X115175000Y-118000000D03*
X116825000Y-118000000D03*
%TD*%
%TO.C,R35*%
X119175000Y-118000000D03*
X120825000Y-118000000D03*
%TD*%
%TO.C,R36*%
X123175000Y-118000000D03*
X124825000Y-118000000D03*
%TD*%
%TO.C,R37*%
X99175000Y-123000000D03*
X100825000Y-123000000D03*
%TD*%
%TO.C,R38*%
X103175000Y-123000000D03*
X104825000Y-123000000D03*
%TD*%
%TO.C,R39*%
X107175000Y-123000000D03*
X108825000Y-123000000D03*
%TD*%
%TO.C,R40*%
X111175000Y-123000000D03*
X112825000Y-123000000D03*
%TD*%
%TO.C,R41*%
X115175000Y-123000000D03*
X116825000Y-123000000D03*
%TD*%
%TO.C,R42*%
X119175000Y-123000000D03*
X120825000Y-123000000D03*
%TD*%
%TO.C,R43*%
X117175000Y-115000000D03*
X118825000Y-115000000D03*
%TD*%
%TO.C,R44*%
X60680000Y-91755000D03*
X62330000Y-91755000D03*
%TD*%
%TO.C,R45*%
X60680000Y-94255000D03*
X62330000Y-94255000D03*
%TD*%
%TO.C,R46*%
X101180000Y-46755000D03*
X102830000Y-46755000D03*
%TD*%
%TO.C,R48*%
X107175000Y-18000000D03*
X108825000Y-18000000D03*
%TD*%
%TO.C,R49*%
X51680000Y-98255000D03*
X53330000Y-98255000D03*
%TD*%
%TO.C,R50*%
X55680000Y-98255000D03*
X57330000Y-98255000D03*
%TD*%
%TO.C,R52*%
X60680000Y-96755000D03*
X62330000Y-96755000D03*
%TD*%
%TO.C,R53*%
X47680000Y-98255000D03*
X49330000Y-98255000D03*
%TD*%
%TO.C,R54*%
X117175000Y-111000000D03*
X118825000Y-111000000D03*
%TD*%
%TO.C,R55*%
X123175000Y-114000000D03*
X124825000Y-114000000D03*
%TD*%
%TO.C,R56*%
X127175000Y-114000000D03*
X128825000Y-114000000D03*
%TD*%
%TO.C,R57*%
X60680000Y-89255000D03*
X62330000Y-89255000D03*
%TD*%
D36*
%TO.C,R58*%
X141537500Y-84000000D03*
X144462500Y-84000000D03*
%TD*%
D35*
%TO.C,R59*%
X107175000Y-26000000D03*
X108825000Y-26000000D03*
%TD*%
%TO.C,R60*%
X111175000Y-26000000D03*
X112825000Y-26000000D03*
%TD*%
%TO.C,RFB1*%
X93180000Y-46755000D03*
X94830000Y-46755000D03*
%TD*%
%TO.C,RFB2*%
X97180000Y-46755000D03*
X98830000Y-46755000D03*
%TD*%
%TO.C,RG1*%
X21175000Y-26500000D03*
X22825000Y-26500000D03*
%TD*%
%TO.C,RPG1*%
X107175000Y-22000000D03*
X108825000Y-22000000D03*
%TD*%
%TO.C,RPG2*%
X111175000Y-22000000D03*
X112825000Y-22000000D03*
%TD*%
D36*
%TO.C,RUV1*%
X8537500Y-26500000D03*
X11462500Y-26500000D03*
%TD*%
D35*
%TO.C,RUV2*%
X13175000Y-26500000D03*
X14825000Y-26500000D03*
%TD*%
%TO.C,RUV3*%
X17175000Y-30500000D03*
X18825000Y-30500000D03*
%TD*%
D37*
%TO.C,TP1*%
X8000000Y-82000000D03*
%TD*%
%TO.C,TP10*%
X101000000Y-62000000D03*
%TD*%
%TO.C,TP11*%
X102000000Y-3000000D03*
%TD*%
%TO.C,TP12*%
X108000000Y-3000000D03*
%TD*%
%TO.C,TP13*%
X121000000Y-3000000D03*
%TD*%
%TO.C,TP14*%
X48000000Y-82000000D03*
%TD*%
%TO.C,TP15*%
X54000000Y-82000000D03*
%TD*%
%TO.C,TP2*%
X62000000Y-82000000D03*
%TD*%
%TO.C,TP3*%
X72000000Y-82000000D03*
%TD*%
%TO.C,TP4*%
X88000000Y-82000000D03*
%TD*%
%TO.C,TP5*%
X94000000Y-82000000D03*
%TD*%
%TO.C,TP6*%
X141000000Y-88000000D03*
%TD*%
%TO.C,TP7*%
X152000000Y-88000000D03*
%TD*%
%TO.C,TP8*%
X104000000Y-82000000D03*
%TD*%
%TO.C,TP9*%
X151000000Y-12000000D03*
%TD*%
D38*
%TO.C,U1*%
X32400000Y-26700000D03*
X32400000Y-27200000D03*
X32400000Y-27700000D03*
X32400000Y-28200000D03*
X32400000Y-28700000D03*
X36600000Y-28700000D03*
X36600000Y-28200000D03*
X36600000Y-27700000D03*
X36600000Y-27200000D03*
X36600000Y-26700000D03*
%TD*%
D39*
%TO.C,U3*%
X109675000Y-10575000D03*
X109675000Y-11075000D03*
X109675000Y-11575000D03*
X109675000Y-12075000D03*
X109675000Y-12575000D03*
X109675000Y-13075000D03*
D40*
X110575000Y-13975000D03*
X111075000Y-13975000D03*
X111575000Y-13975000D03*
X112075000Y-13975000D03*
X112575000Y-13975000D03*
X113075000Y-13975000D03*
D39*
X113975000Y-13075000D03*
X113975000Y-12575000D03*
X113975000Y-12075000D03*
X113975000Y-11575000D03*
X113975000Y-11075000D03*
X113975000Y-10575000D03*
D40*
X113075000Y-9675000D03*
X112575000Y-9675000D03*
X112075000Y-9675000D03*
X111575000Y-9675000D03*
X111075000Y-9675000D03*
X110575000Y-9675000D03*
D41*
X111825000Y-11825000D03*
%TD*%
D42*
%TO.C,U4*%
X86775001Y-47375000D03*
X86775001Y-48075000D03*
X86775001Y-48775000D03*
X86775001Y-49475000D03*
X86775001Y-50174999D03*
X86775001Y-50874999D03*
X86775001Y-51574999D03*
X86775001Y-52274999D03*
D43*
X87775000Y-52875000D03*
X88475000Y-52875000D03*
X89174999Y-52875000D03*
X89874999Y-52875000D03*
D42*
X90874999Y-52275000D03*
X90874999Y-51575000D03*
X90874999Y-50875000D03*
X90874999Y-50175000D03*
X90874999Y-49475001D03*
X90874999Y-48775001D03*
X90874999Y-48075001D03*
X90874999Y-47375001D03*
D43*
X89875000Y-46775000D03*
X89175000Y-46775000D03*
X88475001Y-46775000D03*
X87775001Y-46775000D03*
%TD*%
D44*
%TO.C,U5*%
X98325000Y-97000000D03*
X98325000Y-97500000D03*
X98325000Y-98000000D03*
X98325000Y-98500000D03*
X98325000Y-99000000D03*
X98325000Y-99500000D03*
X98325000Y-100000000D03*
X98325000Y-100500000D03*
X98325000Y-101000000D03*
X98325000Y-101500000D03*
X98325000Y-102000000D03*
X98325000Y-102500000D03*
X98325000Y-103000000D03*
X98325000Y-103500000D03*
X98325000Y-104000000D03*
X98325000Y-104500000D03*
X98325000Y-105000000D03*
X98325000Y-105500000D03*
X98325000Y-106000000D03*
X98325000Y-106500000D03*
X98325000Y-107000000D03*
X98325000Y-107500000D03*
X98325000Y-108000000D03*
X98325000Y-108500000D03*
X98325000Y-109000000D03*
D45*
X100000000Y-110675000D03*
X100500000Y-110675000D03*
X101000000Y-110675000D03*
X101500000Y-110675000D03*
X102000000Y-110675000D03*
X102500000Y-110675000D03*
X103000000Y-110675000D03*
X103500000Y-110675000D03*
X104000000Y-110675000D03*
X104500000Y-110675000D03*
X105000000Y-110675000D03*
X105500000Y-110675000D03*
X106000000Y-110675000D03*
X106500000Y-110675000D03*
X107000000Y-110675000D03*
X107500000Y-110675000D03*
X108000000Y-110675000D03*
X108500000Y-110675000D03*
X109000000Y-110675000D03*
X109500000Y-110675000D03*
X110000000Y-110675000D03*
X110500000Y-110675000D03*
X111000000Y-110675000D03*
X111500000Y-110675000D03*
X112000000Y-110675000D03*
D44*
X113675000Y-109000000D03*
X113675000Y-108500000D03*
X113675000Y-108000000D03*
X113675000Y-107500000D03*
X113675000Y-107000000D03*
X113675000Y-106500000D03*
X113675000Y-106000000D03*
X113675000Y-105500000D03*
X113675000Y-105000000D03*
X113675000Y-104500000D03*
X113675000Y-104000000D03*
X113675000Y-103500000D03*
X113675000Y-103000000D03*
X113675000Y-102500000D03*
X113675000Y-102000000D03*
X113675000Y-101500000D03*
X113675000Y-101000000D03*
X113675000Y-100500000D03*
X113675000Y-100000000D03*
X113675000Y-99500000D03*
X113675000Y-99000000D03*
X113675000Y-98500000D03*
X113675000Y-98000000D03*
X113675000Y-97500000D03*
X113675000Y-97000000D03*
D45*
X112000000Y-95325000D03*
X111500000Y-95325000D03*
X111000000Y-95325000D03*
X110500000Y-95325000D03*
X110000000Y-95325000D03*
X109500000Y-95325000D03*
X109000000Y-95325000D03*
X108500000Y-95325000D03*
X108000000Y-95325000D03*
X107500000Y-95325000D03*
X107000000Y-95325000D03*
X106500000Y-95325000D03*
X106000000Y-95325000D03*
X105500000Y-95325000D03*
X105000000Y-95325000D03*
X104500000Y-95325000D03*
X104000000Y-95325000D03*
X103500000Y-95325000D03*
X103000000Y-95325000D03*
X102500000Y-95325000D03*
X102000000Y-95325000D03*
X101500000Y-95325000D03*
X101000000Y-95325000D03*
X100500000Y-95325000D03*
X100000000Y-95325000D03*
%TD*%
D46*
%TO.C,U6*%
X130125000Y-35555000D03*
X130125000Y-36825000D03*
X130125000Y-38095000D03*
X130125000Y-39365000D03*
X130125000Y-40634999D03*
X130125000Y-41904999D03*
X130125000Y-43175000D03*
X130125000Y-44445000D03*
X139875000Y-44445000D03*
X139875000Y-43175000D03*
X139875000Y-41904999D03*
X139875000Y-40634999D03*
X139875000Y-39365000D03*
X139875000Y-38095000D03*
X139875000Y-36825000D03*
X139875000Y-35555000D03*
%TD*%
D47*
%TO.C,U7*%
X131690000Y-19300000D03*
X134230000Y-19300000D03*
X139310000Y-19300000D03*
X139310000Y-28700000D03*
X131690000Y-28700000D03*
%TD*%
D48*
%TO.C,U8*%
X48350000Y-86555000D03*
X48350000Y-87825000D03*
X48350000Y-89095000D03*
X48350000Y-90365000D03*
X48350000Y-91635000D03*
X48350000Y-92905000D03*
X48350000Y-94175000D03*
X48350000Y-95445000D03*
X57650000Y-95445000D03*
X57650000Y-94175000D03*
X57650000Y-92905000D03*
X57650000Y-91635000D03*
X57650000Y-90365000D03*
X57650000Y-89095000D03*
X57650000Y-87825000D03*
X57650000Y-86555000D03*
%TD*%
D49*
%TO.C,Y1*%
X90900000Y-103850000D03*
X93100000Y-103850000D03*
X93100000Y-102150000D03*
X90900000Y-102150000D03*
%TD*%
M02*
