%TF.GenerationSoftware,KiCad,Pcbnew,10.0.5*%
%TF.CreationDate,2026-08-25T17:45:02+08:00*%
%TF.ProjectId,controller,636f6e74-726f-46c6-9c65-722e6b696361,EVT1*%
%TF.SameCoordinates,Original*%
%TF.FileFunction,Copper,L7,Inr*%
%TF.FilePolarity,Positive*%
%FSLAX46Y46*%
G04 Gerber Fmt 4.6, Leading zero omitted, Abs format (unit mm)*
G04 Created by KiCad (PCBNEW 10.0.5) date 2026-08-25 17:45:02*
%MOMM*%
%LPD*%
G01*
G04 APERTURE LIST*
G04 Aperture macros list*
%AMRoundRect*
0 Rectangle with rounded corners*
0 $1 Rounding radius*
0 $2 $3 $4 $5 $6 $7 $8 $9 X,Y pos of 4 corners*
0 Add a 4 corners polygon primitive as box body*
4,1,4,$2,$3,$4,$5,$6,$7,$8,$9,$2,$3,0*
0 Add four circle primitives for the rounded corners*
1,1,$1+$1,$2,$3*
1,1,$1+$1,$4,$5*
1,1,$1+$1,$6,$7*
1,1,$1+$1,$8,$9*
0 Add four rect primitives between the rounded corners*
20,1,$1+$1,$2,$3,$4,$5,0*
20,1,$1+$1,$4,$5,$6,$7,0*
20,1,$1+$1,$6,$7,$8,$9,0*
20,1,$1+$1,$8,$9,$2,$3,0*%
G04 Aperture macros list end*
%TA.AperFunction,ComponentPad*%
%ADD10RoundRect,0.250001X0.949999X-0.949999X0.949999X0.949999X-0.949999X0.949999X-0.949999X-0.949999X0*%
%TD*%
%TA.AperFunction,ComponentPad*%
%ADD11C,2.400000*%
%TD*%
%TA.AperFunction,ComponentPad*%
%ADD12RoundRect,0.250000X-0.750000X-0.750000X0.750000X-0.750000X0.750000X0.750000X-0.750000X0.750000X0*%
%TD*%
%TA.AperFunction,ComponentPad*%
%ADD13C,2.000000*%
%TD*%
%TA.AperFunction,ComponentPad*%
%ADD14R,1.700000X1.700000*%
%TD*%
%TA.AperFunction,ComponentPad*%
%ADD15C,1.700000*%
%TD*%
%TA.AperFunction,ComponentPad*%
%ADD16C,2.800000*%
%TD*%
%TA.AperFunction,ComponentPad*%
%ADD17C,3.800000*%
%TD*%
%TA.AperFunction,ViaPad*%
%ADD18C,0.600000*%
%TD*%
%TA.AperFunction,ViaPad*%
%ADD19C,0.800000*%
%TD*%
%TA.AperFunction,Conductor*%
%ADD20C,0.250000*%
%TD*%
%TA.AperFunction,Conductor*%
%ADD21C,0.200000*%
%TD*%
G04 APERTURE END LIST*
D10*
%TO.N,12V_ISO*%
%TO.C,C3*%
X105000000Y-39000000D03*
D11*
%TO.N,GND*%
X105000000Y-34000000D03*
%TD*%
D12*
%TO.N,JETSON_12V*%
%TO.C,C5*%
X119000000Y-20500000D03*
D13*
%TO.N,GND*%
X124000000Y-20500000D03*
%TD*%
D11*
%TO.N,VBAT_RAW*%
%TO.C,J1*%
X9500000Y-13000000D03*
X12500000Y-13000000D03*
%TO.N,GND_PWR*%
X9500000Y-16000000D03*
X12500000Y-16000000D03*
%TD*%
%TO.N,ESTOP_12V*%
%TO.C,J10*%
X69500000Y-89500000D03*
%TO.N,ESTOP_CH_A_RETURN*%
X72500000Y-89500000D03*
%TO.N,ESTOP_12V*%
X69500000Y-92500000D03*
%TO.N,ESTOP_CH_B_RETURN*%
X72500000Y-92500000D03*
%TD*%
%TO.N,MOTOR_ENABLE_SAFE*%
%TO.C,J11*%
X51500000Y-105500000D03*
%TO.N,ESTOP_SENSE*%
X54500000Y-105500000D03*
%TO.N,GND*%
X51500000Y-108500000D03*
%TO.N,3V3_LOGIC*%
X54500000Y-108500000D03*
%TD*%
%TO.N,ESTOP_CH_A_RETURN*%
%TO.C,J12*%
X69500000Y-105500000D03*
%TO.N,RESET_CH_A_RETURN*%
X72500000Y-105500000D03*
%TO.N,ESTOP_CH_B_RETURN*%
X69500000Y-108500000D03*
%TO.N,RESET_CH_B_RETURN*%
X72500000Y-108500000D03*
%TD*%
D14*
%TO.N,3V3_LOGIC*%
%TO.C,J13*%
X134000000Y-115500000D03*
D15*
%TO.N,SWDIO*%
X134000000Y-118040000D03*
%TO.N,SWCLK*%
X134000000Y-120580000D03*
%TO.N,GND*%
X134000000Y-123120000D03*
%TD*%
D11*
%TO.N,12V_ISO*%
%TO.C,J2*%
X116500000Y-74500000D03*
X119500000Y-74500000D03*
%TO.N,GND*%
X116500000Y-77500000D03*
X119500000Y-77500000D03*
%TD*%
%TO.N,JETSON_12V*%
%TO.C,J3*%
X116000000Y-31000000D03*
X119000000Y-31000000D03*
%TO.N,GND*%
X116000000Y-34000000D03*
X119000000Y-34000000D03*
%TD*%
D14*
%TO.N,3V3_LOGIC*%
%TO.C,J4*%
X82000000Y-97000000D03*
D15*
%TO.N,GND*%
X84540000Y-97000000D03*
%TO.N,3V3_LOGIC*%
X82000000Y-99540000D03*
%TO.N,GND*%
X84540000Y-99540000D03*
%TO.N,SPI_SCLK*%
X82000000Y-102080000D03*
%TO.N,SPI_MOSI*%
X84540000Y-102080000D03*
%TO.N,SPI_MISO*%
X82000000Y-104620000D03*
%TO.N,JETSON_ENABLE_REQ*%
X84540000Y-104620000D03*
%TO.N,MOTOR_CS0*%
X82000000Y-107160000D03*
%TO.N,MOTOR_CS1*%
X84540000Y-107160000D03*
%TO.N,MOTOR_CS2*%
X82000000Y-109700000D03*
%TO.N,MOTOR_CS3*%
X84540000Y-109700000D03*
%TO.N,MOTOR_CS4*%
X82000000Y-112240000D03*
%TO.N,MOTOR_CS5*%
X84540000Y-112240000D03*
%TO.N,I2C_SDA*%
X82000000Y-114780000D03*
%TO.N,I2C_SCL*%
X84540000Y-114780000D03*
%TO.N,ESTOP_SENSE*%
X82000000Y-117320000D03*
%TO.N,UART_TX*%
X84540000Y-117320000D03*
%TO.N,UART_RX*%
X82000000Y-119860000D03*
%TO.N,MCU_RESET*%
X84540000Y-119860000D03*
%TD*%
D11*
%TO.N,CANH*%
%TO.C,J5*%
X148000000Y-62500000D03*
%TO.N,CANL*%
X151000000Y-62500000D03*
%TO.N,GND_CAN_ISO*%
X148000000Y-65500000D03*
%TO.N,N/C*%
X151000000Y-65500000D03*
%TD*%
%TO.N,CANH*%
%TO.C,J6*%
X148000000Y-74500000D03*
%TO.N,CANL*%
X151000000Y-74500000D03*
%TO.N,GND_CAN_ISO*%
X148000000Y-77500000D03*
%TO.N,N/C*%
X151000000Y-77500000D03*
%TD*%
D14*
%TO.N,CAN_TERM*%
%TO.C,JP1*%
X148000000Y-84000000D03*
D15*
%TO.N,CANL*%
X148000000Y-86540000D03*
%TD*%
D13*
%TO.N,RESET_CH_A_RETURN*%
%TO.C,K1*%
X17000000Y-87000000D03*
%TO.N,GND*%
X23000000Y-87000000D03*
%TO.N,MOTOR_ENABLE_REQ*%
X29000000Y-87000000D03*
%TO.N,SAFE_STAGE_A*%
X35000000Y-87000000D03*
%TO.N,3V3_LOGIC*%
X41000000Y-87000000D03*
%TO.N,SENSE_STAGE_A*%
X41000000Y-99000000D03*
%TO.N,ESTOP_CH_A_RETURN*%
X35000000Y-99000000D03*
%TO.N,RESET_CH_A_RETURN*%
X29000000Y-99000000D03*
%TO.N,3V3_LOGIC*%
X23000000Y-99000000D03*
%TO.N,RELAY_A_NC*%
X17000000Y-99000000D03*
%TD*%
%TO.N,RESET_CH_B_RETURN*%
%TO.C,K2*%
X17000000Y-108000000D03*
%TO.N,GND*%
X23000000Y-108000000D03*
%TO.N,SAFE_STAGE_A*%
X29000000Y-108000000D03*
%TO.N,MOTOR_ENABLE_SAFE*%
X35000000Y-108000000D03*
%TO.N,SENSE_STAGE_A*%
X41000000Y-108000000D03*
%TO.N,ESTOP_SENSE*%
X41000000Y-120000000D03*
%TO.N,ESTOP_CH_B_RETURN*%
X35000000Y-120000000D03*
%TO.N,RESET_CH_B_RETURN*%
X29000000Y-120000000D03*
%TO.N,3V3_LOGIC*%
X23000000Y-120000000D03*
%TO.N,RELAY_B_NC*%
X17000000Y-120000000D03*
%TD*%
D16*
%TO.N,VBAT_PROTECTED*%
%TO.C,U2*%
X42600000Y-18380000D03*
%TO.N,GND_PWR*%
X42600000Y-26000000D03*
X42600000Y-33620000D03*
D17*
%TO.N,GND*%
X93400000Y-33620000D03*
D16*
X93400000Y-29810000D03*
%TO.N,N/C*%
X93400000Y-26000000D03*
%TO.N,12V_ISO*%
X93400000Y-22190000D03*
D17*
X93400000Y-18380000D03*
%TD*%
D18*
%TO.N,MOTOR_CS4*%
X100094800Y-122269800D03*
%TO.N,SPI_SCLK*%
X100207600Y-117172200D03*
%TO.N,12V_ISO*%
X100700000Y-46450000D03*
%TO.N,GND*%
X101000000Y-101500000D03*
%TO.N,3V3_PGOOD*%
X101000000Y-59500000D03*
%TO.N,U4_CTRL*%
X101447400Y-48137600D03*
%TO.N,SPI_SCLK_MCU*%
X102000000Y-111931200D03*
%TO.N,JETSON_PGOOD*%
X102000000Y-8000000D03*
D19*
%TO.N,12V_ISO*%
X102375800Y-25454200D03*
D18*
%TO.N,SPI_MISO_MCU*%
X102500000Y-109420400D03*
%TO.N,SPI_MOSI_MCU*%
X103000000Y-111937600D03*
%TO.N,BOOT0*%
X103000000Y-96579200D03*
%TO.N,SPI_MOSI_MCU*%
X103173400Y-117071300D03*
%TO.N,MOTOR_CS5_MCU*%
X103175000Y-122063400D03*
%TO.N,I2C_SDA_MCU*%
X103627900Y-97021500D03*
%TO.N,I2C_SCL_MCU*%
X103660700Y-94058700D03*
%TO.N,MCU_RESET*%
X104000000Y-83203500D03*
%TO.N,MOTOR_CS0_MCU*%
X104500000Y-111929000D03*
%TO.N,JETSON_ENABLE_REQ*%
X104500000Y-96584900D03*
%TO.N,U4_SS*%
X104510700Y-47474300D03*
%TO.N,SPI_MOSI*%
X104825000Y-117033100D03*
%TO.N,MOTOR_CS5*%
X104825000Y-122060700D03*
%TO.N,MOTOR_CS1_MCU*%
X105321000Y-111932800D03*
%TO.N,MOTOR_CS5_MCU*%
X105536400Y-108582400D03*
%TO.N,I2C_SCL_MCU*%
X106447400Y-122272400D03*
%TO.N,SPI_MISO_MCU*%
X106466900Y-118708100D03*
D19*
%TO.N,JETSON_12V*%
X107524000Y-20966600D03*
D18*
%TO.N,U3_ILIM*%
X107914000Y-17261000D03*
%TO.N,GND*%
X107992400Y-46727000D03*
%TO.N,JETSON_FAULT_N*%
X108000000Y-5000000D03*
%TO.N,SPI_MISO*%
X108114900Y-117289900D03*
%TO.N,U4_VCC*%
X108511200Y-47473800D03*
%TO.N,CAN_TX*%
X109000000Y-94056800D03*
%TO.N,3V3_LOGIC*%
X109556700Y-113108500D03*
%TO.N,I2C_SCL*%
X109558800Y-122266200D03*
%TO.N,U3_UVLO*%
X109675000Y-13678400D03*
%TO.N,GND*%
X109834600Y-90615400D03*
%TO.N,CAN_RX*%
X109898600Y-94059300D03*
%TO.N,I2C_SDA_MCU*%
X110316500Y-123000000D03*
%TO.N,MOTOR_CS0_MCU*%
X110464900Y-117289900D03*
%TO.N,MOTOR_CS2_MCU*%
X110533000Y-111953000D03*
%TO.N,ESTOP_B_MON*%
X110928000Y-105425500D03*
%TO.N,U3_UVLO*%
X111008600Y-25069200D03*
%TO.N,RELAY_B_NC*%
X111022600Y-107379400D03*
%TO.N,ESTOP_A_MON*%
X111208900Y-106179600D03*
%TO.N,GND*%
X111640200Y-112225100D03*
%TO.N,U3_PGTH*%
X111895000Y-21280000D03*
%TO.N,MOTOR_CS0*%
X112116100Y-117291100D03*
%TO.N,RELAY_A_NC*%
X112403400Y-107233900D03*
%TO.N,UART_TX_MCU*%
X112405000Y-100320900D03*
%TO.N,U3_ILIM*%
X112409700Y-14850700D03*
%TO.N,SWCLK*%
X112613900Y-95394000D03*
%TO.N,3V3_LOGIC*%
X112716100Y-111251400D03*
%TO.N,GND*%
X112724300Y-96397200D03*
%TO.N,I2C_SDA*%
X112825000Y-122033000D03*
%TO.N,MOTOR_CS4_MCU*%
X113206800Y-109612000D03*
D19*
%TO.N,JETSON_12V*%
X113500000Y-8100000D03*
X113500000Y-8800000D03*
D18*
%TO.N,3V3_LOGIC*%
X114110900Y-16679200D03*
%TO.N,U3_IMON*%
X114180000Y-6755000D03*
%TO.N,MOTOR_CS1_MCU*%
X114464900Y-117289900D03*
D19*
%TO.N,JETSON_12V*%
X114500000Y-8100000D03*
X114500000Y-8800000D03*
D18*
%TO.N,JETSON_PGOOD*%
X114831100Y-11104100D03*
%TO.N,SWDIO*%
X114927200Y-98574500D03*
%TO.N,MOTOR_ENABLE_REQ*%
X114931600Y-108000000D03*
%TO.N,UART_RX_MCU*%
X114937100Y-100074400D03*
%TO.N,ESTOP_SENSE*%
X114940000Y-107092300D03*
%TO.N,UART_TX_MCU*%
X115175000Y-123952600D03*
%TO.N,U3_PGTH*%
X115232900Y-10404600D03*
%TO.N,JETSON_FAULT_N*%
X115327000Y-9643500D03*
%TO.N,GND*%
X115830000Y-6755000D03*
%TO.N,MOTOR_CS1*%
X116123900Y-117278100D03*
%TO.N,UART_TX*%
X116317400Y-122086100D03*
%TO.N,BOOT0*%
X116440600Y-114265600D03*
%TO.N,MOTOR_CS3_MCU*%
X116670300Y-109998100D03*
%TO.N,MOTOR_CS2_MCU*%
X118320000Y-118000000D03*
%TO.N,UART_RX_MCU*%
X118449000Y-122274000D03*
%TO.N,MCU_RESET*%
X118646100Y-109621100D03*
%TO.N,MOTOR_CS2*%
X120115700Y-117290700D03*
%TO.N,GND*%
X120357300Y-113456300D03*
%TO.N,UART_RX*%
X120825000Y-122049500D03*
%TO.N,U3_IMON*%
X121000000Y-5000000D03*
%TO.N,MOTOR_CS3_MCU*%
X122466900Y-118708100D03*
%TO.N,I2C_SCL*%
X124108600Y-113283600D03*
%TO.N,MOTOR_CS3*%
X124125400Y-117300400D03*
%TO.N,GND*%
X127200000Y-44445000D03*
X128600000Y-37519200D03*
%TO.N,CAN_TX*%
X128600000Y-38789200D03*
%TO.N,CAN_RX*%
X128600000Y-39940800D03*
%TO.N,I2C_SDA*%
X128824999Y-114932900D03*
%TO.N,UV_SET*%
X13175000Y-27455200D03*
%TO.N,GND*%
X130000000Y-14500000D03*
D19*
%TO.N,3V3_LOGIC*%
X130125000Y-33000000D03*
D18*
%TO.N,GND_CAN_ISO*%
X142160000Y-24000000D03*
%TO.N,5V_CAN_ISO*%
X142571000Y-40705700D03*
%TO.N,GND_CAN_ISO*%
X142997900Y-34677100D03*
X145650000Y-19181000D03*
%TO.N,5V_CAN_ISO*%
X147240000Y-24000000D03*
%TO.N,GND_CAN_ISO*%
X151200000Y-54631300D03*
%TO.N,OV_SET*%
X17175000Y-29380900D03*
D19*
%TO.N,VBAT_RAW*%
X17427700Y-13215500D03*
%TO.N,GND_PWR*%
X18976000Y-29466600D03*
D18*
%TO.N,U1_GATE*%
X21909400Y-25765600D03*
%TO.N,FET_GATE*%
X25600700Y-18319300D03*
X26065300Y-23035400D03*
D19*
%TO.N,FET_COMMON*%
X28083700Y-16174600D03*
%TO.N,VBAT_PROTECTED*%
X28083700Y-34558700D03*
X29525000Y-36000000D03*
%TO.N,FET_COMMON*%
X30106400Y-25587600D03*
D18*
%TO.N,OV_SET*%
X31148300Y-27694900D03*
%TO.N,UV_SET*%
X31168200Y-28493600D03*
D19*
%TO.N,INPUT_SENSE*%
X32000000Y-20400000D03*
X32000000Y-21600000D03*
D18*
%TO.N,VBAT_FUSED*%
X32400000Y-30000000D03*
D19*
X32865800Y-30582800D03*
D18*
%TO.N,INPUT_SENSE*%
X33500000Y-23500000D03*
%TO.N,VBAT_FUSED*%
X35175000Y-34000000D03*
%TO.N,U1_GATE*%
X35972300Y-26072300D03*
%TO.N,U1_SHDN*%
X36825000Y-34000000D03*
%TO.N,INPUT_SENSE*%
X37500000Y-23500000D03*
%TO.N,VBAT_PROTECTED*%
X38500000Y-27700000D03*
D19*
X41100000Y-16880000D03*
X41100000Y-18380000D03*
X41100000Y-19880000D03*
%TO.N,GND_PWR*%
X41100000Y-32119999D03*
X41100000Y-33620000D03*
X41100000Y-35120000D03*
X42000000Y-53550000D03*
%TO.N,VBAT_PROTECTED*%
X42600000Y-16880000D03*
X42600000Y-19880000D03*
%TO.N,GND_PWR*%
X42600000Y-32119999D03*
X42600000Y-35120000D03*
%TO.N,VBAT_PROTECTED*%
X44100000Y-16880000D03*
X44100000Y-18380000D03*
X44100000Y-19880000D03*
%TO.N,GND_PWR*%
X44100000Y-32119999D03*
X44100000Y-33620000D03*
X44100000Y-35120000D03*
D18*
%TO.N,ESTOP_A_MON*%
X48000000Y-84000000D03*
%TO.N,U8_LED_A_K*%
X49602200Y-87193000D03*
%TO.N,ESTOP_CH_B_RETURN*%
X49653500Y-89789200D03*
%TO.N,GND*%
X50046900Y-97538100D03*
%TO.N,ESTOP_A_MON*%
X53330000Y-96500000D03*
X53330000Y-97325500D03*
%TO.N,ESTOP_B_MON*%
X54000000Y-84000000D03*
X54784000Y-89787600D03*
%TO.N,ESTOP_A_MON*%
X56385400Y-87193000D03*
%TO.N,ESTOP_B_MON*%
X57330000Y-96500000D03*
X58059700Y-97525300D03*
%TO.N,U8_LED_A_K*%
X59826000Y-96485400D03*
%TO.N,RELAY_A_NC*%
X60028600Y-92503700D03*
%TO.N,RELAY_B_NC*%
X60088700Y-95085000D03*
%TO.N,ESTOP_SENSE*%
X60680000Y-90208500D03*
D19*
%TO.N,12V_ISO*%
X62921100Y-81078900D03*
%TO.N,JETSON_12V*%
X79766200Y-82000000D03*
%TO.N,VBAT_PROTECTED*%
X8000000Y-80540600D03*
D18*
%TO.N,GND*%
X83459300Y-33929200D03*
%TO.N,U4_VCC*%
X85946200Y-50600400D03*
%TO.N,3V3_LOGIC*%
X86025000Y-58334500D03*
X86680000Y-6755000D03*
X87403800Y-83169100D03*
%TO.N,JETSON_PGOOD*%
X88330000Y-6755000D03*
%TO.N,GND*%
X88500000Y-100100000D03*
X88975000Y-58323000D03*
%TO.N,JETSON_PGOOD*%
X89032200Y-7457200D03*
%TO.N,GND*%
X89662900Y-48775000D03*
D19*
%TO.N,VBAT_FUSED*%
X9551200Y-27928900D03*
%TO.N,12V_ISO*%
X90525000Y-43500000D03*
D18*
%TO.N,3V3_LOGIC*%
X90680000Y-6755000D03*
X91478600Y-7553600D03*
D19*
X91525000Y-56500000D03*
D18*
%TO.N,U4_CTRL*%
X91705300Y-50076700D03*
%TO.N,U4_SS*%
X91732800Y-48349600D03*
D19*
%TO.N,12V_ISO*%
X91900000Y-16880000D03*
X91900000Y-18380000D03*
X91900000Y-19880000D03*
%TO.N,GND*%
X91900000Y-32119999D03*
X91900000Y-33620000D03*
X91900000Y-35120000D03*
D18*
X92200000Y-107200000D03*
%TO.N,JETSON_FAULT_N*%
X92330000Y-6755000D03*
X93043000Y-7468000D03*
D19*
%TO.N,12V_ISO*%
X93400000Y-16880000D03*
X93400000Y-19880000D03*
%TO.N,GND*%
X93400000Y-32119999D03*
X93400000Y-35120000D03*
X93475000Y-43500000D03*
D18*
X93694400Y-54857100D03*
X94500000Y-100075000D03*
X94872600Y-82872600D03*
D19*
%TO.N,12V_ISO*%
X94900000Y-16880000D03*
X94900000Y-18380000D03*
X94900000Y-19880000D03*
%TO.N,GND*%
X94900000Y-32119999D03*
X94900000Y-33620000D03*
X94900000Y-35120000D03*
D18*
X95500000Y-102800000D03*
X95500000Y-106200000D03*
%TO.N,3V3_LOGIC*%
X96200000Y-101725000D03*
%TO.N,GND*%
X96553500Y-45245100D03*
%TO.N,3V3_LOGIC*%
X96958900Y-105517300D03*
%TO.N,MCU_RESET*%
X97068700Y-103505800D03*
%TO.N,MOTOR_CS4_MCU*%
X98317300Y-122702200D03*
%TO.N,SPI_SCLK_MCU*%
X99175000Y-117060900D03*
%TO.N,3V3_LOGIC*%
X99633100Y-99500000D03*
%TD*%
%TO.N,JETSON_PGOOD*%
D20*
X102000000Y-10000000D02*
X88330000Y-10000000D01*
X102000000Y-8000000D02*
X102000000Y-10000000D01*
%TO.N,ESTOP_SENSE*%
X104053200Y-108407600D02*
X104506200Y-107954600D01*
%TO.N,RELAY_A_NC*%
X104458200Y-98128400D02*
X112403300Y-106073500D01*
%TO.N,ESTOP_SENSE*%
X104506200Y-107954600D02*
X110227500Y-107954600D01*
%TO.N,JETSON_FAULT_N*%
X108000000Y-5000000D02*
X92330000Y-6755000D01*
%TO.N,I2C_SCL*%
X109558800Y-122266200D02*
X112152900Y-122266200D01*
%TO.N,ESTOP_SENSE*%
X110227500Y-107954600D02*
X110296800Y-108023900D01*
X110296800Y-108023900D02*
X114008400Y-108023900D01*
%TO.N,ESTOP_A_MON*%
X111208900Y-106179600D02*
X96805700Y-106179600D01*
%TO.N,I2C_SDA*%
X111499200Y-120707200D02*
X112825000Y-122033000D01*
%TO.N,I2C_SCL*%
X112152900Y-122266200D02*
X112544300Y-122657600D01*
%TO.N,MOTOR_CS2*%
X112311200Y-110840800D02*
X83140800Y-110840800D01*
%TO.N,RELAY_A_NC*%
X112403300Y-106073500D02*
X112403300Y-107233900D01*
X112403300Y-107233900D02*
X112403400Y-107233900D01*
%TO.N,MOTOR_CS2*%
X112477300Y-110674700D02*
X112311200Y-110840800D01*
%TO.N,I2C_SCL*%
X112544300Y-122657600D02*
X114501600Y-122657600D01*
%TO.N,MOTOR_CS2*%
X113687600Y-110674700D02*
X112477300Y-110674700D01*
%TO.N,ESTOP_SENSE*%
X114008400Y-108023900D02*
X114940000Y-107092300D01*
%TO.N,U3_IMON*%
X114180000Y-5000000D02*
X114180000Y-6755000D01*
%TO.N,I2C_SCL*%
X114501600Y-122657600D02*
X119026300Y-118132900D01*
X119026300Y-118132900D02*
X120107900Y-118132900D01*
X120107900Y-118132900D02*
X124108600Y-114132200D01*
%TO.N,MOTOR_CS2*%
X120115700Y-117102800D02*
X113687600Y-110674700D01*
X120115700Y-117290700D02*
X120115700Y-117102800D01*
%TO.N,U3_IMON*%
X121000000Y-5000000D02*
X114180000Y-5000000D01*
%TO.N,I2C_SCL*%
X124108600Y-114132200D02*
X124108600Y-113283600D01*
%TO.N,VBAT_FUSED*%
D21*
X32400000Y-30000000D02*
X32865800Y-30582800D01*
%TO.N,ESTOP_CH_A_RETURN*%
D20*
X35000000Y-99000000D02*
X37210200Y-101210200D01*
X37210200Y-101210200D02*
X65210200Y-101210200D01*
%TO.N,INPUT_SENSE*%
D21*
X37500000Y-23500000D02*
X33500000Y-23500000D01*
%TO.N,ESTOP_SENSE*%
D20*
X41000000Y-120000000D02*
X45094300Y-120000000D01*
X45094300Y-120000000D02*
X57047200Y-108047100D01*
%TO.N,ESTOP_A_MON*%
X48000000Y-92000000D02*
X48000000Y-84000000D01*
X53330000Y-96500000D02*
X48000000Y-92000000D01*
%TO.N,ESTOP_B_MON*%
X56000000Y-92000000D02*
X54000000Y-84000000D01*
%TO.N,ESTOP_A_MON*%
X56813000Y-100808500D02*
X53330000Y-97325500D01*
%TO.N,ESTOP_SENSE*%
X57047200Y-108047100D02*
X54500000Y-105500000D01*
%TO.N,ESTOP_B_MON*%
X57330000Y-96500000D02*
X56000000Y-92000000D01*
%TO.N,ESTOP_SENSE*%
X59031800Y-110031800D02*
X57047200Y-108047100D01*
%TO.N,RELAY_A_NC*%
X60028600Y-92503700D02*
X65653300Y-98128400D01*
%TO.N,ESTOP_CH_A_RETURN*%
X65210200Y-101210200D02*
X69500000Y-105500000D01*
%TO.N,RELAY_A_NC*%
X65653300Y-98128400D02*
X104458200Y-98128400D01*
%TO.N,ESTOP_SENSE*%
X80385000Y-109671200D02*
X81648600Y-108407600D01*
X80385000Y-110031800D02*
X59031800Y-110031800D01*
X80385000Y-110031800D02*
X80385000Y-109671200D01*
X80385000Y-115705000D02*
X80385000Y-110031800D01*
X81648600Y-108407600D02*
X104053200Y-108407600D01*
%TO.N,I2C_SDA*%
X82000000Y-114780000D02*
X83270000Y-116050000D01*
%TO.N,ESTOP_SENSE*%
X82000000Y-117320000D02*
X80385000Y-115705000D01*
%TO.N,MOTOR_CS2*%
X83140800Y-110840800D02*
X82000000Y-109700000D01*
%TO.N,I2C_SDA*%
X83270000Y-116050000D02*
X92605700Y-116050000D01*
%TO.N,JETSON_PGOOD*%
X88330000Y-10000000D02*
X88330000Y-6755000D01*
%TO.N,ESTOP_A_MON*%
X91434600Y-100808500D02*
X56813000Y-100808500D01*
%TO.N,I2C_SDA*%
X92605700Y-116050000D02*
X97262900Y-120707200D01*
%TO.N,ESTOP_A_MON*%
X96805700Y-106179600D02*
X91434600Y-100808500D01*
%TO.N,I2C_SDA*%
X97262900Y-120707200D02*
X111499200Y-120707200D01*
%TD*%
M02*
